<svg width="1325" height="585" viewBox="0 0 1325 585" fill="none" xmlns="http://www.w3.org/2000/svg">
<g opacity="0.25">
<path d="M314.248 113.066L348.947 79.597L322.903 54.4361C313.771 45.8652 301.508 41.1068 288.767 41.1905C276.026 41.2743 263.832 46.1935 254.822 54.8838C245.813 63.574 240.713 75.3364 240.626 87.626C240.539 99.9156 245.472 111.744 254.358 120.552L309.332 173.499C302.576 164.505 299.36 153.484 300.261 142.41C301.162 131.337 306.12 120.935 314.248 113.066V113.066Z" fill="#65CDF0" fill-opacity="0.2"/>
<path d="M443.412 54.4298C434.322 45.6633 421.994 40.7385 409.14 40.7385C396.286 40.7385 383.958 45.6633 374.868 54.4298L348.945 79.5906L383.685 113.06C391.825 120.918 396.799 131.316 397.714 142.389C398.63 153.463 395.428 164.489 388.682 173.493L443.412 120.546C452.501 111.777 457.607 99.8864 457.607 87.4877C457.607 75.0889 452.501 63.1978 443.412 54.4298V54.4298Z" fill="#F7B923" fill-opacity="0.2"/>
<path d="M383.688 113.056L348.948 79.5864L314.249 113.056C306.121 120.924 301.163 131.326 300.262 142.4C299.361 153.473 302.577 164.494 309.333 173.489L315.224 179.172C319.638 183.505 324.902 186.947 330.71 189.297C336.517 191.646 342.752 192.856 349.05 192.856C355.347 192.856 361.582 191.646 367.39 189.297C373.197 186.947 378.462 183.505 382.875 179.172L388.767 173.489C395.502 164.476 398.69 153.445 397.759 142.371C396.829 131.297 391.84 120.904 383.688 113.056V113.056Z" fill="#EE2E7E" fill-opacity="0.2"/>
<path d="M13.0515 46.3586C21.148 32.0532 33.2579 20.2366 47.9942 12.2621C63.5375 3.96963 81.0635 -0.246482 98.8236 0.0344258C120.156 -0.522974 141.086 5.70158 158.389 17.7489C174.949 29.6395 186.666 46.7518 191.503 66.111H139.17C135.676 58.6365 129.909 52.363 122.633 48.1222C115.25 43.9408 106.816 41.7986 98.2547 41.93C91.5536 41.7085 84.8844 42.9181 78.7244 45.4723C72.5643 48.0266 67.0655 51.8623 62.6213 56.7051C53.52 66.5291 48.9693 79.6843 48.9693 96.1708C48.9693 112.67 53.52 125.799 62.6213 135.676C67.0676 140.514 72.5677 144.343 78.728 146.891C84.8883 149.438 91.5564 150.641 98.2547 150.412C106.812 150.557 115.246 148.428 122.633 144.259C129.909 140.018 135.676 133.744 139.17 126.27H191.503C186.685 145.605 174.943 162.677 158.348 174.475C141.033 186.457 120.125 192.637 98.8236 192.072C81.0672 192.365 63.5414 188.162 47.9942 179.883C33.2812 171.932 21.1751 160.16 13.0515 145.905C4.51729 130.64 0.207136 113.511 0.537154 96.1708C0.224196 78.8077 4.5329 61.6573 13.0515 46.3586V46.3586Z" fill="#4E132C" fill-opacity="0.2"/>
<path d="M589.689 46.3576C598.112 41.5951 607.718 39.1296 617.481 39.2248V87.8221H604.397C592.533 87.8221 583.635 90.2781 577.703 95.1901C571.771 100.102 568.791 108.737 568.764 121.096V190.699H521.145V40.8709H568.764V65.8357C574.071 57.8593 581.236 51.1892 589.689 46.3576V46.3576Z" fill="#4E132C" fill-opacity="0.2"/>
<path d="M841.599 126.774H733.886C734.046 134.778 737.375 142.42 743.19 148.133C748.686 153.083 755.991 155.732 763.506 155.501C768.682 155.867 773.847 154.671 778.288 152.08C782.728 149.489 786.224 145.631 788.291 141.04H838.958C836.402 150.804 831.597 159.886 824.899 167.611C817.977 175.576 809.265 181.916 799.424 186.149C788.639 190.733 776.956 193.019 765.172 192.85C751.019 193.103 737.033 189.865 724.541 183.445C712.739 177.353 703.016 168.097 696.546 156.794C689.649 144.23 686.207 130.17 686.551 115.957C686.213 101.771 689.61 87.7343 696.424 75.1589C702.733 63.7836 712.369 54.4479 724.134 48.3128C736.722 41.8726 750.804 38.6352 765.05 38.9069C778.943 38.6039 792.692 41.6768 805.031 47.8425C816.581 53.7867 826.105 62.8234 832.457 73.8656C839.252 85.9822 842.655 99.5982 842.33 113.37C842.359 117.848 842.114 122.324 841.599 126.774V126.774ZM793.735 101.26C793.919 97.6995 793.261 94.145 791.811 90.8655C790.361 87.5861 788.157 84.6677 785.365 82.3309C779.5 77.6213 772.024 75.19 764.4 75.5116C757.004 75.2577 749.77 77.6439 744.084 82.2133C738.349 87.119 734.713 93.9094 733.886 101.26H793.735Z" fill="#4E132C" fill-opacity="0.2"/>
<path d="M784.227 435.335L818.926 401.866L792.841 376.744C783.746 367.977 771.413 363.053 758.554 363.057C745.696 363.061 733.366 367.991 724.276 376.764C715.186 385.536 710.082 397.433 710.086 409.836C710.09 422.238 715.201 434.132 724.296 442.899L779.229 495.886C772.459 486.87 769.243 475.82 770.159 464.722C771.075 453.624 776.063 443.205 784.227 435.335V435.335Z" fill="#65CDF0" fill-opacity="0.2"/>
<path d="M913.555 376.739C904.465 367.972 892.137 363.047 879.283 363.047C866.429 363.047 854.101 367.972 845.011 376.739L818.926 401.86L853.625 435.33C861.768 443.194 866.743 453.599 867.659 464.679C868.574 475.759 865.371 486.792 858.622 495.802L913.555 442.894C918.062 438.551 921.637 433.395 924.076 427.719C926.515 422.044 927.77 415.96 927.77 409.816C927.77 403.672 926.515 397.588 924.076 391.913C921.637 386.237 918.062 381.081 913.555 376.739Z" fill="#F7B923" fill-opacity="0.2"/>
<path d="M853.788 435.336L819.09 401.867L784.391 435.336C776.247 443.201 771.272 453.605 770.357 464.685C769.441 475.765 772.644 486.798 779.393 495.808L785.244 501.452C789.664 505.782 794.932 509.22 800.743 511.567C806.553 513.914 812.79 515.123 819.09 515.123C825.389 515.123 831.626 513.914 837.436 511.567C843.247 509.22 848.515 505.782 852.935 501.452L858.786 495.808C865.535 486.798 868.738 475.765 867.822 464.685C866.907 453.605 861.932 443.201 853.788 435.336V435.336Z" fill="#EE2E7E" fill-opacity="0.2"/>
<path d="M48.1586 477.539H110.527V512.812H0.539062V324.458H48.1586V477.539Z" fill="#4E132C" fill-opacity="0.2"/>
<path d="M192.521 340.446C189.924 338.258 187.852 335.55 186.449 332.511C185.046 329.472 184.345 326.176 184.395 322.85C184.331 319.487 185.024 316.151 186.427 313.073C187.83 309.994 189.909 307.246 192.521 305.017C198.078 300.19 205.362 297.632 212.836 297.885C220.318 297.59 227.617 300.153 233.152 305.017C235.749 307.257 237.817 310.008 239.219 313.084C240.621 316.16 241.323 319.49 241.278 322.85C241.32 326.174 240.615 329.469 239.213 332.506C237.81 335.544 235.742 338.253 233.152 340.446C227.617 345.311 220.318 347.874 212.836 347.579C205.362 347.832 198.078 345.274 192.521 340.446V340.446ZM236.646 363.138V513.006H189.027V363.138H236.646Z" fill="#4E132C" fill-opacity="0.2"/>
<path d="M393.641 367.461C402.496 363.037 412.356 360.815 422.327 360.995C434.627 360.858 446.71 364.122 457.147 370.401C467.786 376.964 476.314 386.261 481.77 397.247C487.743 410.014 490.832 423.861 490.832 437.869C490.832 451.876 487.743 465.723 481.77 478.491C476.32 489.553 467.797 498.941 457.147 505.611C446.737 511.962 434.643 515.269 422.327 515.134C412.375 515.362 402.519 513.208 393.641 508.864C385.815 504.955 379.167 499.164 374.341 492.051V513.018H326.844V314.279H374.341V384.353C379.079 377.148 385.747 371.312 393.641 367.461V367.461ZM432.484 410.807C429.35 407.629 425.564 405.116 421.366 403.429C417.168 401.742 412.652 400.918 408.106 401.009C403.59 400.942 399.11 401.794 394.959 403.51C390.807 405.225 387.077 407.765 384.012 410.964C377.622 418.659 374.14 428.225 374.14 438.084C374.14 447.944 377.622 457.509 384.012 465.205C387.127 468.36 390.875 470.872 395.027 472.588C399.179 474.305 403.649 475.19 408.167 475.19C412.684 475.19 417.154 474.305 421.307 472.588C425.459 470.872 429.206 468.36 432.322 465.205C435.786 461.497 438.453 457.163 440.169 452.453C441.884 447.744 442.615 442.754 442.317 437.771C442.605 432.873 441.884 427.968 440.197 423.34C438.509 418.712 435.888 414.453 432.484 410.807V410.807Z" fill="#4E132C" fill-opacity="0.2"/>
<path d="M640.03 368.658C648.478 363.885 658.113 361.419 667.903 361.525V410.122H654.698C642.779 410.122 633.867 412.591 627.962 417.529C621.99 422.428 619.023 431.09 619.023 443.435V513H571.566V363.132H619.145V388.018C624.452 380.086 631.602 373.457 640.03 368.658V368.658Z" fill="#4E132C" fill-opacity="0.2"/>
<path d="M1059.62 368.658C1068.05 363.885 1077.68 361.419 1087.45 361.525V410.122H1074.37C1062.45 410.122 1053.54 412.591 1047.63 417.529C1041.7 422.428 1038.74 431.09 1038.74 443.435V513H991.117V363.132H1038.74V388.018C1044.03 380.078 1051.19 373.447 1059.62 368.658V368.658Z" fill="#4E132C" fill-opacity="0.2"/>
<path d="M1324.66 363.133L1227.15 584.133H1175.99L1211.62 507.867L1148.4 363.133H1201.59L1237.51 456.839L1273.14 363.133H1324.66Z" fill="#4E132C" fill-opacity="0.2"/>
</g>
</svg>
