<svg width="757" height="89" viewBox="0 0 757 89" fill="none" xmlns="http://www.w3.org/2000/svg">
<path d="M756 53.5V54.5H757V53.5H756ZM7.5 53.5V52.5H6.5V53.5H7.5ZM6.79289 88.2071C7.18342 88.5976 7.81658 88.5976 8.20711 88.2071L14.5711 81.8431C14.9616 81.4526 14.9616 80.8195 14.5711 80.4289C14.1805 80.0384 13.5474 80.0384 13.1569 80.4289L7.5 86.0858L1.84315 80.4289C1.45262 80.0384 0.819457 80.0384 0.428932 80.4289C0.0384078 80.8195 0.0384078 81.4526 0.428932 81.8431L6.79289 88.2071ZM755 0.5V53.5H757V0.5H755ZM756 52.5H7.5V54.5H756V52.5ZM7.5 53.5C6.5 53.5 6.5 53.5001 6.5 53.5002C6.5 53.5004 6.5 53.5006 6.5 53.5009C6.5 53.5013 6.5 53.5017 6.5 53.5021C6.5 53.5026 6.5 53.5032 6.5 53.5038C6.5 53.5044 6.5 53.5051 6.5 53.5059C6.5 53.5067 6.5 53.5075 6.5 53.5085C6.5 53.5094 6.5 53.5105 6.5 53.5115C6.5 53.5126 6.5 53.5138 6.5 53.5151C6.5 53.5163 6.5 53.5177 6.5 53.5191C6.5 53.5205 6.5 53.5219 6.5 53.5235C6.5 53.5251 6.5 53.5267 6.5 53.5284C6.5 53.5301 6.5 53.5319 6.5 53.5338C6.5 53.5357 6.5 53.5376 6.5 53.5396C6.5 53.5416 6.5 53.5437 6.5 53.5459C6.5 53.5481 6.5 53.5503 6.5 53.5527C6.5 53.555 6.5 53.5574 6.5 53.5598C6.5 53.5623 6.5 53.5649 6.5 53.5675C6.5 53.5701 6.5 53.5728 6.5 53.5756C6.5 53.5784 6.5 53.5812 6.5 53.5842C6.5 53.5871 6.5 53.5901 6.5 53.5932C6.5 53.5963 6.5 53.5994 6.5 53.6026C6.5 53.6059 6.5 53.6092 6.5 53.6125C6.5 53.6159 6.5 53.6194 6.5 53.6229C6.5 53.6264 6.5 53.63 6.5 53.6337C6.5 53.6374 6.5 53.6411 6.5 53.6449C6.5 53.6488 6.5 53.6527 6.5 53.6566C6.5 53.6606 6.5 53.6646 6.5 53.6688C6.5 53.6729 6.5 53.6771 6.5 53.6813C6.5 53.6856 6.5 53.6899 6.5 53.6943C6.5 53.6987 6.5 53.7032 6.5 53.7078C6.5 53.7123 6.5 53.7169 6.5 53.7216C6.5 53.7263 6.5 53.7311 6.5 53.736C6.5 53.7408 6.5 53.7457 6.5 53.7507C6.5 53.7557 6.5 53.7608 6.5 53.7659C6.5 53.771 6.5 53.7762 6.5 53.7815C6.5 53.7868 6.5 53.7921 6.5 53.7976C6.5 53.803 6.5 53.8085 6.5 53.814C6.5 53.8196 6.5 53.8252 6.5 53.8309C6.5 53.8366 6.5 53.8424 6.5 53.8483C6.5 53.8541 6.5 53.86 6.5 53.866C6.5 53.872 6.5 53.8781 6.5 53.8842C6.5 53.8903 6.5 53.8965 6.5 53.9028C6.5 53.909 6.5 53.9154 6.5 53.9218C6.5 53.9282 6.5 53.9347 6.5 53.9412C6.5 53.9478 6.5 53.9544 6.5 53.9611C6.5 53.9678 6.5 53.9745 6.5 53.9814C6.5 53.9882 6.5 53.9951 6.5 54.0021C6.5 54.009 6.5 54.0161 6.5 54.0232C6.5 54.0303 6.5 54.0375 6.5 54.0447C6.5 54.0519 6.5 54.0593 6.5 54.0666C6.5 54.074 6.5 54.0815 6.5 54.089C6.5 54.0965 6.5 54.1041 6.5 54.1117C6.5 54.1194 6.5 54.1271 6.5 54.1349C6.5 54.1427 6.5 54.1505 6.5 54.1585C6.5 54.1664 6.5 54.1744 6.5 54.1825C6.5 54.1905 6.5 54.1986 6.5 54.2068C6.5 54.215 6.5 54.2233 6.5 54.2316C6.5 54.24 6.5 54.2484 6.5 54.2568C6.5 54.2653 6.5 54.2738 6.5 54.2824C6.5 54.291 6.5 54.2997 6.5 54.3084C6.5 54.3171 6.5 54.3259 6.5 54.3348C6.5 54.3437 6.5 54.3526 6.5 54.3616C6.5 54.3706 6.5 54.3796 6.5 54.3888C6.5 54.3979 6.5 54.4071 6.5 54.4163C6.5 54.4256 6.5 54.4349 6.5 54.4443C6.5 54.4537 6.5 54.4632 6.5 54.4727C6.5 54.4822 6.5 54.4918 6.5 54.5014C6.5 54.5111 6.5 54.5208 6.5 54.5306C6.5 54.5404 6.5 54.5502 6.5 54.5601C6.5 54.57 6.5 54.58 6.5 54.59C6.5 54.6001 6.5 54.6102 6.5 54.6203C6.5 54.6305 6.5 54.6407 6.5 54.651C6.5 54.6613 6.5 54.6717 6.5 54.6821C6.5 54.6925 6.5 54.703 6.5 54.7136C6.5 54.7241 6.5 54.7347 6.5 54.7454C6.5 54.7561 6.5 54.7668 6.5 54.7776C6.5 54.7884 6.5 54.7993 6.5 54.8102C6.5 54.8212 6.5 54.8322 6.5 54.8432C6.5 54.8543 6.5 54.8654 6.5 54.8766C6.5 54.8877 6.5 54.899 6.5 54.9103C6.5 54.9216 6.5 54.933 6.5 54.9444C6.5 54.9558 6.5 54.9673 6.5 54.9789C6.5 54.9904 6.5 55.002 6.5 55.0137C6.5 55.0254 6.5 55.0371 6.5 55.0489C6.5 55.0607 6.5 55.0726 6.5 55.0845C6.5 55.0964 6.5 55.1084 6.5 55.1205C6.5 55.1325 6.5 55.1446 6.5 55.1568C6.5 55.1689 6.5 55.1812 6.5 55.1935C6.5 55.2057 6.5 55.2181 6.5 55.2305C6.5 55.2429 6.5 55.2554 6.5 55.2679C6.5 55.2804 6.5 55.293 6.5 55.3057C6.5 55.3183 6.5 55.331 6.5 55.3438C6.5 55.3566 6.5 55.3694 6.5 55.3823C6.5 55.3952 6.5 55.4081 6.5 55.4211C6.5 55.4341 6.5 55.4472 6.5 55.4603C6.5 55.4734 6.5 55.4866 6.5 55.4999C6.5 55.5131 6.5 55.5264 6.5 55.5398C6.5 55.5531 6.5 55.5666 6.5 55.58C6.5 55.5935 6.5 55.6071 6.5 55.6206C6.5 55.6342 6.5 55.6479 6.5 55.6616C6.5 55.6753 6.5 55.6891 6.5 55.7029C6.5 55.7167 6.5 55.7306 6.5 55.7446C6.5 55.7585 6.5 55.7725 6.5 55.7866C6.5 55.8006 6.5 55.8147 6.5 55.8289C6.5 55.8431 6.5 55.8573 6.5 55.8716C6.5 55.8859 6.5 55.9002 6.5 55.9146C6.5 55.929 6.5 55.9435 6.5 55.958C6.5 55.9725 6.5 55.9871 6.5 56.0017C6.5 56.0163 6.5 56.031 6.5 56.0458C6.5 56.0605 6.5 56.0753 6.5 56.0902C6.5 56.105 6.5 56.1199 6.5 56.1349C6.5 56.1498 6.5 56.1649 6.5 56.1799C6.5 56.195 6.5 56.2101 6.5 56.2253C6.5 56.2405 6.5 56.2557 6.5 56.271C6.5 56.2863 6.5 56.3017 6.5 56.3171C6.5 56.3325 6.5 56.348 6.5 56.3635C6.5 56.379 6.5 56.3946 6.5 56.4102C6.5 56.4258 6.5 56.4415 6.5 56.4572C6.5 56.473 6.5 56.4887 6.5 56.5046C6.5 56.5204 6.5 56.5363 6.5 56.5523C6.5 56.5682 6.5 56.5842 6.5 56.6003C6.5 56.6163 6.5 56.6325 6.5 56.6486C6.5 56.6648 6.5 56.681 6.5 56.6973C6.5 56.7135 6.5 56.7299 6.5 56.7462C6.5 56.7626 6.5 56.7791 6.5 56.7955C6.5 56.812 6.5 56.8286 6.5 56.8451C6.5 56.8617 6.5 56.8784 6.5 56.8951C6.5 56.9118 6.5 56.9285 6.5 56.9453C6.5 56.9621 6.5 56.979 6.5 56.9959C6.5 57.0128 6.5 57.0297 6.5 57.0467C6.5 57.0637 6.5 57.0808 6.5 57.0979C6.5 57.115 6.5 57.1322 6.5 57.1494C6.5 57.1666 6.5 57.1839 6.5 57.2012C6.5 57.2185 6.5 57.2358 6.5 57.2533C6.5 57.2707 6.5 57.2882 6.5 57.3057C6.5 57.3232 6.5 57.3408 6.5 57.3584C6.5 57.376 6.5 57.3937 6.5 57.4114C6.5 57.4291 6.5 57.4469 6.5 57.4647C6.5 57.4825 6.5 57.5004 6.5 57.5183C6.5 57.5362 6.5 57.5542 6.5 57.5722C6.5 57.5902 6.5 57.6083 6.5 57.6264C6.5 57.6446 6.5 57.6627 6.5 57.6809C6.5 57.6992 6.5 57.7174 6.5 57.7357C6.5 57.7541 6.5 57.7724 6.5 57.7908C6.5 57.8093 6.5 57.8277 6.5 57.8462C6.5 57.8647 6.5 57.8833 6.5 57.9019C6.5 57.9205 6.5 57.9392 6.5 57.9579C6.5 57.9766 6.5 57.9953 6.5 58.0141C6.5 58.0329 6.5 58.0518 6.5 58.0707C6.5 58.0896 6.5 58.1085 6.5 58.1275C6.5 58.1465 6.5 58.1656 6.5 58.1847C6.5 58.2037 6.5 58.2229 6.5 58.2421C6.5 58.2612 6.5 58.2805 6.5 58.2997C6.5 58.319 6.5 58.3383 6.5 58.3577C6.5 58.3771 6.5 58.3965 6.5 58.416C6.5 58.4354 6.5 58.4549 6.5 58.4745C6.5 58.494 6.5 58.5136 6.5 58.5333C6.5 58.5529 6.5 58.5726 6.5 58.5924C6.5 58.6121 6.5 58.6319 6.5 58.6517C6.5 58.6716 6.5 58.6915 6.5 58.7114C6.5 58.7313 6.5 58.7513 6.5 58.7713C6.5 58.7913 6.5 58.8114 6.5 58.8315C6.5 58.8516 6.5 58.8717 6.5 58.8919C6.5 58.9121 6.5 58.9323 6.5 58.9526C6.5 58.9729 6.5 58.9932 6.5 59.0136C6.5 59.034 6.5 59.0544 6.5 59.0749C6.5 59.0953 6.5 59.1158 6.5 59.1364C6.5 59.1569 6.5 59.1775 6.5 59.1982C6.5 59.2188 6.5 59.2395 6.5 59.2602C6.5 59.2809 6.5 59.3017 6.5 59.3225C6.5 59.3433 6.5 59.3642 6.5 59.3851C6.5 59.406 6.5 59.4269 6.5 59.4479C6.5 59.4689 6.5 59.4899 6.5 59.511C6.5 59.532 6.5 59.5532 6.5 59.5743C6.5 59.5955 6.5 59.6167 6.5 59.6379C6.5 59.6591 6.5 59.6804 6.5 59.7018C6.5 59.7231 6.5 59.7444 6.5 59.7659C6.5 59.7873 6.5 59.8087 6.5 59.8302C6.5 59.8517 6.5 59.8732 6.5 59.8948C6.5 59.9164 6.5 59.938 6.5 59.9597C6.5 59.9813 6.5 60.003 6.5 60.0248C6.5 60.0465 6.5 60.0683 6.5 60.0901C6.5 60.1119 6.5 60.1338 6.5 60.1557C6.5 60.1776 6.5 60.1995 6.5 60.2215C6.5 60.2435 6.5 60.2655 6.5 60.2876C6.5 60.3097 6.5 60.3318 6.5 60.3539C6.5 60.3761 6.5 60.3983 6.5 60.4205C6.5 60.4427 6.5 60.465 6.5 60.4873C6.5 60.5096 6.5 60.5319 6.5 60.5543C6.5 60.5767 6.5 60.5991 6.5 60.6216C6.5 60.644 6.5 60.6665 6.5 60.6891C6.5 60.7116 6.5 60.7342 6.5 60.7568C6.5 60.7794 6.5 60.8021 6.5 60.8248C6.5 60.8475 6.5 60.8702 6.5 60.893C6.5 60.9158 6.5 60.9386 6.5 60.9614C6.5 60.9843 6.5 61.0072 6.5 61.0301C6.5 61.053 6.5 61.076 6.5 61.099C6.5 61.122 6.5 61.145 6.5 61.1681C6.5 61.1912 6.5 61.2143 6.5 61.2374C6.5 61.2606 6.5 61.2838 6.5 61.307C6.5 61.3302 6.5 61.3535 6.5 61.3768C6.5 61.4001 6.5 61.4234 6.5 61.4468C6.5 61.4702 6.5 61.4936 6.5 61.517C6.5 61.5405 6.5 61.564 6.5 61.5875C6.5 61.611 6.5 61.6345 6.5 61.6581C6.5 61.6817 6.5 61.7054 6.5 61.729C6.5 61.7527 6.5 61.7764 6.5 61.8001C6.5 61.8238 6.5 61.8476 6.5 61.8714C6.5 61.8952 6.5 61.9191 6.5 61.9429C6.5 61.9668 6.5 61.9907 6.5 62.0147C6.5 62.0386 6.5 62.0626 6.5 62.0866C6.5 62.1106 6.5 62.1347 6.5 62.1588C6.5 62.1828 6.5 62.207 6.5 62.2311C6.5 62.2553 6.5 62.2795 6.5 62.3037C6.5 62.3279 6.5 62.3522 6.5 62.3765C6.5 62.4007 6.5 62.4251 6.5 62.4494C6.5 62.4738 6.5 62.4982 6.5 62.5226C6.5 62.547 6.5 62.5715 6.5 62.596C6.5 62.6205 6.5 62.645 6.5 62.6696C6.5 62.6941 6.5 62.7187 6.5 62.7433C6.5 62.768 6.5 62.7926 6.5 62.8173C6.5 62.842 6.5 62.8667 6.5 62.8915C6.5 62.9162 6.5 62.941 6.5 62.9658C6.5 62.9907 6.5 63.0155 6.5 63.0404C6.5 63.0653 6.5 63.0902 6.5 63.1151C6.5 63.1401 6.5 63.1651 6.5 63.1901C6.5 63.2151 6.5 63.2401 6.5 63.2652C6.5 63.2903 6.5 63.3154 6.5 63.3405C6.5 63.3657 6.5 63.3908 6.5 63.416C6.5 63.4412 6.5 63.4665 6.5 63.4917C6.5 63.517 6.5 63.5423 6.5 63.5676C6.5 63.5929 6.5 63.6183 6.5 63.6437C6.5 63.669 6.5 63.6945 6.5 63.7199C6.5 63.7453 6.5 63.7708 6.5 63.7963C6.5 63.8218 6.5 63.8474 6.5 63.8729C6.5 63.8985 6.5 63.9241 6.5 63.9497C6.5 63.9753 6.5 64.001 6.5 64.0267C6.5 64.0523 6.5 64.078 6.5 64.1038C6.5 64.1295 6.5 64.1553 6.5 64.1811C6.5 64.2069 6.5 64.2327 6.5 64.2586C6.5 64.2844 6.5 64.3103 6.5 64.3362C6.5 64.3621 6.5 64.3881 6.5 64.4141C6.5 64.44 6.5 64.466 6.5 64.492C6.5 64.5181 6.5 64.5441 6.5 64.5702C6.5 64.5963 6.5 64.6224 6.5 64.6485C6.5 64.6747 6.5 64.7008 6.5 64.727C6.5 64.7532 6.5 64.7794 6.5 64.8057C6.5 64.8319 6.5 64.8582 6.5 64.8845C6.5 64.9108 6.5 64.9371 6.5 64.9635C6.5 64.9898 6.5 65.0162 6.5 65.0426C6.5 65.069 6.5 65.0955 6.5 65.1219C6.5 65.1484 6.5 65.1749 6.5 65.2014C6.5 65.2279 6.5 65.2545 6.5 65.281C6.5 65.3076 6.5 65.3342 6.5 65.3608C6.5 65.3874 6.5 65.4141 6.5 65.4407C6.5 65.4674 6.5 65.4941 6.5 65.5208C6.5 65.5475 6.5 65.5743 6.5 65.6011C6.5 65.6278 6.5 65.6546 6.5 65.6814C6.5 65.7083 6.5 65.7351 6.5 65.762C6.5 65.7888 6.5 65.8157 6.5 65.8427C6.5 65.8696 6.5 65.8965 6.5 65.9235C6.5 65.9505 6.5 65.9774 6.5 66.0045C6.5 66.0315 6.5 66.0585 6.5 66.0856C6.5 66.1126 6.5 66.1397 6.5 66.1668C6.5 66.194 6.5 66.2211 6.5 66.2483C6.5 66.2754 6.5 66.3026 6.5 66.3298C6.5 66.357 6.5 66.3842 6.5 66.4115C6.5 66.4387 6.5 66.466 6.5 66.4933C6.5 66.5206 6.5 66.5479 6.5 66.5753C6.5 66.6026 6.5 66.63 6.5 66.6574C6.5 66.6848 6.5 66.7122 6.5 66.7396C6.5 66.767 6.5 66.7945 6.5 66.822C6.5 66.8494 6.5 66.8769 6.5 66.9044C6.5 66.932 6.5 66.9595 6.5 66.9871C6.5 67.0146 6.5 67.0422 6.5 67.0698C6.5 67.0974 6.5 67.1251 6.5 67.1527C6.5 67.1804 6.5 67.208 6.5 67.2357C6.5 67.2634 6.5 67.2911 6.5 67.3189C6.5 67.3466 6.5 67.3743 6.5 67.4021C6.5 67.4299 6.5 67.4577 6.5 67.4855C6.5 67.5133 6.5 67.5412 6.5 67.569C6.5 67.5969 6.5 67.6247 6.5 67.6526C6.5 67.6805 6.5 67.7084 6.5 67.7364C6.5 67.7643 6.5 67.7923 6.5 67.8202C6.5 67.8482 6.5 67.8762 6.5 67.9042C6.5 67.9322 6.5 67.9603 6.5 67.9883C6.5 68.0164 6.5 68.0444 6.5 68.0725C6.5 68.1006 6.5 68.1287 6.5 68.1568C6.5 68.185 6.5 68.2131 6.5 68.2413C6.5 68.2694 6.5 68.2976 6.5 68.3258C6.5 68.354 6.5 68.3822 6.5 68.4105C6.5 68.4387 6.5 68.467 6.5 68.4952C6.5 68.5235 6.5 68.5518 6.5 68.5801C6.5 68.6084 6.5 68.6367 6.5 68.6651C6.5 68.6934 6.5 68.7218 6.5 68.7501C6.5 68.7785 6.5 68.8069 6.5 68.8353C6.5 68.8637 6.5 68.8922 6.5 68.9206C6.5 68.9491 6.5 68.9775 6.5 69.006C6.5 69.0345 6.5 69.063 6.5 69.0915C6.5 69.12 6.5 69.1485 6.5 69.177C6.5 69.2056 6.5 69.2341 6.5 69.2627C6.5 69.2913 6.5 69.3199 6.5 69.3485C6.5 69.3771 6.5 69.4057 6.5 69.4343C6.5 69.463 6.5 69.4916 6.5 69.5203C6.5 69.549 6.5 69.5777 6.5 69.6064C6.5 69.6351 6.5 69.6638 6.5 69.6925C6.5 69.7212 6.5 69.75 6.5 69.7787C6.5 69.8075 6.5 69.8363 6.5 69.865C6.5 69.8938 6.5 69.9226 6.5 69.9514C6.5 69.9803 6.5 70.0091 6.5 70.0379C6.5 70.0668 6.5 70.0956 6.5 70.1245C6.5 70.1534 6.5 70.1823 6.5 70.2112C6.5 70.2401 6.5 70.269 6.5 70.2979C6.5 70.3268 6.5 70.3558 6.5 70.3847C6.5 70.4137 6.5 70.4426 6.5 70.4716C6.5 70.5006 6.5 70.5296 6.5 70.5586C6.5 70.5876 6.5 70.6166 6.5 70.6456C6.5 70.6746 6.5 70.7037 6.5 70.7327C6.5 70.7618 6.5 70.7909 6.5 70.8199C6.5 70.849 6.5 70.8781 6.5 70.9072C6.5 70.9363 6.5 70.9654 6.5 70.9945C6.5 71.0237 6.5 71.0528 6.5 71.082C6.5 71.1111 6.5 71.1403 6.5 71.1694C6.5 71.1986 6.5 71.2278 6.5 71.257C6.5 71.2862 6.5 71.3154 6.5 71.3446C6.5 71.3738 6.5 71.403 6.5 71.4323C6.5 71.4615 6.5 71.4908 6.5 71.52C6.5 71.5493 6.5 71.5785 6.5 71.6078C6.5 71.6371 6.5 71.6664 6.5 71.6957C6.5 71.725 6.5 71.7543 6.5 71.7836C6.5 71.8129 6.5 71.8423 6.5 71.8716C6.5 71.9009 6.5 71.9303 6.5 71.9596C6.5 71.989 6.5 72.0184 6.5 72.0478C6.5 72.0771 6.5 72.1065 6.5 72.1359C6.5 72.1653 6.5 72.1947 6.5 72.2241C6.5 72.2535 6.5 72.2829 6.5 72.3124C6.5 72.3418 6.5 72.3712 6.5 72.4007C6.5 72.4301 6.5 72.4596 6.5 72.489C6.5 72.5185 6.5 72.548 6.5 72.5775C6.5 72.6069 6.5 72.6364 6.5 72.6659C6.5 72.6954 6.5 72.7249 6.5 72.7544C6.5 72.7839 6.5 72.8134 6.5 72.843C6.5 72.8725 6.5 72.902 6.5 72.9316C6.5 72.9611 6.5 72.9906 6.5 73.0202C6.5 73.0497 6.5 73.0793 6.5 73.1089C6.5 73.1384 6.5 73.168 6.5 73.1976C6.5 73.2272 6.5 73.2568 6.5 73.2863C6.5 73.3159 6.5 73.3455 6.5 73.3751C6.5 73.4047 6.5 73.4343 6.5 73.464C6.5 73.4936 6.5 73.5232 6.5 73.5528C6.5 73.5825 6.5 73.6121 6.5 73.6417C6.5 73.6714 6.5 73.701 6.5 73.7307C6.5 73.7603 6.5 73.79 6.5 73.8196C6.5 73.8493 6.5 73.8789 6.5 73.9086C6.5 73.9383 6.5 73.9679 6.5 73.9976C6.5 74.0273 6.5 74.057 6.5 74.0867C6.5 74.1163 6.5 74.146 6.5 74.1757C6.5 74.2054 6.5 74.2351 6.5 74.2648C6.5 74.2945 6.5 74.3242 6.5 74.354C6.5 74.3837 6.5 74.4134 6.5 74.4431C6.5 74.4728 6.5 74.5025 6.5 74.5323C6.5 74.562 6.5 74.5917 6.5 74.6214C6.5 74.6512 6.5 74.6809 6.5 74.7106C6.5 74.7404 6.5 74.7701 6.5 74.7999C6.5 74.8296 6.5 74.8594 6.5 74.8891C6.5 74.9188 6.5 74.9486 6.5 74.9783C6.5 75.0081 6.5 75.0379 6.5 75.0676C6.5 75.0974 6.5 75.1271 6.5 75.1569C6.5 75.1866 6.5 75.2164 6.5 75.2462C6.5 75.2759 6.5 75.3057 6.5 75.3355C6.5 75.3652 6.5 75.395 6.5 75.4248C6.5 75.4545 6.5 75.4843 6.5 75.5141C6.5 75.5439 6.5 75.5736 6.5 75.6034C6.5 75.6332 6.5 75.6629 6.5 75.6927C6.5 75.7225 6.5 75.7523 6.5 75.782C6.5 75.8118 6.5 75.8416 6.5 75.8714C6.5 75.9011 6.5 75.9309 6.5 75.9607C6.5 75.9905 6.5 76.0203 6.5 76.05C6.5 76.0798 6.5 76.1096 6.5 76.1394C6.5 76.1691 6.5 76.1989 6.5 76.2287C6.5 76.2585 6.5 76.2882 6.5 76.318C6.5 76.3478 6.5 76.3775 6.5 76.4073C6.5 76.4371 6.5 76.4669 6.5 76.4966C6.5 76.5264 6.5 76.5562 6.5 76.5859C6.5 76.6157 6.5 76.6454 6.5 76.6752C6.5 76.705 6.5 76.7347 6.5 76.7645C6.5 76.7942 6.5 76.824 6.5 76.8538C6.5 76.8835 6.5 76.9133 6.5 76.943C6.5 76.9728 6.5 77.0025 6.5 77.0322C6.5 77.062 6.5 77.0917 6.5 77.1215C6.5 77.1512 6.5 77.1809 6.5 77.2107C6.5 77.2404 6.5 77.2701 6.5 77.2999C6.5 77.3296 6.5 77.3593 6.5 77.389C6.5 77.4188 6.5 77.4485 6.5 77.4782C6.5 77.5079 6.5 77.5376 6.5 77.5673C6.5 77.597 6.5 77.6267 6.5 77.6564C6.5 77.6861 6.5 77.7158 6.5 77.7455C6.5 77.7752 6.5 77.8049 6.5 77.8346C6.5 77.8642 6.5 77.8939 6.5 77.9236C6.5 77.9533 6.5 77.9829 6.5 78.0126C6.5 78.0423 6.5 78.0719 6.5 78.1016C6.5 78.1312 6.5 78.1609 6.5 78.1905C6.5 78.2201 6.5 78.2498 6.5 78.2794C6.5 78.309 6.5 78.3387 6.5 78.3683C6.5 78.3979 6.5 78.4275 6.5 78.4571C6.5 78.4867 6.5 78.5163 6.5 78.5459C6.5 78.5755 6.5 78.6051 6.5 78.6347C6.5 78.6643 6.5 78.6939 6.5 78.7234C6.5 78.753 6.5 78.7826 6.5 78.8121C6.5 78.8417 6.5 78.8712 6.5 78.9008C6.5 78.9303 6.5 78.9598 6.5 78.9894C6.5 79.0189 6.5 79.0484 6.5 79.0779C6.5 79.1075 6.5 79.137 6.5 79.1665C6.5 79.196 6.5 79.2255 6.5 79.2549C6.5 79.2844 6.5 79.3139 6.5 79.3434C6.5 79.3728 6.5 79.4023 6.5 79.4317C6.5 79.4612 6.5 79.4906 6.5 79.5201C6.5 79.5495 6.5 79.5789 6.5 79.6084C6.5 79.6378 6.5 79.6672 6.5 79.6966C6.5 79.726 6.5 79.7554 6.5 79.7848C6.5 79.8141 6.5 79.8435 6.5 79.8729C6.5 79.9022 6.5 79.9316 6.5 79.9609C6.5 79.9903 6.5 80.0196 6.5 80.0489C6.5 80.0783 6.5 80.1076 6.5 80.1369C6.5 80.1662 6.5 80.1955 6.5 80.2248C6.5 80.2541 6.5 80.2833 6.5 80.3126C6.5 80.3419 6.5 80.3711 6.5 80.4004C6.5 80.4296 6.5 80.4589 6.5 80.4881C6.5 80.5173 6.5 80.5465 6.5 80.5757C6.5 80.6049 6.5 80.6341 6.5 80.6633C6.5 80.6925 6.5 80.7216 6.5 80.7508C6.5 80.7799 6.5 80.8091 6.5 80.8382C6.5 80.8674 6.5 80.8965 6.5 80.9256C6.5 80.9547 6.5 80.9838 6.5 81.0129C6.5 81.042 6.5 81.071 6.5 81.1001C6.5 81.1292 6.5 81.1582 6.5 81.1873C6.5 81.2163 6.5 81.2453 6.5 81.2743C6.5 81.3033 6.5 81.3324 6.5 81.3613C6.5 81.3903 6.5 81.4193 6.5 81.4483C6.5 81.4772 6.5 81.5062 6.5 81.5351C6.5 81.564 6.5 81.593 6.5 81.6219C6.5 81.6508 6.5 81.6797 6.5 81.7085C6.5 81.7374 6.5 81.7663 6.5 81.7952C6.5 81.824 6.5 81.8528 6.5 81.8817C6.5 81.9105 6.5 81.9393 6.5 81.9681C6.5 81.9969 6.5 82.0257 6.5 82.0544C6.5 82.0832 6.5 82.112 6.5 82.1407C6.5 82.1694 6.5 82.1982 6.5 82.2269C6.5 82.2556 6.5 82.2843 6.5 82.313C6.5 82.3416 6.5 82.3703 6.5 82.3989C6.5 82.4276 6.5 82.4562 6.5 82.4848C6.5 82.5135 6.5 82.5421 6.5 82.5706C6.5 82.5992 6.5 82.6278 6.5 82.6564C6.5 82.6849 6.5 82.7134 6.5 82.742C6.5 82.7705 6.5 82.799 6.5 82.8275C6.5 82.856 6.5 82.8844 6.5 82.9129C6.5 82.9414 6.5 82.9698 6.5 82.9982C6.5 83.0266 6.5 83.055 6.5 83.0834C6.5 83.1118 6.5 83.1402 6.5 83.1685C6.5 83.1969 6.5 83.2252 6.5 83.2536C6.5 83.2819 6.5 83.3102 6.5 83.3385C6.5 83.3667 6.5 83.395 6.5 83.4233C6.5 83.4515 6.5 83.4797 6.5 83.5079C6.5 83.5362 6.5 83.5644 6.5 83.5925C6.5 83.6207 6.5 83.6489 6.5 83.677C6.5 83.7051 6.5 83.7333 6.5 83.7614C6.5 83.7895 6.5 83.8176 6.5 83.8456C6.5 83.8737 6.5 83.9017 6.5 83.9297C6.5 83.9578 6.5 83.9858 6.5 84.0138C6.5 84.0418 6.5 84.0697 6.5 84.0977C6.5 84.1256 6.5 84.1536 6.5 84.1815C6.5 84.2094 6.5 84.2373 6.5 84.2651C6.5 84.293 6.5 84.3208 6.5 84.3487C6.5 84.3765 6.5 84.4043 6.5 84.4321C6.5 84.4599 6.5 84.4877 6.5 84.5154C6.5 84.5432 6.5 84.5709 6.5 84.5986C6.5 84.6263 6.5 84.654 6.5 84.6816C6.5 84.7093 6.5 84.737 6.5 84.7646C6.5 84.7922 6.5 84.8198 6.5 84.8474C6.5 84.875 6.5 84.9025 6.5 84.93C6.5 84.9576 6.5 84.9851 6.5 85.0126C6.5 85.0401 6.5 85.0676 6.5 85.095C6.5 85.1224 6.5 85.1499 6.5 85.1773C6.5 85.2047 6.5 85.2321 6.5 85.2594C6.5 85.2868 6.5 85.3141 6.5 85.3414C6.5 85.3687 6.5 85.396 6.5 85.4233C6.5 85.4506 6.5 85.4778 6.5 85.505C6.5 85.5323 6.5 85.5595 6.5 85.5866C6.5 85.6138 6.5 85.641 6.5 85.6681C6.5 85.6952 6.5 85.7223 6.5 85.7494C6.5 85.7765 6.5 85.8035 6.5 85.8306C6.5 85.8576 6.5 85.8846 6.5 85.9116C6.5 85.9386 6.5 85.9656 6.5 85.9925C6.5 86.0194 6.5 86.0463 6.5 86.0732C6.5 86.1001 6.5 86.127 6.5 86.1538C6.5 86.1806 6.5 86.2075 6.5 86.2343C6.5 86.261 6.5 86.2878 6.5 86.3145C6.5 86.3413 6.5 86.368 6.5 86.3947C6.5 86.4214 6.5 86.448 6.5 86.4747C6.5 86.5013 6.5 86.5279 6.5 86.5545C6.5 86.5811 6.5 86.6076 6.5 86.6342C6.5 86.6607 6.5 86.6872 6.5 86.7137C6.5 86.7402 6.5 86.7666 6.5 86.7931C6.5 86.8195 6.5 86.8459 6.5 86.8723C6.5 86.8986 6.5 86.925 6.5 86.9513C6.5 86.9776 6.5 87.0039 6.5 87.0302C6.5 87.0564 6.5 87.0827 6.5 87.1089C6.5 87.1351 6.5 87.1613 6.5 87.1875C6.5 87.2136 6.5 87.2397 6.5 87.2658C6.5 87.2919 6.5 87.318 6.5 87.3441C6.5 87.3701 6.5 87.3961 6.5 87.4221C6.5 87.4481 6.5 87.4741 6.5 87.5H8.5C8.5 87.4741 8.5 87.4481 8.5 87.4221C8.5 87.3961 8.5 87.3701 8.5 87.3441C8.5 87.318 8.5 87.2919 8.5 87.2658C8.5 87.2397 8.5 87.2136 8.5 87.1875C8.5 87.1613 8.5 87.1351 8.5 87.1089C8.5 87.0827 8.5 87.0564 8.5 87.0302C8.5 87.0039 8.5 86.9776 8.5 86.9513C8.5 86.925 8.5 86.8986 8.5 86.8723C8.5 86.8459 8.5 86.8195 8.5 86.7931C8.5 86.7666 8.5 86.7402 8.5 86.7137C8.5 86.6872 8.5 86.6607 8.5 86.6342C8.5 86.6076 8.5 86.5811 8.5 86.5545C8.5 86.5279 8.5 86.5013 8.5 86.4747C8.5 86.448 8.5 86.4214 8.5 86.3947C8.5 86.368 8.5 86.3413 8.5 86.3145C8.5 86.2878 8.5 86.261 8.5 86.2343C8.5 86.2075 8.5 86.1806 8.5 86.1538C8.5 86.127 8.5 86.1001 8.5 86.0732C8.5 86.0463 8.5 86.0194 8.5 85.9925C8.5 85.9656 8.5 85.9386 8.5 85.9116C8.5 85.8846 8.5 85.8576 8.5 85.8306C8.5 85.8035 8.5 85.7765 8.5 85.7494C8.5 85.7223 8.5 85.6952 8.5 85.6681C8.5 85.641 8.5 85.6138 8.5 85.5866C8.5 85.5595 8.5 85.5323 8.5 85.505C8.5 85.4778 8.5 85.4506 8.5 85.4233C8.5 85.396 8.5 85.3687 8.5 85.3414C8.5 85.3141 8.5 85.2868 8.5 85.2594C8.5 85.2321 8.5 85.2047 8.5 85.1773C8.5 85.1499 8.5 85.1224 8.5 85.095C8.5 85.0676 8.5 85.0401 8.5 85.0126C8.5 84.9851 8.5 84.9576 8.5 84.93C8.5 84.9025 8.5 84.875 8.5 84.8474C8.5 84.8198 8.5 84.7922 8.5 84.7646C8.5 84.737 8.5 84.7093 8.5 84.6816C8.5 84.654 8.5 84.6263 8.5 84.5986C8.5 84.5709 8.5 84.5432 8.5 84.5154C8.5 84.4877 8.5 84.4599 8.5 84.4321C8.5 84.4043 8.5 84.3765 8.5 84.3487C8.5 84.3208 8.5 84.293 8.5 84.2651C8.5 84.2373 8.5 84.2094 8.5 84.1815C8.5 84.1536 8.5 84.1256 8.5 84.0977C8.5 84.0697 8.5 84.0418 8.5 84.0138C8.5 83.9858 8.5 83.9578 8.5 83.9297C8.5 83.9017 8.5 83.8737 8.5 83.8456C8.5 83.8176 8.5 83.7895 8.5 83.7614C8.5 83.7333 8.5 83.7051 8.5 83.677C8.5 83.6489 8.5 83.6207 8.5 83.5925C8.5 83.5644 8.5 83.5362 8.5 83.5079C8.5 83.4797 8.5 83.4515 8.5 83.4233C8.5 83.395 8.5 83.3667 8.5 83.3385C8.5 83.3102 8.5 83.2819 8.5 83.2536C8.5 83.2252 8.5 83.1969 8.5 83.1685C8.5 83.1402 8.5 83.1118 8.5 83.0834C8.5 83.055 8.5 83.0266 8.5 82.9982C8.5 82.9698 8.5 82.9414 8.5 82.9129C8.5 82.8844 8.5 82.856 8.5 82.8275C8.5 82.799 8.5 82.7705 8.5 82.742C8.5 82.7134 8.5 82.6849 8.5 82.6564C8.5 82.6278 8.5 82.5992 8.5 82.5706C8.5 82.5421 8.5 82.5135 8.5 82.4848C8.5 82.4562 8.5 82.4276 8.5 82.3989C8.5 82.3703 8.5 82.3416 8.5 82.313C8.5 82.2843 8.5 82.2556 8.5 82.2269C8.5 82.1982 8.5 82.1694 8.5 82.1407C8.5 82.112 8.5 82.0832 8.5 82.0544C8.5 82.0257 8.5 81.9969 8.5 81.9681C8.5 81.9393 8.5 81.9105 8.5 81.8817C8.5 81.8528 8.5 81.824 8.5 81.7952C8.5 81.7663 8.5 81.7374 8.5 81.7085C8.5 81.6797 8.5 81.6508 8.5 81.6219C8.5 81.593 8.5 81.564 8.5 81.5351C8.5 81.5062 8.5 81.4772 8.5 81.4483C8.5 81.4193 8.5 81.3903 8.5 81.3613C8.5 81.3324 8.5 81.3033 8.5 81.2743C8.5 81.2453 8.5 81.2163 8.5 81.1873C8.5 81.1582 8.5 81.1292 8.5 81.1001C8.5 81.071 8.5 81.042 8.5 81.0129C8.5 80.9838 8.5 80.9547 8.5 80.9256C8.5 80.8965 8.5 80.8674 8.5 80.8382C8.5 80.8091 8.5 80.7799 8.5 80.7508C8.5 80.7216 8.5 80.6925 8.5 80.6633C8.5 80.6341 8.5 80.6049 8.5 80.5757C8.5 80.5465 8.5 80.5173 8.5 80.4881C8.5 80.4589 8.5 80.4296 8.5 80.4004C8.5 80.3711 8.5 80.3419 8.5 80.3126C8.5 80.2833 8.5 80.2541 8.5 80.2248C8.5 80.1955 8.5 80.1662 8.5 80.1369C8.5 80.1076 8.5 80.0783 8.5 80.0489C8.5 80.0196 8.5 79.9903 8.5 79.9609C8.5 79.9316 8.5 79.9022 8.5 79.8729C8.5 79.8435 8.5 79.8141 8.5 79.7848C8.5 79.7554 8.5 79.726 8.5 79.6966C8.5 79.6672 8.5 79.6378 8.5 79.6084C8.5 79.5789 8.5 79.5495 8.5 79.5201C8.5 79.4906 8.5 79.4612 8.5 79.4317C8.5 79.4023 8.5 79.3728 8.5 79.3434C8.5 79.3139 8.5 79.2844 8.5 79.2549C8.5 79.2255 8.5 79.196 8.5 79.1665C8.5 79.137 8.5 79.1075 8.5 79.0779C8.5 79.0484 8.5 79.0189 8.5 78.9894C8.5 78.9598 8.5 78.9303 8.5 78.9008C8.5 78.8712 8.5 78.8417 8.5 78.8121C8.5 78.7826 8.5 78.753 8.5 78.7234C8.5 78.6939 8.5 78.6643 8.5 78.6347C8.5 78.6051 8.5 78.5755 8.5 78.5459C8.5 78.5163 8.5 78.4867 8.5 78.4571C8.5 78.4275 8.5 78.3979 8.5 78.3683C8.5 78.3387 8.5 78.309 8.5 78.2794C8.5 78.2498 8.5 78.2201 8.5 78.1905C8.5 78.1609 8.5 78.1312 8.5 78.1016C8.5 78.0719 8.5 78.0423 8.5 78.0126C8.5 77.9829 8.5 77.9533 8.5 77.9236C8.5 77.8939 8.5 77.8642 8.5 77.8346C8.5 77.8049 8.5 77.7752 8.5 77.7455C8.5 77.7158 8.5 77.6861 8.5 77.6564C8.5 77.6267 8.5 77.597 8.5 77.5673C8.5 77.5376 8.5 77.5079 8.5 77.4782C8.5 77.4485 8.5 77.4188 8.5 77.389C8.5 77.3593 8.5 77.3296 8.5 77.2999C8.5 77.2701 8.5 77.2404 8.5 77.2107C8.5 77.1809 8.5 77.1512 8.5 77.1215C8.5 77.0917 8.5 77.062 8.5 77.0322C8.5 77.0025 8.5 76.9728 8.5 76.943C8.5 76.9133 8.5 76.8835 8.5 76.8538C8.5 76.824 8.5 76.7942 8.5 76.7645C8.5 76.7347 8.5 76.705 8.5 76.6752C8.5 76.6454 8.5 76.6157 8.5 76.5859C8.5 76.5562 8.5 76.5264 8.5 76.4966C8.5 76.4669 8.5 76.4371 8.5 76.4073C8.5 76.3775 8.5 76.3478 8.5 76.318C8.5 76.2882 8.5 76.2585 8.5 76.2287C8.5 76.1989 8.5 76.1691 8.5 76.1394C8.5 76.1096 8.5 76.0798 8.5 76.05C8.5 76.0203 8.5 75.9905 8.5 75.9607C8.5 75.9309 8.5 75.9011 8.5 75.8714C8.5 75.8416 8.5 75.8118 8.5 75.782C8.5 75.7523 8.5 75.7225 8.5 75.6927C8.5 75.6629 8.5 75.6332 8.5 75.6034C8.5 75.5736 8.5 75.5439 8.5 75.5141C8.5 75.4843 8.5 75.4545 8.5 75.4248C8.5 75.395 8.5 75.3652 8.5 75.3355C8.5 75.3057 8.5 75.2759 8.5 75.2462C8.5 75.2164 8.5 75.1866 8.5 75.1569C8.5 75.1271 8.5 75.0974 8.5 75.0676C8.5 75.0379 8.5 75.0081 8.5 74.9783C8.5 74.9486 8.5 74.9188 8.5 74.8891C8.5 74.8594 8.5 74.8296 8.5 74.7999C8.5 74.7701 8.5 74.7404 8.5 74.7106C8.5 74.6809 8.5 74.6512 8.5 74.6214C8.5 74.5917 8.5 74.562 8.5 74.5323C8.5 74.5025 8.5 74.4728 8.5 74.4431C8.5 74.4134 8.5 74.3837 8.5 74.354C8.5 74.3242 8.5 74.2945 8.5 74.2648C8.5 74.2351 8.5 74.2054 8.5 74.1757C8.5 74.146 8.5 74.1163 8.5 74.0867C8.5 74.057 8.5 74.0273 8.5 73.9976C8.5 73.9679 8.5 73.9383 8.5 73.9086C8.5 73.8789 8.5 73.8493 8.5 73.8196C8.5 73.79 8.5 73.7603 8.5 73.7307C8.5 73.701 8.5 73.6714 8.5 73.6417C8.5 73.6121 8.5 73.5825 8.5 73.5528C8.5 73.5232 8.5 73.4936 8.5 73.464C8.5 73.4343 8.5 73.4047 8.5 73.3751C8.5 73.3455 8.5 73.3159 8.5 73.2863C8.5 73.2568 8.5 73.2272 8.5 73.1976C8.5 73.168 8.5 73.1384 8.5 73.1089C8.5 73.0793 8.5 73.0497 8.5 73.0202C8.5 72.9906 8.5 72.9611 8.5 72.9316C8.5 72.902 8.5 72.8725 8.5 72.843C8.5 72.8134 8.5 72.7839 8.5 72.7544C8.5 72.7249 8.5 72.6954 8.5 72.6659C8.5 72.6364 8.5 72.6069 8.5 72.5775C8.5 72.548 8.5 72.5185 8.5 72.489C8.5 72.4596 8.5 72.4301 8.5 72.4007C8.5 72.3712 8.5 72.3418 8.5 72.3124C8.5 72.2829 8.5 72.2535 8.5 72.2241C8.5 72.1947 8.5 72.1653 8.5 72.1359C8.5 72.1065 8.5 72.0771 8.5 72.0478C8.5 72.0184 8.5 71.989 8.5 71.9596C8.5 71.9303 8.5 71.9009 8.5 71.8716C8.5 71.8423 8.5 71.8129 8.5 71.7836C8.5 71.7543 8.5 71.725 8.5 71.6957C8.5 71.6664 8.5 71.6371 8.5 71.6078C8.5 71.5785 8.5 71.5493 8.5 71.52C8.5 71.4908 8.5 71.4615 8.5 71.4323C8.5 71.403 8.5 71.3738 8.5 71.3446C8.5 71.3154 8.5 71.2862 8.5 71.257C8.5 71.2278 8.5 71.1986 8.5 71.1694C8.5 71.1403 8.5 71.1111 8.5 71.082C8.5 71.0528 8.5 71.0237 8.5 70.9945C8.5 70.9654 8.5 70.9363 8.5 70.9072C8.5 70.8781 8.5 70.849 8.5 70.8199C8.5 70.7909 8.5 70.7618 8.5 70.7327C8.5 70.7037 8.5 70.6746 8.5 70.6456C8.5 70.6166 8.5 70.5876 8.5 70.5586C8.5 70.5296 8.5 70.5006 8.5 70.4716C8.5 70.4426 8.5 70.4137 8.5 70.3847C8.5 70.3558 8.5 70.3268 8.5 70.2979C8.5 70.269 8.5 70.2401 8.5 70.2112C8.5 70.1823 8.5 70.1534 8.5 70.1245C8.5 70.0956 8.5 70.0668 8.5 70.0379C8.5 70.0091 8.5 69.9803 8.5 69.9514C8.5 69.9226 8.5 69.8938 8.5 69.865C8.5 69.8363 8.5 69.8075 8.5 69.7787C8.5 69.75 8.5 69.7212 8.5 69.6925C8.5 69.6638 8.5 69.6351 8.5 69.6064C8.5 69.5777 8.5 69.549 8.5 69.5203C8.5 69.4916 8.5 69.463 8.5 69.4343C8.5 69.4057 8.5 69.3771 8.5 69.3485C8.5 69.3199 8.5 69.2913 8.5 69.2627C8.5 69.2341 8.5 69.2056 8.5 69.177C8.5 69.1485 8.5 69.12 8.5 69.0915C8.5 69.063 8.5 69.0345 8.5 69.006C8.5 68.9775 8.5 68.9491 8.5 68.9206C8.5 68.8922 8.5 68.8637 8.5 68.8353C8.5 68.8069 8.5 68.7785 8.5 68.7501C8.5 68.7218 8.5 68.6934 8.5 68.6651C8.5 68.6367 8.5 68.6084 8.5 68.5801C8.5 68.5518 8.5 68.5235 8.5 68.4952C8.5 68.467 8.5 68.4387 8.5 68.4105C8.5 68.3822 8.5 68.354 8.5 68.3258C8.5 68.2976 8.5 68.2694 8.5 68.2413C8.5 68.2131 8.5 68.185 8.5 68.1568C8.5 68.1287 8.5 68.1006 8.5 68.0725C8.5 68.0444 8.5 68.0164 8.5 67.9883C8.5 67.9603 8.5 67.9322 8.5 67.9042C8.5 67.8762 8.5 67.8482 8.5 67.8202C8.5 67.7923 8.5 67.7643 8.5 67.7364C8.5 67.7084 8.5 67.6805 8.5 67.6526C8.5 67.6247 8.5 67.5969 8.5 67.569C8.5 67.5412 8.5 67.5133 8.5 67.4855C8.5 67.4577 8.5 67.4299 8.5 67.4021C8.5 67.3743 8.5 67.3466 8.5 67.3189C8.5 67.2911 8.5 67.2634 8.5 67.2357C8.5 67.208 8.5 67.1804 8.5 67.1527C8.5 67.1251 8.5 67.0974 8.5 67.0698C8.5 67.0422 8.5 67.0146 8.5 66.9871C8.5 66.9595 8.5 66.932 8.5 66.9044C8.5 66.8769 8.5 66.8494 8.5 66.822C8.5 66.7945 8.5 66.767 8.5 66.7396C8.5 66.7122 8.5 66.6848 8.5 66.6574C8.5 66.63 8.5 66.6026 8.5 66.5753C8.5 66.5479 8.5 66.5206 8.5 66.4933C8.5 66.466 8.5 66.4387 8.5 66.4115C8.5 66.3842 8.5 66.357 8.5 66.3298C8.5 66.3026 8.5 66.2754 8.5 66.2483C8.5 66.2211 8.5 66.194 8.5 66.1668C8.5 66.1397 8.5 66.1126 8.5 66.0856C8.5 66.0585 8.5 66.0315 8.5 66.0045C8.5 65.9774 8.5 65.9505 8.5 65.9235C8.5 65.8965 8.5 65.8696 8.5 65.8427C8.5 65.8157 8.5 65.7888 8.5 65.762C8.5 65.7351 8.5 65.7083 8.5 65.6814C8.5 65.6546 8.5 65.6278 8.5 65.6011C8.5 65.5743 8.5 65.5475 8.5 65.5208C8.5 65.4941 8.5 65.4674 8.5 65.4407C8.5 65.4141 8.5 65.3874 8.5 65.3608C8.5 65.3342 8.5 65.3076 8.5 65.281C8.5 65.2545 8.5 65.2279 8.5 65.2014C8.5 65.1749 8.5 65.1484 8.5 65.1219C8.5 65.0955 8.5 65.069 8.5 65.0426C8.5 65.0162 8.5 64.9898 8.5 64.9635C8.5 64.9371 8.5 64.9108 8.5 64.8845C8.5 64.8582 8.5 64.8319 8.5 64.8057C8.5 64.7794 8.5 64.7532 8.5 64.727C8.5 64.7008 8.5 64.6747 8.5 64.6485C8.5 64.6224 8.5 64.5963 8.5 64.5702C8.5 64.5441 8.5 64.5181 8.5 64.492C8.5 64.466 8.5 64.44 8.5 64.4141C8.5 64.3881 8.5 64.3621 8.5 64.3362C8.5 64.3103 8.5 64.2844 8.5 64.2586C8.5 64.2327 8.5 64.2069 8.5 64.1811C8.5 64.1553 8.5 64.1295 8.5 64.1038C8.5 64.078 8.5 64.0523 8.5 64.0267C8.5 64.001 8.5 63.9753 8.5 63.9497C8.5 63.9241 8.5 63.8985 8.5 63.8729C8.5 63.8474 8.5 63.8218 8.5 63.7963C8.5 63.7708 8.5 63.7453 8.5 63.7199C8.5 63.6945 8.5 63.669 8.5 63.6437C8.5 63.6183 8.5 63.5929 8.5 63.5676C8.5 63.5423 8.5 63.517 8.5 63.4917C8.5 63.4665 8.5 63.4412 8.5 63.416C8.5 63.3908 8.5 63.3657 8.5 63.3405C8.5 63.3154 8.5 63.2903 8.5 63.2652C8.5 63.2401 8.5 63.2151 8.5 63.1901C8.5 63.1651 8.5 63.1401 8.5 63.1151C8.5 63.0902 8.5 63.0653 8.5 63.0404C8.5 63.0155 8.5 62.9907 8.5 62.9658C8.5 62.941 8.5 62.9162 8.5 62.8915C8.5 62.8667 8.5 62.842 8.5 62.8173C8.5 62.7926 8.5 62.768 8.5 62.7433C8.5 62.7187 8.5 62.6941 8.5 62.6696C8.5 62.645 8.5 62.6205 8.5 62.596C8.5 62.5715 8.5 62.547 8.5 62.5226C8.5 62.4982 8.5 62.4738 8.5 62.4494C8.5 62.4251 8.5 62.4007 8.5 62.3765C8.5 62.3522 8.5 62.3279 8.5 62.3037C8.5 62.2795 8.5 62.2553 8.5 62.2311C8.5 62.207 8.5 62.1828 8.5 62.1588C8.5 62.1347 8.5 62.1106 8.5 62.0866C8.5 62.0626 8.5 62.0386 8.5 62.0147C8.5 61.9907 8.5 61.9668 8.5 61.9429C8.5 61.9191 8.5 61.8952 8.5 61.8714C8.5 61.8476 8.5 61.8238 8.5 61.8001C8.5 61.7764 8.5 61.7527 8.5 61.729C8.5 61.7054 8.5 61.6817 8.5 61.6581C8.5 61.6345 8.5 61.611 8.5 61.5875C8.5 61.564 8.5 61.5405 8.5 61.517C8.5 61.4936 8.5 61.4702 8.5 61.4468C8.5 61.4234 8.5 61.4001 8.5 61.3768C8.5 61.3535 8.5 61.3302 8.5 61.307C8.5 61.2838 8.5 61.2606 8.5 61.2374C8.5 61.2143 8.5 61.1912 8.5 61.1681C8.5 61.145 8.5 61.122 8.5 61.099C8.5 61.076 8.5 61.053 8.5 61.0301C8.5 61.0072 8.5 60.9843 8.5 60.9614C8.5 60.9386 8.5 60.9158 8.5 60.893C8.5 60.8702 8.5 60.8475 8.5 60.8248C8.5 60.8021 8.5 60.7794 8.5 60.7568C8.5 60.7342 8.5 60.7116 8.5 60.6891C8.5 60.6665 8.5 60.644 8.5 60.6216C8.5 60.5991 8.5 60.5767 8.5 60.5543C8.5 60.5319 8.5 60.5096 8.5 60.4873C8.5 60.465 8.5 60.4427 8.5 60.4205C8.5 60.3983 8.5 60.3761 8.5 60.3539C8.5 60.3318 8.5 60.3097 8.5 60.2876C8.5 60.2655 8.5 60.2435 8.5 60.2215C8.5 60.1995 8.5 60.1776 8.5 60.1557C8.5 60.1338 8.5 60.1119 8.5 60.0901C8.5 60.0683 8.5 60.0465 8.5 60.0248C8.5 60.003 8.5 59.9813 8.5 59.9597C8.5 59.938 8.5 59.9164 8.5 59.8948C8.5 59.8732 8.5 59.8517 8.5 59.8302C8.5 59.8087 8.5 59.7873 8.5 59.7659C8.5 59.7444 8.5 59.7231 8.5 59.7018C8.5 59.6804 8.5 59.6591 8.5 59.6379C8.5 59.6167 8.5 59.5955 8.5 59.5743C8.5 59.5532 8.5 59.532 8.5 59.511C8.5 59.4899 8.5 59.4689 8.5 59.4479C8.5 59.4269 8.5 59.406 8.5 59.3851C8.5 59.3642 8.5 59.3433 8.5 59.3225C8.5 59.3017 8.5 59.2809 8.5 59.2602C8.5 59.2395 8.5 59.2188 8.5 59.1982C8.5 59.1775 8.5 59.1569 8.5 59.1364C8.5 59.1158 8.5 59.0953 8.5 59.0749C8.5 59.0544 8.5 59.034 8.5 59.0136C8.5 58.9932 8.5 58.9729 8.5 58.9526C8.5 58.9323 8.5 58.9121 8.5 58.8919C8.5 58.8717 8.5 58.8516 8.5 58.8315C8.5 58.8114 8.5 58.7913 8.5 58.7713C8.5 58.7513 8.5 58.7313 8.5 58.7114C8.5 58.6915 8.5 58.6716 8.5 58.6517C8.5 58.6319 8.5 58.6121 8.5 58.5924C8.5 58.5726 8.5 58.5529 8.5 58.5333C8.5 58.5136 8.5 58.494 8.5 58.4745C8.5 58.4549 8.5 58.4354 8.5 58.416C8.5 58.3965 8.5 58.3771 8.5 58.3577C8.5 58.3383 8.5 58.319 8.5 58.2997C8.5 58.2805 8.5 58.2612 8.5 58.2421C8.5 58.2229 8.5 58.2037 8.5 58.1847C8.5 58.1656 8.5 58.1465 8.5 58.1275C8.5 58.1085 8.5 58.0896 8.5 58.0707C8.5 58.0518 8.5 58.0329 8.5 58.0141C8.5 57.9953 8.5 57.9766 8.5 57.9579C8.5 57.9392 8.5 57.9205 8.5 57.9019C8.5 57.8833 8.5 57.8647 8.5 57.8462C8.5 57.8277 8.5 57.8093 8.5 57.7908C8.5 57.7724 8.5 57.7541 8.5 57.7357C8.5 57.7174 8.5 57.6992 8.5 57.6809C8.5 57.6627 8.5 57.6446 8.5 57.6264C8.5 57.6083 8.5 57.5902 8.5 57.5722C8.5 57.5542 8.5 57.5362 8.5 57.5183C8.5 57.5004 8.5 57.4825 8.5 57.4647C8.5 57.4469 8.5 57.4291 8.5 57.4114C8.5 57.3937 8.5 57.376 8.5 57.3584C8.5 57.3408 8.5 57.3232 8.5 57.3057C8.5 57.2882 8.5 57.2707 8.5 57.2533C8.5 57.2358 8.5 57.2185 8.5 57.2012C8.5 57.1839 8.5 57.1666 8.5 57.1494C8.5 57.1322 8.5 57.115 8.5 57.0979C8.5 57.0808 8.5 57.0637 8.5 57.0467C8.5 57.0297 8.5 57.0128 8.5 56.9959C8.5 56.979 8.5 56.9621 8.5 56.9453C8.5 56.9285 8.5 56.9118 8.5 56.8951C8.5 56.8784 8.5 56.8617 8.5 56.8451C8.5 56.8286 8.5 56.812 8.5 56.7955C8.5 56.7791 8.5 56.7626 8.5 56.7462C8.5 56.7299 8.5 56.7135 8.5 56.6973C8.5 56.681 8.5 56.6648 8.5 56.6486C8.5 56.6325 8.5 56.6163 8.5 56.6003C8.5 56.5842 8.5 56.5682 8.5 56.5523C8.5 56.5363 8.5 56.5204 8.5 56.5046C8.5 56.4887 8.5 56.473 8.5 56.4572C8.5 56.4415 8.5 56.4258 8.5 56.4102C8.5 56.3946 8.5 56.379 8.5 56.3635C8.5 56.348 8.5 56.3325 8.5 56.3171C8.5 56.3017 8.5 56.2863 8.5 56.271C8.5 56.2557 8.5 56.2405 8.5 56.2253C8.5 56.2101 8.5 56.195 8.5 56.1799C8.5 56.1649 8.5 56.1498 8.5 56.1349C8.5 56.1199 8.5 56.105 8.5 56.0902C8.5 56.0753 8.5 56.0605 8.5 56.0458C8.5 56.031 8.5 56.0163 8.5 56.0017C8.5 55.9871 8.5 55.9725 8.5 55.958C8.5 55.9435 8.5 55.929 8.5 55.9146C8.5 55.9002 8.5 55.8859 8.5 55.8716C8.5 55.8573 8.5 55.8431 8.5 55.8289C8.5 55.8147 8.5 55.8006 8.5 55.7866C8.5 55.7725 8.5 55.7585 8.5 55.7446C8.5 55.7306 8.5 55.7167 8.5 55.7029C8.5 55.6891 8.5 55.6753 8.5 55.6616C8.5 55.6479 8.5 55.6342 8.5 55.6206C8.5 55.6071 8.5 55.5935 8.5 55.58C8.5 55.5666 8.5 55.5531 8.5 55.5398C8.5 55.5264 8.5 55.5131 8.5 55.4999C8.5 55.4866 8.5 55.4734 8.5 55.4603C8.5 55.4472 8.5 55.4341 8.5 55.4211C8.5 55.4081 8.5 55.3952 8.5 55.3823C8.5 55.3694 8.5 55.3566 8.5 55.3438C8.5 55.331 8.5 55.3183 8.5 55.3057C8.5 55.293 8.5 55.2804 8.5 55.2679C8.5 55.2554 8.5 55.2429 8.5 55.2305C8.5 55.2181 8.5 55.2057 8.5 55.1935C8.5 55.1812 8.5 55.1689 8.5 55.1568C8.5 55.1446 8.5 55.1325 8.5 55.1205C8.5 55.1084 8.5 55.0964 8.5 55.0845C8.5 55.0726 8.5 55.0607 8.5 55.0489C8.5 55.0371 8.5 55.0254 8.5 55.0137C8.5 55.002 8.5 54.9904 8.5 54.9789C8.5 54.9673 8.5 54.9558 8.5 54.9444C8.5 54.933 8.5 54.9216 8.5 54.9103C8.5 54.899 8.5 54.8877 8.5 54.8766C8.5 54.8654 8.5 54.8543 8.5 54.8432C8.5 54.8322 8.5 54.8212 8.5 54.8102C8.5 54.7993 8.5 54.7884 8.5 54.7776C8.5 54.7668 8.5 54.7561 8.5 54.7454C8.5 54.7347 8.5 54.7241 8.5 54.7136C8.5 54.703 8.5 54.6925 8.5 54.6821C8.5 54.6717 8.5 54.6613 8.5 54.651C8.5 54.6407 8.5 54.6305 8.5 54.6203C8.5 54.6102 8.5 54.6001 8.5 54.59C8.5 54.58 8.5 54.57 8.5 54.5601C8.5 54.5502 8.5 54.5404 8.5 54.5306C8.5 54.5208 8.5 54.5111 8.5 54.5014C8.5 54.4918 8.5 54.4822 8.5 54.4727C8.5 54.4632 8.5 54.4537 8.5 54.4443C8.5 54.4349 8.5 54.4256 8.5 54.4163C8.5 54.4071 8.5 54.3979 8.5 54.3888C8.5 54.3796 8.5 54.3706 8.5 54.3616C8.5 54.3526 8.5 54.3437 8.5 54.3348C8.5 54.3259 8.5 54.3171 8.5 54.3084C8.5 54.2997 8.5 54.291 8.5 54.2824C8.5 54.2738 8.5 54.2653 8.5 54.2568C8.5 54.2484 8.5 54.24 8.5 54.2316C8.5 54.2233 8.5 54.215 8.5 54.2068C8.5 54.1986 8.5 54.1905 8.5 54.1825C8.5 54.1744 8.5 54.1664 8.5 54.1585C8.5 54.1505 8.5 54.1427 8.5 54.1349C8.5 54.1271 8.5 54.1194 8.5 54.1117C8.5 54.1041 8.5 54.0965 8.5 54.089C8.5 54.0815 8.5 54.074 8.5 54.0666C8.5 54.0593 8.5 54.0519 8.5 54.0447C8.5 54.0375 8.5 54.0303 8.5 54.0232C8.5 54.0161 8.5 54.009 8.5 54.0021C8.5 53.9951 8.5 53.9882 8.5 53.9814C8.5 53.9745 8.5 53.9678 8.5 53.9611C8.5 53.9544 8.5 53.9478 8.5 53.9412C8.5 53.9347 8.5 53.9282 8.5 53.9218C8.5 53.9154 8.5 53.909 8.5 53.9028C8.5 53.8965 8.5 53.8903 8.5 53.8842C8.5 53.8781 8.5 53.872 8.5 53.866C8.5 53.86 8.5 53.8541 8.5 53.8483C8.5 53.8424 8.5 53.8366 8.5 53.8309C8.5 53.8252 8.5 53.8196 8.5 53.814C8.5 53.8085 8.5 53.803 8.5 53.7976C8.5 53.7921 8.5 53.7868 8.5 53.7815C8.5 53.7762 8.5 53.771 8.5 53.7659C8.5 53.7608 8.5 53.7557 8.5 53.7507C8.5 53.7457 8.5 53.7408 8.5 53.736C8.5 53.7311 8.5 53.7263 8.5 53.7216C8.5 53.7169 8.5 53.7123 8.5 53.7078C8.5 53.7032 8.5 53.6987 8.5 53.6943C8.5 53.6899 8.5 53.6856 8.5 53.6813C8.5 53.6771 8.5 53.6729 8.5 53.6688C8.5 53.6646 8.5 53.6606 8.5 53.6566C8.5 53.6527 8.5 53.6488 8.5 53.6449C8.5 53.6411 8.5 53.6374 8.5 53.6337C8.5 53.63 8.5 53.6264 8.5 53.6229C8.5 53.6194 8.5 53.6159 8.5 53.6125C8.5 53.6092 8.5 53.6059 8.5 53.6026C8.5 53.5994 8.5 53.5963 8.5 53.5932C8.5 53.5901 8.5 53.5871 8.5 53.5842C8.5 53.5812 8.5 53.5784 8.5 53.5756C8.5 53.5728 8.5 53.5701 8.5 53.5675C8.5 53.5649 8.5 53.5623 8.5 53.5598C8.5 53.5574 8.5 53.555 8.5 53.5527C8.5 53.5503 8.5 53.5481 8.5 53.5459C8.5 53.5437 8.5 53.5416 8.5 53.5396C8.5 53.5376 8.5 53.5357 8.5 53.5338C8.5 53.5319 8.5 53.5301 8.5 53.5284C8.5 53.5267 8.5 53.5251 8.5 53.5235C8.5 53.5219 8.5 53.5205 8.5 53.5191C8.5 53.5177 8.5 53.5163 8.5 53.5151C8.5 53.5138 8.5 53.5126 8.5 53.5115C8.5 53.5105 8.5 53.5094 8.5 53.5085C8.5 53.5075 8.5 53.5067 8.5 53.5059C8.5 53.5051 8.5 53.5044 8.5 53.5038C8.5 53.5032 8.5 53.5026 8.5 53.5021C8.5 53.5017 8.5 53.5013 8.5 53.5009C8.5 53.5006 8.5 53.5004 8.5 53.5002C8.5 53.5001 8.5 53.5 7.5 53.5Z" fill="black"/>
</svg>
