<svg width="178" height="8014" viewBox="0 0 178 8014" fill="none" xmlns="http://www.w3.org/2000/svg">
<path d="M12 7950.71H10.5V7949.21H12V7950.71ZM13.0607 8013.06C12.4749 8013.65 11.5251 8013.65 10.9393 8013.06L1.3934 8003.51C0.807617 8002.93 0.807617 8001.98 1.3934 8001.39C1.97919 8000.81 2.92894 8000.81 3.51472 8001.39L12 8009.88L20.4853 8001.39C21.0711 8000.81 22.0208 8000.81 22.6066 8001.39C23.1924 8001.98 23.1924 8002.93 22.6066 8003.51L13.0607 8013.06ZM141.567 0.5H156V3.5H141.567V0.5ZM177.5 22V7930.71H174.5V22H177.5ZM156 7952.21H12V7949.21H156V7952.21ZM13.5 7950.71V8012H10.5V7950.71H13.5ZM177.5 7930.71C177.5 7942.59 167.874 7952.21 156 7952.21V7949.21C166.217 7949.21 174.5 7940.93 174.5 7930.71H177.5ZM156 0.5C167.874 0.5 177.5 10.1259 177.5 22H174.5C174.5 11.7827 166.217 3.5 156 3.5V0.5Z" fill="black"/>
</svg>
