<svg width="15" height="15" viewBox="0 0 15 15" fill="none" xmlns="http://www.w3.org/2000/svg">
<g clip-path="url(#clip0_547_4187)">
<path d="M12.9422 12.6426H2.30391C1.97767 12.6426 1.71289 12.9074 1.71289 13.2336C1.71289 13.5598 1.97767 13.8246 2.30391 13.8246H12.9422C13.2684 13.8246 13.5332 13.5598 13.5332 13.2336C13.5332 12.9074 13.2684 12.6426 12.9422 12.6426Z" fill="white"/>
<path d="M5.95697 12.0506C6.402 12.0506 6.84704 11.8809 7.18569 11.5423L11.6461 7.08188C11.8772 6.8508 11.8772 6.47727 11.6461 6.24619L6.78026 1.38035C6.54917 1.14926 6.17565 1.14926 5.94456 1.38035L1.48356 5.84016C0.80626 6.51746 0.80626 7.6203 1.48356 8.29761L4.72765 11.5417C5.0669 11.8809 5.51193 12.0506 5.95697 12.0506ZM6.36241 2.6333L10.3925 6.66344L10.324 6.732H2.28262C2.2968 6.71427 2.3033 6.6924 2.31985 6.67586L6.36241 2.6333Z" fill="white"/>
<path d="M10.5781 10.5246C10.5781 11.3662 11.2412 12.0512 12.0557 12.0512C12.8701 12.0512 13.5332 11.3662 13.5332 10.5246C13.5332 9.84608 12.6857 8.50743 12.4256 8.11381C12.2619 7.86441 11.8494 7.86441 11.6857 8.11381C11.4256 8.50743 10.5781 9.84608 10.5781 10.5246Z" fill="white"/>
</g>
<defs>
<clipPath id="clip0_547_4187">
<rect width="14.1844" height="14.1844" fill="white" transform="translate(0.53125 0.822266)"/>
</clipPath>
</defs>
</svg>
