<svg width="12" height="12" viewBox="0 0 12 12" fill="none" xmlns="http://www.w3.org/2000/svg">
<g clip-path="url(#clip0_2973_6578)">
<path d="M9.72061 9.72656H1.5996C1.35056 9.72656 1.14844 9.92869 1.14844 10.1777C1.14844 10.4268 1.35056 10.6289 1.5996 10.6289H9.72061C9.96966 10.6289 10.1718 10.4268 10.1718 10.1777C10.1718 9.92869 9.96966 9.72656 9.72061 9.72656Z" fill="white"/>
<path d="M4.39641 9.27767C4.73614 9.27767 5.07587 9.14819 5.33439 8.88967L8.73934 5.48471C8.91575 5.30831 8.91575 5.02317 8.73934 4.84676L5.02489 1.1323C4.84848 0.955898 4.56334 0.955898 4.38694 1.1323L0.981528 4.53681C0.464491 5.05385 0.464491 5.89573 0.981528 6.41276L3.45798 8.88922C3.71695 9.14819 4.05668 9.27767 4.39641 9.27767ZM4.70591 2.08878L7.78242 5.16529L7.73008 5.21762H1.59151C1.60233 5.20409 1.6073 5.18739 1.61993 5.17476L4.70591 2.08878Z" fill="white"/>
<path d="M7.92188 8.1081C7.92188 8.75057 8.42808 9.27347 9.04979 9.27347C9.6715 9.27347 10.1777 8.75057 10.1777 8.1081C10.1777 7.59016 9.53074 6.56827 9.33222 6.26779C9.20725 6.0774 8.89234 6.0774 8.76736 6.26779C8.56885 6.56827 7.92188 7.59016 7.92188 8.1081Z" fill="white"/>
</g>
<defs>
<clipPath id="clip0_2973_6578">
<rect width="10.828" height="10.828" fill="white" transform="translate(0.25 0.703125)"/>
</clipPath>
</defs>
</svg>
