<svg width="126" height="26" viewBox="0 0 126 26" fill="none" xmlns="http://www.w3.org/2000/svg">
<g clip-path="url(#clip0_1094_1352)">
<path d="M91.1116 12.3786C93.4763 12.3786 95.3932 10.4579 95.3932 8.0887C95.3932 5.71947 93.4763 3.79883 91.1116 3.79883C88.747 3.79883 86.8301 5.71947 86.8301 8.0887C86.8301 10.4579 88.747 12.3786 91.1116 12.3786Z" fill="white" stroke="white" stroke-width="0.120349"/>
<path fill-rule="evenodd" clip-rule="evenodd" d="M83.1678 9.53606C79.6496 10.5007 77.0441 13.7436 77.0441 17.5672C77.0441 22.2324 80.8222 25.9997 85.5393 25.9997C88.8369 25.9997 91.7196 24.1599 92.9863 21.203H89.4702C88.1599 22.5829 87.0243 23.1085 85.4738 23.1085C82.5038 23.1085 80.0579 20.6116 80.0579 17.5891C80.0579 14.9598 81.7517 12.8044 84.197 12.2653C83.6996 11.4403 83.345 10.519 83.1678 9.53606ZM33.109 17.8519C33.109 22.2544 29.4402 25.9997 24.6793 25.9997C19.722 25.9997 15.9002 22.32 15.9002 17.5891C15.9002 12.9457 19.6783 9.24414 24.3954 9.24414C27.9114 9.24414 31.231 11.3686 32.2792 14.2818H28.7632C27.7586 12.88 26.208 12.1353 24.33 12.1353C21.1415 12.1353 18.914 14.5884 18.914 17.6329C18.914 20.7211 21.338 23.1085 24.5047 23.1085C26.623 23.1085 28.37 22.0572 29.2437 20.2612H22.5611V17.4577H33.109V17.8519ZM15.8548 25.715H12.5572L10.832 21.5316H5.08844L3.29762 25.715H0L6.72629 9.52884H9.08483L15.8548 25.715ZM9.63078 18.6624L7.90556 13.7562L6.18034 18.6624H9.63078ZM35.0711 25.715H43.741V22.8458H38.063V19.0785H43.5008V16.2093H38.063V12.3981H43.741V9.52884H35.0711V25.715ZM59.4982 25.715H56.1569L49.4089 13.9532V25.715H46.417V9.52884H49.8238L56.5064 21.3125V9.52884H59.4982V25.715ZM67.2343 12.3981H70.2261V9.52884H61.2506V12.3981H64.2424V25.715H67.2343V12.3981ZM74.7451 25.715H71.7531V9.52884H74.7451V25.715Z" fill="white"/>
<path fill-rule="evenodd" clip-rule="evenodd" d="M114.262 2.95779H122.082L113.789 16.1919H117.862L126.029 2.93612V0H111.288C112.52 0.706911 113.547 1.72943 114.262 2.95779Z" fill="white"/>
<path fill-rule="evenodd" clip-rule="evenodd" d="M105.817 0H91.1123C95.571 0 99.1855 3.62151 99.1855 8.08889C99.1855 12.5563 95.571 16.1778 91.1123 16.1778H101.775L105.517 20.0778L106.509 16.1485C110.644 15.797 113.89 12.3228 113.89 8.08889C113.89 3.62151 110.276 0 105.817 0ZM105.889 13C108.557 13 110.719 10.8013 110.719 8.08889C110.719 5.37651 108.557 3.17778 105.889 3.17778C103.222 3.17778 101.06 5.37651 101.06 8.08889C101.06 10.8013 103.222 13 105.889 13Z" fill="white"/>
<path d="M91.1117 12.4121C88.7287 12.4121 86.7969 10.4765 86.7969 8.08885C86.7969 5.70118 88.7287 3.76562 91.1117 3.76562C93.4948 3.76562 95.4266 5.70118 95.4266 8.08885C95.4266 10.4765 93.4948 12.4121 91.1117 12.4121Z" fill="white"/>
</g>
<defs>
<clipPath id="clip0_1094_1352">
<rect width="126" height="26" fill="white"/>
</clipPath>
</defs>
</svg>
