<svg width="1325" height="585" viewBox="0 0 1325 585" fill="none" xmlns="http://www.w3.org/2000/svg">
<g opacity="0.25">
<path d="M314.248 113.064L348.947 79.595L322.903 54.4342C313.771 45.8632 301.508 41.1048 288.767 41.1886C276.026 41.2724 263.832 46.1916 254.822 54.8818C245.813 63.5721 240.713 75.3345 240.626 87.6241C240.539 99.9137 245.472 111.742 254.358 120.55L309.332 173.497C302.576 164.503 299.36 153.482 300.261 142.408C301.162 131.335 306.12 120.933 314.248 113.064V113.064Z" fill="#65CDF0" fill-opacity="0.2"/>
<path d="M443.412 54.4295C434.322 45.6631 421.994 40.7383 409.14 40.7383C396.286 40.7383 383.958 45.6631 374.868 54.4295L348.945 79.5904L383.685 113.06C391.825 120.918 396.799 131.315 397.714 142.389C398.63 153.463 395.428 164.489 388.682 173.493L443.412 120.545C452.501 111.777 457.607 99.8862 457.607 87.4874C457.607 75.0886 452.501 63.1976 443.412 54.4295V54.4295Z" fill="#F7B923" fill-opacity="0.2"/>
<path d="M383.688 113.055L348.948 79.5859L314.249 113.055C306.121 120.924 301.163 131.326 300.262 142.399C299.361 153.473 302.577 164.494 309.333 173.488L315.224 179.171C319.638 183.505 324.902 186.947 330.71 189.296C336.517 191.646 342.752 192.856 349.05 192.856C355.347 192.856 361.582 191.646 367.39 189.296C373.197 186.947 378.462 183.505 382.875 179.171L388.767 173.488C395.502 164.476 398.69 153.444 397.759 142.37C396.829 131.296 391.84 120.904 383.688 113.055V113.055Z" fill="#EE2E7E" fill-opacity="0.2"/>
<path d="M13.0515 46.3586C21.148 32.0532 33.2579 20.2366 47.9942 12.2621C63.5375 3.96963 81.0635 -0.246482 98.8236 0.0344258C120.156 -0.522974 141.086 5.70158 158.389 17.7489C174.949 29.6395 186.666 46.7518 191.503 66.111H139.17C135.676 58.6365 129.909 52.363 122.633 48.1222C115.25 43.9408 106.816 41.7986 98.2547 41.93C91.5536 41.7085 84.8844 42.9181 78.7244 45.4723C72.5643 48.0266 67.0655 51.8623 62.6213 56.7051C53.52 66.5291 48.9693 79.6843 48.9693 96.1708C48.9693 112.67 53.52 125.799 62.6213 135.676C67.0676 140.514 72.5677 144.343 78.728 146.891C84.8883 149.438 91.5564 150.641 98.2547 150.412C106.812 150.557 115.246 148.428 122.633 144.259C129.909 140.018 135.676 133.744 139.17 126.27H191.503C186.685 145.605 174.943 162.677 158.348 174.475C141.033 186.457 120.125 192.637 98.8236 192.072C81.0672 192.365 63.5414 188.162 47.9942 179.883C33.2812 171.932 21.1751 160.16 13.0515 145.905C4.51729 130.64 0.207136 113.511 0.537154 96.1708C0.224196 78.8077 4.5329 61.6573 13.0515 46.3586V46.3586Z" fill="#4E132C" fill-opacity="0.2"/>
<path d="M589.689 46.3581C598.112 41.5955 607.718 39.1301 617.481 39.2253V87.8226H604.397C592.533 87.8226 583.635 90.2786 577.703 95.1906C571.771 100.103 568.791 108.738 568.764 121.096V190.7H521.145V40.8714H568.764V65.8362C574.071 57.8597 581.236 51.1897 589.689 46.3581V46.3581Z" fill="#4E132C" fill-opacity="0.2"/>
<path d="M841.599 126.774H733.886C734.046 134.779 737.375 142.421 743.19 148.133C748.686 153.083 755.991 155.732 763.506 155.501C768.682 155.867 773.847 154.671 778.288 152.08C782.728 149.49 786.224 145.631 788.291 141.04H838.958C836.402 150.804 831.597 159.886 824.899 167.612C817.977 175.577 809.265 181.916 799.424 186.149C788.639 190.734 776.956 193.02 765.172 192.851C751.019 193.103 737.033 189.866 724.541 183.445C712.739 177.353 703.016 168.098 696.546 156.795C689.649 144.231 686.207 130.17 686.551 115.957C686.213 101.771 689.61 87.7345 696.424 75.1591C702.733 63.7838 712.369 54.4482 724.134 48.3131C736.722 41.8728 750.804 38.6355 765.05 38.9071C778.943 38.6042 792.692 41.677 805.031 47.8428C816.581 53.7869 826.105 62.8237 832.457 73.8658C839.252 85.9825 842.655 99.5985 842.33 113.371C842.359 117.848 842.114 122.324 841.599 126.774V126.774ZM793.735 101.261C793.919 97.6997 793.261 94.1452 791.811 90.8658C790.361 87.5864 788.157 84.6679 785.365 82.3311C779.5 77.6216 772.024 75.1902 764.4 75.5119C757.004 75.2579 749.77 77.6441 744.084 82.2136C738.349 87.1193 734.713 93.9096 733.886 101.261H793.735Z" fill="#4E132C" fill-opacity="0.2"/>
<path d="M784.227 435.337L818.926 401.868L792.841 376.746C783.746 367.978 771.413 363.055 758.554 363.059C745.696 363.062 733.366 367.993 724.276 376.765C715.186 385.538 710.082 397.434 710.086 409.837C710.09 422.24 715.201 434.133 724.296 442.901L779.229 495.888C772.459 486.871 769.243 475.822 770.159 464.724C771.075 453.626 776.063 443.206 784.227 435.337V435.337Z" fill="#65CDF0" fill-opacity="0.2"/>
<path d="M913.555 376.738C904.465 367.972 892.137 363.047 879.283 363.047C866.429 363.047 854.101 367.972 845.011 376.738L818.926 401.86L853.625 435.329C861.768 443.194 866.743 453.598 867.659 464.678C868.574 475.759 865.371 486.792 858.622 495.801L913.555 442.893C918.062 438.551 921.637 433.395 924.076 427.719C926.515 422.043 927.77 415.96 927.77 409.816C927.77 403.672 926.515 397.588 924.076 391.912C921.637 386.237 918.062 381.08 913.555 376.738Z" fill="#F7B923" fill-opacity="0.2"/>
<path d="M853.788 435.337L819.09 401.867L784.391 435.337C776.247 443.201 771.272 453.605 770.357 464.686C769.441 475.766 772.644 486.799 779.393 495.809L785.244 501.452C789.664 505.782 794.932 509.221 800.743 511.568C806.553 513.915 812.79 515.124 819.09 515.124C825.389 515.124 831.626 513.915 837.436 511.568C843.247 509.221 848.515 505.782 852.935 501.452L858.786 495.809C865.535 486.799 868.738 475.766 867.822 464.686C866.907 453.605 861.932 443.201 853.788 435.337V435.337Z" fill="#EE2E7E" fill-opacity="0.2"/>
<path d="M48.1586 477.538H110.527V512.811H0.539062V324.457H48.1586V477.538Z" fill="#4E132C" fill-opacity="0.2"/>
<path d="M192.521 340.448C189.924 338.259 187.852 335.551 186.449 332.513C185.046 329.474 184.345 326.177 184.395 322.851C184.331 319.489 185.024 316.153 186.427 313.074C187.83 309.995 189.909 307.247 192.521 305.019C198.078 300.191 205.362 297.634 212.836 297.886C220.318 297.592 227.617 300.155 233.152 305.019C235.749 307.259 237.817 310.009 239.219 313.085C240.621 316.161 241.323 319.491 241.278 322.851C241.32 326.176 240.615 329.47 239.213 332.508C237.81 335.545 235.742 338.254 233.152 340.448C227.617 345.312 220.318 347.875 212.836 347.581C205.362 347.833 198.078 345.276 192.521 340.448V340.448ZM236.646 363.14V513.007H189.027V363.14H236.646Z" fill="#4E132C" fill-opacity="0.2"/>
<path d="M393.641 367.46C402.496 363.036 412.356 360.813 422.327 360.993C434.627 360.857 446.71 364.121 457.147 370.399C467.786 376.962 476.314 386.26 481.77 397.245C487.743 410.013 490.832 423.86 490.832 437.867C490.832 451.874 487.743 465.722 481.77 478.489C476.32 489.551 467.797 498.939 457.147 505.609C446.737 511.96 434.643 515.268 422.327 515.133C412.375 515.36 402.519 513.206 393.641 508.862C385.815 504.954 379.167 499.163 374.341 492.049V513.017H326.844V314.277H374.341V384.351C379.079 377.146 385.747 371.31 393.641 367.46V367.46ZM432.484 410.806C429.35 407.628 425.564 405.115 421.366 403.428C417.168 401.741 412.652 400.917 408.106 401.008C403.59 400.941 399.11 401.793 394.959 403.508C390.807 405.223 387.077 407.763 384.012 410.962C377.622 418.658 374.14 428.223 374.14 438.083C374.14 447.942 377.622 457.508 384.012 465.203C387.127 468.358 390.875 470.87 395.027 472.587C399.179 474.303 403.649 475.188 408.167 475.188C412.684 475.188 417.154 474.303 421.307 472.587C425.459 470.87 429.206 468.358 432.322 465.203C435.786 461.495 438.453 457.161 440.169 452.452C441.884 447.743 442.615 442.752 442.317 437.769C442.605 432.871 441.884 427.967 440.197 423.339C438.509 418.711 435.888 414.451 432.484 410.806V410.806Z" fill="#4E132C" fill-opacity="0.2"/>
<path d="M640.03 368.66C648.478 363.887 658.113 361.421 667.903 361.527V410.124H654.698C642.779 410.124 633.867 412.593 627.962 417.531C621.99 422.43 619.023 431.091 619.023 443.437V513.001H571.566V363.134H619.145V388.02C624.452 380.088 631.602 373.459 640.03 368.66V368.66Z" fill="#4E132C" fill-opacity="0.2"/>
<path d="M1059.62 368.66C1068.05 363.886 1077.68 361.42 1087.45 361.527V410.124H1074.37C1062.45 410.124 1053.54 412.593 1047.63 417.531C1041.7 422.43 1038.74 431.091 1038.74 443.437V513.001H991.117V363.134H1038.74V388.02C1044.03 380.08 1051.19 373.449 1059.62 368.66V368.66Z" fill="#4E132C" fill-opacity="0.2"/>
<path d="M1324.66 363.133L1227.15 584.133H1175.99L1211.62 507.866L1148.4 363.133H1201.59L1237.51 456.839L1273.14 363.133H1324.66Z" fill="#4E132C" fill-opacity="0.2"/>
</g>
</svg>
