<svg width="1325" height="585" viewBox="0 0 1325 585" fill="none" xmlns="http://www.w3.org/2000/svg">
<g opacity="0.25">
<path d="M314.256 113.064L348.955 79.595L322.911 54.4342C313.779 45.8632 301.516 41.1048 288.775 41.1886C276.034 41.2724 263.84 46.1916 254.83 54.8818C245.821 63.5721 240.721 75.3345 240.634 87.6241C240.547 99.9137 245.48 111.742 254.366 120.55L309.34 173.497C302.584 164.503 299.368 153.482 300.269 142.408C301.17 131.335 306.128 120.933 314.256 113.064V113.064Z" fill="#65CDF0" fill-opacity="0.2"/>
<path d="M443.42 54.4295C434.33 45.6631 422.002 40.7383 409.148 40.7383C396.294 40.7383 383.966 45.6631 374.876 54.4295L348.953 79.5904L383.693 113.06C391.833 120.918 396.806 131.315 397.722 142.389C398.638 153.463 395.436 164.489 388.69 173.493L443.42 120.545C452.509 111.777 457.614 99.8862 457.614 87.4874C457.614 75.0886 452.509 63.1976 443.42 54.4295V54.4295Z" fill="#F7B923" fill-opacity="0.2"/>
<path d="M383.692 113.055L348.952 79.5859L314.253 113.055C306.125 120.924 301.167 131.326 300.266 142.399C299.365 153.473 302.581 164.494 309.337 173.488L315.228 179.171C319.642 183.505 324.906 186.947 330.713 189.296C336.521 191.646 342.756 192.856 349.054 192.856C355.351 192.856 361.586 191.646 367.394 189.296C373.201 186.947 378.465 183.505 382.879 179.171L388.77 173.488C395.506 164.476 398.694 153.444 397.763 142.37C396.833 131.296 391.844 120.904 383.692 113.055V113.055Z" fill="#EE2E7E" fill-opacity="0.2"/>
<path d="M13.0554 46.3586C21.1519 32.0532 33.2618 20.2366 47.9981 12.2621C63.5414 3.96963 81.0674 -0.246482 98.8275 0.0344258C120.16 -0.522974 141.09 5.70158 158.393 17.7489C174.953 29.6395 186.67 46.7518 191.507 66.111H139.174C135.68 58.6365 129.912 52.363 122.637 48.1222C115.254 43.9408 106.82 41.7986 98.2587 41.93C91.5575 41.7085 84.8884 42.9181 78.7283 45.4723C72.5682 48.0266 67.0694 51.8623 62.6253 56.7051C53.5239 66.5291 48.9732 79.6843 48.9732 96.1708C48.9732 112.67 53.5239 125.799 62.6253 135.676C67.0715 140.514 72.5716 144.343 78.7319 146.891C84.8922 149.438 91.5603 150.641 98.2587 150.412C106.816 150.557 115.25 148.428 122.637 144.259C129.912 140.018 135.68 133.744 139.174 126.27H191.507C186.689 145.605 174.947 162.677 158.352 174.475C141.037 186.457 120.129 192.637 98.8275 192.072C81.0711 192.365 63.5453 188.162 47.9981 179.883C33.2851 171.932 21.179 160.16 13.0554 145.905C4.5212 130.64 0.211043 113.511 0.54106 96.1708C0.228103 78.8077 4.5368 61.6573 13.0554 46.3586V46.3586Z" fill="#4E132C" fill-opacity="0.2"/>
<path d="M589.693 46.3581C598.116 41.5955 607.722 39.1301 617.485 39.2253V87.8226H604.401C592.537 87.8226 583.639 90.2786 577.707 95.1906C571.775 100.103 568.795 108.738 568.768 121.096V190.7H521.148V40.8714H568.768V65.8362C574.074 57.8597 581.24 51.1897 589.693 46.3581V46.3581Z" fill="#4E132C" fill-opacity="0.2"/>
<path d="M841.603 126.774H733.89C734.05 134.779 737.379 142.421 743.194 148.133C748.69 153.083 755.995 155.732 763.51 155.501C768.686 155.867 773.851 154.671 778.292 152.08C782.732 149.49 786.228 145.631 788.295 141.04H838.962C836.406 150.804 831.601 159.886 824.903 167.612C817.981 175.577 809.269 181.916 799.428 186.149C788.643 190.734 776.96 193.02 765.176 192.851C751.023 193.103 737.037 189.866 724.545 183.445C712.742 177.353 703.02 168.098 696.55 156.795C689.653 144.231 686.211 130.17 686.555 115.957C686.216 101.771 689.613 87.7345 696.428 75.1591C702.737 63.7838 712.373 54.4482 724.138 48.3131C736.726 41.8728 750.808 38.6355 765.054 38.9071C778.947 38.6042 792.696 41.677 805.035 47.8428C816.585 53.7869 826.109 62.8237 832.461 73.8658C839.256 85.9825 842.659 99.5985 842.334 113.371C842.363 117.848 842.118 122.324 841.603 126.774V126.774ZM793.739 101.261C793.923 97.6997 793.265 94.1452 791.815 90.8658C790.365 87.5864 788.161 84.6679 785.369 82.3311C779.504 77.6216 772.028 75.1902 764.404 75.5119C757.008 75.2579 749.774 77.6441 744.088 82.2136C738.353 87.1193 734.717 93.9096 733.89 101.261H793.739Z" fill="#4E132C" fill-opacity="0.2"/>
<path d="M784.235 435.337L818.934 401.868L792.849 376.746C783.754 367.978 771.42 363.055 758.562 363.059C745.704 363.062 733.373 367.993 724.284 376.765C715.194 385.538 710.09 397.434 710.094 409.837C710.098 422.24 715.209 434.133 724.304 442.901L779.237 495.888C772.467 486.871 769.25 475.822 770.166 464.724C771.082 453.626 776.071 443.206 784.235 435.337V435.337Z" fill="#65CDF0" fill-opacity="0.2"/>
<path d="M913.559 376.738C904.469 367.972 892.141 363.047 879.287 363.047C866.433 363.047 854.105 367.972 845.015 376.738L818.93 401.86L853.629 435.329C861.772 443.194 866.747 453.598 867.663 464.678C868.578 475.759 865.375 486.792 858.626 495.801L913.559 442.893C918.066 438.551 921.64 433.395 924.079 427.719C926.518 422.043 927.774 415.96 927.774 409.816C927.774 403.672 926.518 397.588 924.079 391.912C921.64 386.237 918.066 381.08 913.559 376.738Z" fill="#F7B923" fill-opacity="0.2"/>
<path d="M853.788 435.337L819.09 401.867L784.391 435.337C776.247 443.201 771.272 453.605 770.357 464.686C769.441 475.766 772.644 486.799 779.393 495.809L785.244 501.452C789.664 505.782 794.932 509.221 800.743 511.568C806.553 513.915 812.79 515.124 819.09 515.124C825.389 515.124 831.626 513.915 837.436 511.568C843.247 509.221 848.515 505.782 852.935 501.452L858.786 495.809C865.535 486.799 868.738 475.766 867.822 464.686C866.907 453.605 861.932 443.201 853.788 435.337V435.337Z" fill="#EE2E7E" fill-opacity="0.2"/>
<path d="M48.1664 477.538H110.535V512.811H0.546875V324.457H48.1664V477.538Z" fill="#4E132C" fill-opacity="0.2"/>
<path d="M192.521 340.448C189.924 338.259 187.852 335.551 186.449 332.513C185.046 329.474 184.345 326.177 184.395 322.851C184.331 319.489 185.024 316.153 186.427 313.074C187.83 309.995 189.909 307.247 192.521 305.019C198.078 300.191 205.362 297.634 212.836 297.886C220.318 297.592 227.617 300.155 233.152 305.019C235.749 307.259 237.817 310.009 239.219 313.085C240.621 316.161 241.323 319.491 241.278 322.851C241.32 326.176 240.615 329.47 239.213 332.508C237.81 335.545 235.742 338.254 233.152 340.448C227.617 345.312 220.318 347.875 212.836 347.581C205.362 347.833 198.078 345.276 192.521 340.448V340.448ZM236.646 363.14V513.007H189.027V363.14H236.646Z" fill="#4E132C" fill-opacity="0.2"/>
<path d="M393.649 367.46C402.504 363.036 412.364 360.813 422.334 360.993C434.635 360.857 446.718 364.121 457.155 370.399C467.794 376.962 476.322 386.26 481.778 397.245C487.751 410.013 490.84 423.86 490.84 437.867C490.84 451.874 487.751 465.722 481.778 478.489C476.328 489.551 467.804 498.939 457.155 505.609C446.745 511.96 434.651 515.268 422.334 515.133C412.382 515.36 402.527 513.206 393.649 508.862C385.823 504.954 379.175 499.163 374.349 492.049V513.017H326.852V314.277H374.349V384.351C379.087 377.146 385.755 371.31 393.649 367.46V367.46ZM432.492 410.806C429.358 407.628 425.571 405.115 421.374 403.428C417.176 401.741 412.66 400.917 408.114 401.008C403.598 400.941 399.118 401.793 394.967 403.508C390.815 405.223 387.085 407.763 384.019 410.962C377.63 418.658 374.148 428.223 374.148 438.083C374.148 447.942 377.63 457.508 384.019 465.203C387.135 468.358 390.882 470.87 395.035 472.587C399.187 474.303 403.657 475.188 408.175 475.188C412.692 475.188 417.162 474.303 421.314 472.587C425.467 470.87 429.214 468.358 432.33 465.203C435.794 461.495 438.461 457.161 440.176 452.452C441.892 447.743 442.622 442.752 442.325 437.769C442.613 432.871 441.892 427.967 440.204 423.339C438.517 418.711 435.896 414.451 432.492 410.806V410.806Z" fill="#4E132C" fill-opacity="0.2"/>
<path d="M640.034 368.66C648.482 363.887 658.117 361.421 667.906 361.527V410.124H654.701C642.783 410.124 633.871 412.593 627.966 417.531C621.993 422.43 619.027 431.091 619.027 443.437V513.001H571.57V363.134H619.149V388.02C624.455 380.088 631.606 373.459 640.034 368.66V368.66Z" fill="#4E132C" fill-opacity="0.2"/>
<path d="M1059.63 368.66C1068.06 363.886 1077.68 361.42 1087.46 361.527V410.124H1074.38C1062.46 410.124 1053.55 412.593 1047.64 417.531C1041.71 422.43 1038.74 431.091 1038.74 443.437V513.001H991.125V363.134H1038.74V388.02C1044.04 380.08 1051.19 373.449 1059.63 368.66V368.66Z" fill="#4E132C" fill-opacity="0.2"/>
<path d="M1324.66 363.133L1227.15 584.133H1175.99L1211.63 507.866L1148.41 363.133H1201.59L1237.51 456.839L1273.14 363.133H1324.66Z" fill="#4E132C" fill-opacity="0.2"/>
</g>
</svg>
