<svg width="217" height="112" viewBox="0 0 217 112" fill="none" xmlns="http://www.w3.org/2000/svg">
<path d="M51.2749 21.5935L56.9459 15.2019L52.6893 10.3969C51.1969 8.7601 49.1927 7.8514 47.1104 7.8674C45.028 7.88339 43.035 8.82281 41.5625 10.4824C40.0901 12.142 39.2566 14.3882 39.2424 16.7352C39.2282 19.0821 40.0344 21.341 41.4867 23.023L50.4714 33.1344C49.3672 31.4166 48.8416 29.312 48.9889 27.1973C49.1361 25.0826 49.9465 23.0961 51.2749 21.5935V21.5935Z" fill="#65CDF0"/>
<path d="M72.3846 10.3959C70.899 8.72174 68.8841 7.78125 66.7833 7.78125C64.6825 7.78125 62.6676 8.72174 61.182 10.3959L56.9453 15.2008L62.623 21.5924C63.9534 23.0932 64.7662 25.0787 64.9159 27.1935C65.0656 29.3082 64.5423 31.4139 63.4398 33.1333L72.3846 23.022C73.87 21.3475 74.7045 19.0767 74.7045 16.7089C74.7045 14.3411 73.87 12.0703 72.3846 10.3959V10.3959Z" fill="#F7B923"/>
<path d="M62.6239 21.5909L56.9462 15.1992L51.2752 21.5909C49.9468 23.0934 49.1364 25.08 48.9891 27.1946C48.8419 29.3093 49.3675 31.414 50.4716 33.1317L51.4345 34.217C52.1558 35.0445 53.0162 35.7018 53.9654 36.1505C54.9145 36.5992 55.9335 36.8303 56.9628 36.8303C57.9921 36.8303 59.0111 36.5992 59.9602 36.1505C60.9094 35.7018 61.7698 35.0445 62.4911 34.217L63.4539 33.1317C64.5548 31.4106 65.0758 29.3039 64.9237 27.1891C64.7716 25.0743 63.9563 23.0897 62.6239 21.5909V21.5909Z" fill="#EE2E7E"/>
<path d="M2.04817 8.85308C3.37144 6.12119 5.35062 3.86458 7.75906 2.34169C10.2994 0.758078 13.1638 -0.0470706 16.0664 0.00657428C19.5528 -0.0998721 22.9735 1.08883 25.8015 3.3895C28.508 5.66024 30.423 8.92816 31.2135 12.6252H22.6605C22.0894 11.1978 21.1468 9.99974 19.9578 9.18987C18.751 8.39136 17.3726 7.98227 15.9734 8.00735C14.8782 7.96505 13.7882 8.19605 12.7815 8.68383C11.7747 9.17161 10.876 9.90411 10.1497 10.8289C8.66217 12.705 7.91843 15.2173 7.91843 18.3657C7.91843 21.5166 8.66217 24.0239 10.1497 25.9099C10.8763 26.8338 11.7753 27.5652 12.7821 28.0517C13.7889 28.5382 14.8787 28.7678 15.9734 28.724C17.372 28.7518 18.7505 28.3452 19.9578 27.549C21.1468 26.7391 22.0894 25.5411 22.6605 24.1137H31.2135C30.4262 27.806 28.5071 31.0663 25.7948 33.3194C22.9649 35.6075 19.5479 36.7879 16.0664 36.6799C13.1644 36.7358 10.3 35.9333 7.75906 34.3523C5.35443 32.8338 3.37587 30.5857 2.04817 27.8633C0.653377 24.9482 -0.0510565 21.6771 0.00288012 18.3657C-0.0482683 15.0499 0.655927 11.7747 2.04817 8.85308V8.85308Z" fill="#4E132C"/>
<path d="M96.2925 8.85485C97.669 7.94534 99.239 7.47451 100.835 7.49269V16.7733H98.6964C96.7573 16.7733 95.303 17.2423 94.3335 18.1804C93.364 19.1184 92.877 20.7674 92.8726 23.1275V36.4197H85.0898V7.80704H92.8726V12.5746C93.7399 11.0513 94.911 9.77753 96.2925 8.85485V8.85485Z" fill="#4E132C"/>
<path d="M137.461 24.2096H119.857C119.884 25.7382 120.428 27.1976 121.378 28.2886C122.276 29.2338 123.47 29.7397 124.698 29.6956C125.544 29.7654 126.388 29.5371 127.114 29.0423C127.84 28.5476 128.411 27.8107 128.749 26.9339H137.03C136.612 28.7985 135.827 30.533 134.732 32.0083C133.601 33.5294 132.177 34.7401 130.568 35.5484C128.806 36.4239 126.896 36.8605 124.971 36.8282C122.657 36.8764 120.372 36.2582 118.33 35.032C116.401 33.8687 114.812 32.1011 113.755 29.9426C112.627 27.5433 112.065 24.8582 112.121 22.1439C112.066 19.4348 112.621 16.7542 113.735 14.3527C114.766 12.1804 116.341 10.3975 118.264 9.22592C120.321 7.99603 122.622 7.3778 124.951 7.42968C127.221 7.37183 129.468 7.95864 131.485 9.13611C133.373 10.2713 134.929 11.997 135.967 14.1057C137.078 16.4196 137.634 19.0199 137.581 21.6499C137.586 22.5051 137.546 23.3598 137.461 24.2096V24.2096ZM129.639 19.3373C129.669 18.6573 129.561 17.9785 129.324 17.3522C129.087 16.7259 128.727 16.1686 128.271 15.7223C127.312 14.823 126.09 14.3586 124.844 14.4201C123.636 14.3716 122.453 14.8273 121.524 15.6999C120.587 16.6367 119.992 17.9335 119.857 19.3373H129.639Z" fill="#4E132C"/>
<path d="M128.086 83.135L133.757 76.7434L129.494 71.9459C128.007 70.2716 125.992 69.3313 123.89 69.332C121.789 69.3327 119.773 70.2743 118.288 71.9496C116.802 73.6249 115.968 75.8968 115.969 78.2653C115.969 80.6339 116.805 82.9052 118.291 84.5795L127.269 94.6983C126.163 92.9765 125.637 90.8664 125.787 88.747C125.936 86.6276 126.752 84.6378 128.086 83.135V83.135Z" fill="#65CDF0"/>
<path d="M149.224 71.9466C147.738 70.2725 145.723 69.332 143.622 69.332C141.522 69.332 139.507 70.2725 138.021 71.9466L133.758 76.7441L139.429 83.1357C140.76 84.6377 141.573 86.6245 141.723 88.7405C141.872 90.8565 141.349 92.9635 140.246 94.6841L149.224 84.5802C149.96 83.751 150.544 82.7663 150.943 81.6824C151.342 80.5985 151.547 79.4367 151.547 78.2634C151.547 77.0901 151.342 75.9283 150.943 74.8445C150.544 73.7606 149.96 72.7759 149.224 71.9466Z" fill="#F7B923"/>
<path d="M139.454 83.1338L133.783 76.7422L128.112 83.1338C126.781 84.6358 125.968 86.6226 125.818 88.7386C125.668 90.8546 126.192 92.9616 127.295 94.6822L128.251 95.7599C128.974 96.5868 129.835 97.2435 130.784 97.6917C131.734 98.1399 132.753 98.3707 133.783 98.3707C134.812 98.3707 135.832 98.1399 136.781 97.6917C137.731 97.2435 138.592 96.5868 139.314 95.7599L140.271 94.6822C141.374 92.9616 141.897 90.8546 141.747 88.7386C141.598 86.6226 140.785 84.6358 139.454 83.1338V83.1338Z" fill="#EE2E7E"/>
<path d="M7.78664 91.1948H17.9799V97.9307H0.00390625V61.9609H7.78664V91.1948Z" fill="#4E132C"/>
<path d="M31.3796 65.0152C30.9551 64.5972 30.6165 64.0801 30.3872 63.4998C30.1578 62.9195 30.0433 62.2899 30.0514 61.6547C30.041 61.0126 30.1544 60.3756 30.3837 59.7876C30.613 59.1997 30.9528 58.6748 31.3796 58.2493C32.2878 57.3274 33.4783 56.839 34.6998 56.8872C35.9225 56.8309 37.1156 57.3204 38.0201 58.2493C38.4445 58.677 38.7826 59.2023 39.0117 59.7897C39.2408 60.3772 39.3556 61.0131 39.3482 61.6547C39.3551 62.2897 39.2399 62.9188 39.0107 63.4989C38.7814 64.0789 38.4435 64.5962 38.0201 65.0152C37.1156 65.9441 35.9225 66.4336 34.6998 66.3773C33.4783 66.4255 32.2878 65.9372 31.3796 65.0152V65.0152ZM38.5912 69.3486V97.9688H30.8085V69.3486H38.5912Z" fill="#4E132C"/>
<path d="M64.2491 70.1758C65.6964 69.3309 67.3078 68.9065 68.9374 68.9409C70.9476 68.9148 72.9225 69.5381 74.6283 70.7371C76.3671 71.9904 77.7608 73.766 78.6525 75.8639C79.6287 78.3021 80.1335 80.9465 80.1335 83.6214C80.1335 86.2964 79.6287 88.9408 78.6525 91.379C77.7618 93.4915 76.3688 95.2843 74.6283 96.5581C72.9269 97.7709 70.9503 98.4026 68.9374 98.3768C67.3108 98.4203 65.7001 98.0089 64.2491 97.1793C62.97 96.4329 61.8835 95.327 61.0948 93.9686V97.9727H53.332V60.0195H61.0948V73.4016C61.8692 72.0256 62.959 70.9111 64.2491 70.1758V70.1758ZM70.5975 78.4535C70.0853 77.8466 69.4664 77.3667 68.7803 77.0446C68.0943 76.7224 67.3562 76.565 66.6132 76.5824C65.8751 76.5696 65.143 76.7323 64.4645 77.0599C63.786 77.3875 63.1763 77.8725 62.6753 78.4834C61.631 79.9531 61.062 81.7797 61.062 83.6626C61.062 85.5454 61.631 87.3721 62.6753 88.8418C63.1845 89.4443 63.797 89.924 64.4756 90.2518C65.1542 90.5796 65.8848 90.7486 66.6231 90.7486C67.3614 90.7486 68.092 90.5796 68.7706 90.2518C69.4493 89.924 70.0617 89.4443 70.5709 88.8418C71.1371 88.1336 71.573 87.306 71.8534 86.4067C72.1338 85.5074 72.2531 84.5544 72.2045 83.6027C72.2515 82.6674 72.1338 81.7308 71.8579 80.847C71.5821 79.9632 71.1537 79.1497 70.5975 78.4535V78.4535Z" fill="#4E132C"/>
<path d="M104.517 70.4018C105.898 69.4904 107.473 69.0195 109.073 69.0397V78.3203H106.915C104.967 78.3203 103.51 78.7918 102.545 79.7348C101.569 80.6704 101.084 82.3244 101.084 84.682V97.9667H93.3281V69.3465H101.104V74.0991C101.971 72.5843 103.14 71.3184 104.517 70.4018V70.4018Z" fill="#4E132C"/>
<path d="M173.094 70.4018C174.473 69.4903 176.045 69.0194 177.643 69.0397V78.3203H175.505C173.557 78.3203 172.101 78.7918 171.135 79.7348C170.166 80.6704 169.681 82.3244 169.681 84.682V97.9667H161.898V69.3466H169.681V74.0991C170.547 72.5828 171.716 71.3164 173.094 70.4018V70.4018Z" fill="#4E132C"/>
<path d="M216.412 69.3477L200.475 111.552H192.114L197.938 96.9874L187.605 69.3477H196.298L202.168 87.2427L207.992 69.3477H216.412Z" fill="#4E132C"/>
</svg>
