<svg width="951" height="88" viewBox="0 0 951 88" fill="none" xmlns="http://www.w3.org/2000/svg">
<path d="M950 53V54H951V53H950ZM8 53V52H7V53H8ZM7.29289 87.7071C7.68342 88.0976 8.31658 88.0976 8.70711 87.7071L15.0711 81.3431C15.4616 80.9526 15.4616 80.3195 15.0711 79.9289C14.6805 79.5384 14.0474 79.5384 13.6569 79.9289L8 85.5858L2.34315 79.9289C1.95262 79.5384 1.31946 79.5384 0.928932 79.9289C0.538408 80.3195 0.538408 80.9526 0.928932 81.3431L7.29289 87.7071ZM949 0V53H951V0H949ZM950 52H8V54H950V52ZM8 53C7 53 7 53.0001 7 53.0002C7 53.0004 7 53.0006 7 53.0009C7 53.0013 7 53.0017 7 53.0021C7 53.0026 7 53.0032 7 53.0038C7 53.0044 7 53.0051 7 53.0059C7 53.0067 7 53.0075 7 53.0085C7 53.0094 7 53.0105 7 53.0115C7 53.0126 7 53.0138 7 53.0151C7 53.0163 7 53.0177 7 53.0191C7 53.0205 7 53.0219 7 53.0235C7 53.0251 7 53.0267 7 53.0284C7 53.0301 7 53.0319 7 53.0338C7 53.0357 7 53.0376 7 53.0396C7 53.0416 7 53.0437 7 53.0459C7 53.0481 7 53.0503 7 53.0527C7 53.055 7 53.0574 7 53.0598C7 53.0623 7 53.0649 7 53.0675C7 53.0701 7 53.0728 7 53.0756C7 53.0784 7 53.0812 7 53.0842C7 53.0871 7 53.0901 7 53.0932C7 53.0963 7 53.0994 7 53.1026C7 53.1059 7 53.1092 7 53.1125C7 53.1159 7 53.1194 7 53.1229C7 53.1264 7 53.13 7 53.1337C7 53.1374 7 53.1411 7 53.1449C7 53.1488 7 53.1527 7 53.1566C7 53.1606 7 53.1646 7 53.1688C7 53.1729 7 53.1771 7 53.1813C7 53.1856 7 53.1899 7 53.1943C7 53.1987 7 53.2032 7 53.2078C7 53.2123 7 53.2169 7 53.2216C7 53.2263 7 53.2311 7 53.236C7 53.2408 7 53.2457 7 53.2507C7 53.2557 7 53.2608 7 53.2659C7 53.271 7 53.2762 7 53.2815C7 53.2868 7 53.2921 7 53.2976C7 53.303 7 53.3085 7 53.314C7 53.3196 7 53.3252 7 53.3309C7 53.3366 7 53.3424 7 53.3483C7 53.3541 7 53.36 7 53.366C7 53.372 7 53.3781 7 53.3842C7 53.3903 7 53.3965 7 53.4028C7 53.409 7 53.4154 7 53.4218C7 53.4282 7 53.4347 7 53.4412C7 53.4478 7 53.4544 7 53.4611C7 53.4678 7 53.4745 7 53.4814C7 53.4882 7 53.4951 7 53.5021C7 53.509 7 53.5161 7 53.5232C7 53.5303 7 53.5375 7 53.5447C7 53.5519 7 53.5593 7 53.5666C7 53.574 7 53.5815 7 53.589C7 53.5965 7 53.6041 7 53.6117C7 53.6194 7 53.6271 7 53.6349C7 53.6427 7 53.6505 7 53.6585C7 53.6664 7 53.6744 7 53.6825C7 53.6905 7 53.6986 7 53.7068C7 53.715 7 53.7233 7 53.7316C7 53.74 7 53.7484 7 53.7568C7 53.7653 7 53.7738 7 53.7824C7 53.791 7 53.7997 7 53.8084C7 53.8171 7 53.8259 7 53.8348C7 53.8437 7 53.8526 7 53.8616C7 53.8706 7 53.8796 7 53.8888C7 53.8979 7 53.9071 7 53.9163C7 53.9256 7 53.9349 7 53.9443C7 53.9537 7 53.9632 7 53.9727C7 53.9822 7 53.9918 7 54.0014C7 54.0111 7 54.0208 7 54.0306C7 54.0404 7 54.0502 7 54.0601C7 54.07 7 54.08 7 54.09C7 54.1001 7 54.1102 7 54.1203C7 54.1305 7 54.1407 7 54.151C7 54.1613 7 54.1717 7 54.1821C7 54.1925 7 54.203 7 54.2136C7 54.2241 7 54.2347 7 54.2454C7 54.2561 7 54.2668 7 54.2776C7 54.2884 7 54.2993 7 54.3102C7 54.3212 7 54.3322 7 54.3432C7 54.3543 7 54.3654 7 54.3766C7 54.3877 7 54.399 7 54.4103C7 54.4216 7 54.433 7 54.4444C7 54.4558 7 54.4673 7 54.4789C7 54.4904 7 54.502 7 54.5137C7 54.5254 7 54.5371 7 54.5489C7 54.5607 7 54.5726 7 54.5845C7 54.5964 7 54.6084 7 54.6205C7 54.6325 7 54.6446 7 54.6568C7 54.6689 7 54.6812 7 54.6935C7 54.7057 7 54.7181 7 54.7305C7 54.7429 7 54.7554 7 54.7679C7 54.7804 7 54.793 7 54.8057C7 54.8183 7 54.831 7 54.8438C7 54.8566 7 54.8694 7 54.8823C7 54.8952 7 54.9081 7 54.9211C7 54.9341 7 54.9472 7 54.9603C7 54.9734 7 54.9866 7 54.9999C7 55.0131 7 55.0264 7 55.0398C7 55.0531 7 55.0666 7 55.08C7 55.0935 7 55.1071 7 55.1206C7 55.1342 7 55.1479 7 55.1616C7 55.1753 7 55.1891 7 55.2029C7 55.2167 7 55.2306 7 55.2446C7 55.2585 7 55.2725 7 55.2866C7 55.3006 7 55.3147 7 55.3289C7 55.3431 7 55.3573 7 55.3716C7 55.3859 7 55.4002 7 55.4146C7 55.429 7 55.4435 7 55.458C7 55.4725 7 55.4871 7 55.5017C7 55.5163 7 55.531 7 55.5458C7 55.5605 7 55.5753 7 55.5902C7 55.605 7 55.6199 7 55.6349C7 55.6498 7 55.6649 7 55.6799C7 55.695 7 55.7101 7 55.7253C7 55.7405 7 55.7557 7 55.771C7 55.7863 7 55.8017 7 55.8171C7 55.8325 7 55.848 7 55.8635C7 55.879 7 55.8946 7 55.9102C7 55.9258 7 55.9415 7 55.9572C7 55.973 7 55.9887 7 56.0046C7 56.0204 7 56.0363 7 56.0523C7 56.0682 7 56.0842 7 56.1003C7 56.1163 7 56.1325 7 56.1486C7 56.1648 7 56.181 7 56.1973C7 56.2135 7 56.2299 7 56.2462C7 56.2626 7 56.2791 7 56.2955C7 56.312 7 56.3286 7 56.3451C7 56.3617 7 56.3784 7 56.3951C7 56.4118 7 56.4285 7 56.4453C7 56.4621 7 56.479 7 56.4959C7 56.5128 7 56.5297 7 56.5467C7 56.5637 7 56.5808 7 56.5979C7 56.615 7 56.6322 7 56.6494C7 56.6666 7 56.6839 7 56.7012C7 56.7185 7 56.7358 7 56.7533C7 56.7707 7 56.7882 7 56.8057C7 56.8232 7 56.8408 7 56.8584C7 56.876 7 56.8937 7 56.9114C7 56.9291 7 56.9469 7 56.9647C7 56.9825 7 57.0004 7 57.0183C7 57.0362 7 57.0542 7 57.0722C7 57.0902 7 57.1083 7 57.1264C7 57.1446 7 57.1627 7 57.1809C7 57.1992 7 57.2174 7 57.2357C7 57.2541 7 57.2724 7 57.2908C7 57.3093 7 57.3277 7 57.3462C7 57.3647 7 57.3833 7 57.4019C7 57.4205 7 57.4392 7 57.4579C7 57.4766 7 57.4953 7 57.5141C7 57.5329 7 57.5518 7 57.5707C7 57.5896 7 57.6085 7 57.6275C7 57.6465 7 57.6656 7 57.6847C7 57.7037 7 57.7229 7 57.7421C7 57.7612 7 57.7805 7 57.7997C7 57.819 7 57.8383 7 57.8577C7 57.8771 7 57.8965 7 57.916C7 57.9354 7 57.9549 7 57.9745C7 57.994 7 58.0136 7 58.0333C7 58.0529 7 58.0726 7 58.0924C7 58.1121 7 58.1319 7 58.1517C7 58.1716 7 58.1915 7 58.2114C7 58.2313 7 58.2513 7 58.2713C7 58.2913 7 58.3114 7 58.3315C7 58.3516 7 58.3717 7 58.3919C7 58.4121 7 58.4323 7 58.4526C7 58.4729 7 58.4932 7 58.5136C7 58.534 7 58.5544 7 58.5749C7 58.5953 7 58.6158 7 58.6364C7 58.6569 7 58.6775 7 58.6982C7 58.7188 7 58.7395 7 58.7602C7 58.7809 7 58.8017 7 58.8225C7 58.8433 7 58.8642 7 58.8851C7 58.906 7 58.9269 7 58.9479C7 58.9689 7 58.9899 7 59.011C7 59.032 7 59.0532 7 59.0743C7 59.0955 7 59.1167 7 59.1379C7 59.1591 7 59.1804 7 59.2018C7 59.2231 7 59.2444 7 59.2659C7 59.2873 7 59.3087 7 59.3302C7 59.3517 7 59.3732 7 59.3948C7 59.4164 7 59.438 7 59.4597C7 59.4813 7 59.503 7 59.5248C7 59.5465 7 59.5683 7 59.5901C7 59.6119 7 59.6338 7 59.6557C7 59.6776 7 59.6995 7 59.7215C7 59.7435 7 59.7655 7 59.7876C7 59.8097 7 59.8318 7 59.8539C7 59.8761 7 59.8983 7 59.9205C7 59.9427 7 59.965 7 59.9873C7 60.0096 7 60.0319 7 60.0543C7 60.0767 7 60.0991 7 60.1216C7 60.144 7 60.1665 7 60.1891C7 60.2116 7 60.2342 7 60.2568C7 60.2794 7 60.3021 7 60.3248C7 60.3475 7 60.3702 7 60.393C7 60.4158 7 60.4386 7 60.4614C7 60.4843 7 60.5072 7 60.5301C7 60.553 7 60.576 7 60.599C7 60.622 7 60.645 7 60.6681C7 60.6912 7 60.7143 7 60.7374C7 60.7606 7 60.7838 7 60.807C7 60.8302 7 60.8535 7 60.8768C7 60.9001 7 60.9234 7 60.9468C7 60.9702 7 60.9936 7 61.017C7 61.0405 7 61.064 7 61.0875C7 61.111 7 61.1345 7 61.1581C7 61.1817 7 61.2054 7 61.229C7 61.2527 7 61.2764 7 61.3001C7 61.3238 7 61.3476 7 61.3714C7 61.3952 7 61.4191 7 61.4429C7 61.4668 7 61.4907 7 61.5147C7 61.5386 7 61.5626 7 61.5866C7 61.6106 7 61.6347 7 61.6588C7 61.6828 7 61.707 7 61.7311C7 61.7553 7 61.7795 7 61.8037C7 61.8279 7 61.8522 7 61.8765C7 61.9007 7 61.9251 7 61.9494C7 61.9738 7 61.9982 7 62.0226C7 62.047 7 62.0715 7 62.096C7 62.1205 7 62.145 7 62.1696C7 62.1941 7 62.2187 7 62.2433C7 62.268 7 62.2926 7 62.3173C7 62.342 7 62.3667 7 62.3915C7 62.4162 7 62.441 7 62.4658C7 62.4907 7 62.5155 7 62.5404C7 62.5653 7 62.5902 7 62.6151C7 62.6401 7 62.6651 7 62.6901C7 62.7151 7 62.7401 7 62.7652C7 62.7903 7 62.8154 7 62.8405C7 62.8657 7 62.8908 7 62.916C7 62.9412 7 62.9665 7 62.9917C7 63.017 7 63.0423 7 63.0676C7 63.0929 7 63.1183 7 63.1437C7 63.169 7 63.1945 7 63.2199C7 63.2453 7 63.2708 7 63.2963C7 63.3218 7 63.3474 7 63.3729C7 63.3985 7 63.4241 7 63.4497C7 63.4753 7 63.501 7 63.5267C7 63.5523 7 63.578 7 63.6038C7 63.6295 7 63.6553 7 63.6811C7 63.7069 7 63.7327 7 63.7586C7 63.7844 7 63.8103 7 63.8362C7 63.8621 7 63.8881 7 63.9141C7 63.94 7 63.966 7 63.992C7 64.0181 7 64.0441 7 64.0702C7 64.0963 7 64.1224 7 64.1485C7 64.1747 7 64.2008 7 64.227C7 64.2532 7 64.2794 7 64.3057C7 64.3319 7 64.3582 7 64.3845C7 64.4108 7 64.4371 7 64.4635C7 64.4898 7 64.5162 7 64.5426C7 64.569 7 64.5955 7 64.6219C7 64.6484 7 64.6749 7 64.7014C7 64.7279 7 64.7545 7 64.781C7 64.8076 7 64.8342 7 64.8608C7 64.8874 7 64.9141 7 64.9407C7 64.9674 7 64.9941 7 65.0208C7 65.0475 7 65.0743 7 65.1011C7 65.1278 7 65.1546 7 65.1814C7 65.2083 7 65.2351 7 65.262C7 65.2888 7 65.3157 7 65.3427C7 65.3696 7 65.3965 7 65.4235C7 65.4505 7 65.4774 7 65.5045C7 65.5315 7 65.5585 7 65.5856C7 65.6126 7 65.6397 7 65.6668C7 65.694 7 65.7211 7 65.7483C7 65.7754 7 65.8026 7 65.8298C7 65.857 7 65.8842 7 65.9115C7 65.9387 7 65.966 7 65.9933C7 66.0206 7 66.0479 7 66.0753C7 66.1026 7 66.13 7 66.1574C7 66.1848 7 66.2122 7 66.2396C7 66.267 7 66.2945 7 66.322C7 66.3494 7 66.3769 7 66.4044C7 66.432 7 66.4595 7 66.4871C7 66.5146 7 66.5422 7 66.5698C7 66.5974 7 66.6251 7 66.6527C7 66.6804 7 66.708 7 66.7357C7 66.7634 7 66.7911 7 66.8189C7 66.8466 7 66.8743 7 66.9021C7 66.9299 7 66.9577 7 66.9855C7 67.0133 7 67.0412 7 67.069C7 67.0969 7 67.1247 7 67.1526C7 67.1805 7 67.2084 7 67.2364C7 67.2643 7 67.2923 7 67.3202C7 67.3482 7 67.3762 7 67.4042C7 67.4322 7 67.4603 7 67.4883C7 67.5164 7 67.5444 7 67.5725C7 67.6006 7 67.6287 7 67.6568C7 67.685 7 67.7131 7 67.7413C7 67.7694 7 67.7976 7 67.8258C7 67.854 7 67.8822 7 67.9105C7 67.9387 7 67.967 7 67.9952C7 68.0235 7 68.0518 7 68.0801C7 68.1084 7 68.1367 7 68.1651C7 68.1934 7 68.2218 7 68.2501C7 68.2785 7 68.3069 7 68.3353C7 68.3637 7 68.3922 7 68.4206C7 68.4491 7 68.4775 7 68.506C7 68.5345 7 68.563 7 68.5915C7 68.62 7 68.6485 7 68.677C7 68.7056 7 68.7341 7 68.7627C7 68.7913 7 68.8199 7 68.8485C7 68.8771 7 68.9057 7 68.9343C7 68.963 7 68.9916 7 69.0203C7 69.049 7 69.0777 7 69.1064C7 69.1351 7 69.1638 7 69.1925C7 69.2212 7 69.25 7 69.2787C7 69.3075 7 69.3363 7 69.365C7 69.3938 7 69.4226 7 69.4514C7 69.4803 7 69.5091 7 69.5379C7 69.5668 7 69.5956 7 69.6245C7 69.6534 7 69.6823 7 69.7112C7 69.7401 7 69.769 7 69.7979C7 69.8268 7 69.8558 7 69.8847C7 69.9137 7 69.9426 7 69.9716C7 70.0006 7 70.0296 7 70.0586C7 70.0876 7 70.1166 7 70.1456C7 70.1746 7 70.2037 7 70.2327C7 70.2618 7 70.2909 7 70.3199C7 70.349 7 70.3781 7 70.4072C7 70.4363 7 70.4654 7 70.4945C7 70.5237 7 70.5528 7 70.582C7 70.6111 7 70.6403 7 70.6694C7 70.6986 7 70.7278 7 70.757C7 70.7862 7 70.8154 7 70.8446C7 70.8738 7 70.903 7 70.9323C7 70.9615 7 70.9908 7 71.02C7 71.0493 7 71.0785 7 71.1078C7 71.1371 7 71.1664 7 71.1957C7 71.225 7 71.2543 7 71.2836C7 71.3129 7 71.3423 7 71.3716C7 71.4009 7 71.4303 7 71.4596C7 71.489 7 71.5184 7 71.5478C7 71.5771 7 71.6065 7 71.6359C7 71.6653 7 71.6947 7 71.7241C7 71.7535 7 71.7829 7 71.8124C7 71.8418 7 71.8712 7 71.9007C7 71.9301 7 71.9596 7 71.989C7 72.0185 7 72.048 7 72.0775C7 72.1069 7 72.1364 7 72.1659C7 72.1954 7 72.2249 7 72.2544C7 72.2839 7 72.3134 7 72.343C7 72.3725 7 72.402 7 72.4316C7 72.4611 7 72.4906 7 72.5202C7 72.5497 7 72.5793 7 72.6089C7 72.6384 7 72.668 7 72.6976C7 72.7272 7 72.7568 7 72.7863C7 72.8159 7 72.8455 7 72.8751C7 72.9047 7 72.9343 7 72.964C7 72.9936 7 73.0232 7 73.0528C7 73.0825 7 73.1121 7 73.1417C7 73.1714 7 73.201 7 73.2307C7 73.2603 7 73.29 7 73.3196C7 73.3493 7 73.3789 7 73.4086C7 73.4383 7 73.4679 7 73.4976C7 73.5273 7 73.557 7 73.5867C7 73.6163 7 73.646 7 73.6757C7 73.7054 7 73.7351 7 73.7648C7 73.7945 7 73.8242 7 73.854C7 73.8837 7 73.9134 7 73.9431C7 73.9728 7 74.0025 7 74.0323C7 74.062 7 74.0917 7 74.1214C7 74.1512 7 74.1809 7 74.2106C7 74.2404 7 74.2701 7 74.2999C7 74.3296 7 74.3594 7 74.3891C7 74.4188 7 74.4486 7 74.4783C7 74.5081 7 74.5379 7 74.5676C7 74.5974 7 74.6271 7 74.6569C7 74.6866 7 74.7164 7 74.7462C7 74.7759 7 74.8057 7 74.8355C7 74.8652 7 74.895 7 74.9248C7 74.9545 7 74.9843 7 75.0141C7 75.0439 7 75.0736 7 75.1034C7 75.1332 7 75.1629 7 75.1927C7 75.2225 7 75.2523 7 75.282C7 75.3118 7 75.3416 7 75.3714C7 75.4011 7 75.4309 7 75.4607C7 75.4905 7 75.5203 7 75.55C7 75.5798 7 75.6096 7 75.6394C7 75.6691 7 75.6989 7 75.7287C7 75.7585 7 75.7882 7 75.818C7 75.8478 7 75.8775 7 75.9073C7 75.9371 7 75.9669 7 75.9966C7 76.0264 7 76.0562 7 76.0859C7 76.1157 7 76.1454 7 76.1752C7 76.205 7 76.2347 7 76.2645C7 76.2942 7 76.324 7 76.3538C7 76.3835 7 76.4133 7 76.443C7 76.4728 7 76.5025 7 76.5322C7 76.562 7 76.5917 7 76.6215C7 76.6512 7 76.6809 7 76.7107C7 76.7404 7 76.7701 7 76.7999C7 76.8296 7 76.8593 7 76.889C7 76.9188 7 76.9485 7 76.9782C7 77.0079 7 77.0376 7 77.0673C7 77.097 7 77.1267 7 77.1564C7 77.1861 7 77.2158 7 77.2455C7 77.2752 7 77.3049 7 77.3346C7 77.3642 7 77.3939 7 77.4236C7 77.4533 7 77.4829 7 77.5126C7 77.5423 7 77.5719 7 77.6016C7 77.6312 7 77.6609 7 77.6905C7 77.7201 7 77.7498 7 77.7794C7 77.809 7 77.8387 7 77.8683C7 77.8979 7 77.9275 7 77.9571C7 77.9867 7 78.0163 7 78.0459C7 78.0755 7 78.1051 7 78.1347C7 78.1643 7 78.1939 7 78.2234C7 78.253 7 78.2826 7 78.3121C7 78.3417 7 78.3712 7 78.4008C7 78.4303 7 78.4598 7 78.4894C7 78.5189 7 78.5484 7 78.5779C7 78.6075 7 78.637 7 78.6665C7 78.696 7 78.7255 7 78.7549C7 78.7844 7 78.8139 7 78.8434C7 78.8728 7 78.9023 7 78.9317C7 78.9612 7 78.9906 7 79.0201C7 79.0495 7 79.0789 7 79.1084C7 79.1378 7 79.1672 7 79.1966C7 79.226 7 79.2554 7 79.2848C7 79.3141 7 79.3435 7 79.3729C7 79.4022 7 79.4316 7 79.4609C7 79.4903 7 79.5196 7 79.5489C7 79.5783 7 79.6076 7 79.6369C7 79.6662 7 79.6955 7 79.7248C7 79.7541 7 79.7833 7 79.8126C7 79.8419 7 79.8711 7 79.9004C7 79.9296 7 79.9589 7 79.9881C7 80.0173 7 80.0465 7 80.0757C7 80.1049 7 80.1341 7 80.1633C7 80.1925 7 80.2216 7 80.2508C7 80.2799 7 80.3091 7 80.3382C7 80.3674 7 80.3965 7 80.4256C7 80.4547 7 80.4838 7 80.5129C7 80.542 7 80.571 7 80.6001C7 80.6292 7 80.6582 7 80.6873C7 80.7163 7 80.7453 7 80.7743C7 80.8033 7 80.8324 7 80.8613C7 80.8903 7 80.9193 7 80.9483C7 80.9772 7 81.0062 7 81.0351C7 81.064 7 81.093 7 81.1219C7 81.1508 7 81.1797 7 81.2085C7 81.2374 7 81.2663 7 81.2952C7 81.324 7 81.3528 7 81.3817C7 81.4105 7 81.4393 7 81.4681C7 81.4969 7 81.5257 7 81.5544C7 81.5832 7 81.612 7 81.6407C7 81.6694 7 81.6982 7 81.7269C7 81.7556 7 81.7843 7 81.813C7 81.8416 7 81.8703 7 81.8989C7 81.9276 7 81.9562 7 81.9848C7 82.0135 7 82.0421 7 82.0706C7 82.0992 7 82.1278 7 82.1564C7 82.1849 7 82.2134 7 82.242C7 82.2705 7 82.299 7 82.3275C7 82.356 7 82.3844 7 82.4129C7 82.4414 7 82.4698 7 82.4982C7 82.5266 7 82.555 7 82.5834C7 82.6118 7 82.6402 7 82.6685C7 82.6969 7 82.7252 7 82.7536C7 82.7819 7 82.8102 7 82.8385C7 82.8667 7 82.895 7 82.9233C7 82.9515 7 82.9797 7 83.0079C7 83.0362 7 83.0644 7 83.0925C7 83.1207 7 83.1489 7 83.177C7 83.2051 7 83.2333 7 83.2614C7 83.2895 7 83.3176 7 83.3456C7 83.3737 7 83.4017 7 83.4297C7 83.4578 7 83.4858 7 83.5138C7 83.5418 7 83.5697 7 83.5977C7 83.6256 7 83.6536 7 83.6815C7 83.7094 7 83.7373 7 83.7651C7 83.793 7 83.8208 7 83.8487C7 83.8765 7 83.9043 7 83.9321C7 83.9599 7 83.9877 7 84.0154C7 84.0432 7 84.0709 7 84.0986C7 84.1263 7 84.154 7 84.1816C7 84.2093 7 84.237 7 84.2646C7 84.2922 7 84.3198 7 84.3474C7 84.375 7 84.4025 7 84.43C7 84.4576 7 84.4851 7 84.5126C7 84.5401 7 84.5676 7 84.595C7 84.6224 7 84.6499 7 84.6773C7 84.7047 7 84.7321 7 84.7594C7 84.7868 7 84.8141 7 84.8414C7 84.8687 7 84.896 7 84.9233C7 84.9506 7 84.9778 7 85.005C7 85.0323 7 85.0595 7 85.0866C7 85.1138 7 85.141 7 85.1681C7 85.1952 7 85.2223 7 85.2494C7 85.2765 7 85.3035 7 85.3306C7 85.3576 7 85.3846 7 85.4116C7 85.4386 7 85.4656 7 85.4925C7 85.5194 7 85.5463 7 85.5732C7 85.6001 7 85.627 7 85.6538C7 85.6806 7 85.7075 7 85.7343C7 85.761 7 85.7878 7 85.8145C7 85.8413 7 85.868 7 85.8947C7 85.9214 7 85.948 7 85.9747C7 86.0013 7 86.0279 7 86.0545C7 86.0811 7 86.1076 7 86.1342C7 86.1607 7 86.1872 7 86.2137C7 86.2402 7 86.2666 7 86.2931C7 86.3195 7 86.3459 7 86.3723C7 86.3986 7 86.425 7 86.4513C7 86.4776 7 86.5039 7 86.5302C7 86.5564 7 86.5827 7 86.6089C7 86.6351 7 86.6613 7 86.6875C7 86.7136 7 86.7397 7 86.7658C7 86.7919 7 86.818 7 86.8441C7 86.8701 7 86.8961 7 86.9221C7 86.9481 7 86.9741 7 87H9C9 86.9741 9 86.9481 9 86.9221C9 86.8961 9 86.8701 9 86.8441C9 86.818 9 86.7919 9 86.7658C9 86.7397 9 86.7136 9 86.6875C9 86.6613 9 86.6351 9 86.6089C9 86.5827 9 86.5564 9 86.5302C9 86.5039 9 86.4776 9 86.4513C9 86.425 9 86.3986 9 86.3723C9 86.3459 9 86.3195 9 86.2931C9 86.2666 9 86.2402 9 86.2137C9 86.1872 9 86.1607 9 86.1342C9 86.1076 9 86.0811 9 86.0545C9 86.0279 9 86.0013 9 85.9747C9 85.948 9 85.9214 9 85.8947C9 85.868 9 85.8413 9 85.8145C9 85.7878 9 85.761 9 85.7343C9 85.7075 9 85.6806 9 85.6538C9 85.627 9 85.6001 9 85.5732C9 85.5463 9 85.5194 9 85.4925C9 85.4656 9 85.4386 9 85.4116C9 85.3846 9 85.3576 9 85.3306C9 85.3035 9 85.2765 9 85.2494C9 85.2223 9 85.1952 9 85.1681C9 85.141 9 85.1138 9 85.0866C9 85.0595 9 85.0323 9 85.005C9 84.9778 9 84.9506 9 84.9233C9 84.896 9 84.8687 9 84.8414C9 84.8141 9 84.7868 9 84.7594C9 84.7321 9 84.7047 9 84.6773C9 84.6499 9 84.6224 9 84.595C9 84.5676 9 84.5401 9 84.5126C9 84.4851 9 84.4576 9 84.43C9 84.4025 9 84.375 9 84.3474C9 84.3198 9 84.2922 9 84.2646C9 84.237 9 84.2093 9 84.1816C9 84.154 9 84.1263 9 84.0986C9 84.0709 9 84.0432 9 84.0154C9 83.9877 9 83.9599 9 83.9321C9 83.9043 9 83.8765 9 83.8487C9 83.8208 9 83.793 9 83.7651C9 83.7373 9 83.7094 9 83.6815C9 83.6536 9 83.6256 9 83.5977C9 83.5697 9 83.5418 9 83.5138C9 83.4858 9 83.4578 9 83.4297C9 83.4017 9 83.3737 9 83.3456C9 83.3176 9 83.2895 9 83.2614C9 83.2333 9 83.2051 9 83.177C9 83.1489 9 83.1207 9 83.0925C9 83.0644 9 83.0362 9 83.0079C9 82.9797 9 82.9515 9 82.9233C9 82.895 9 82.8667 9 82.8385C9 82.8102 9 82.7819 9 82.7536C9 82.7252 9 82.6969 9 82.6685C9 82.6402 9 82.6118 9 82.5834C9 82.555 9 82.5266 9 82.4982C9 82.4698 9 82.4414 9 82.4129C9 82.3844 9 82.356 9 82.3275C9 82.299 9 82.2705 9 82.242C9 82.2134 9 82.1849 9 82.1564C9 82.1278 9 82.0992 9 82.0706C9 82.0421 9 82.0135 9 81.9848C9 81.9562 9 81.9276 9 81.8989C9 81.8703 9 81.8416 9 81.813C9 81.7843 9 81.7556 9 81.7269C9 81.6982 9 81.6694 9 81.6407C9 81.612 9 81.5832 9 81.5544C9 81.5257 9 81.4969 9 81.4681C9 81.4393 9 81.4105 9 81.3817C9 81.3528 9 81.324 9 81.2952C9 81.2663 9 81.2374 9 81.2085C9 81.1797 9 81.1508 9 81.1219C9 81.093 9 81.064 9 81.0351C9 81.0062 9 80.9772 9 80.9483C9 80.9193 9 80.8903 9 80.8613C9 80.8324 9 80.8033 9 80.7743C9 80.7453 9 80.7163 9 80.6873C9 80.6582 9 80.6292 9 80.6001C9 80.571 9 80.542 9 80.5129C9 80.4838 9 80.4547 9 80.4256C9 80.3965 9 80.3674 9 80.3382C9 80.3091 9 80.2799 9 80.2508C9 80.2216 9 80.1925 9 80.1633C9 80.1341 9 80.1049 9 80.0757C9 80.0465 9 80.0173 9 79.9881C9 79.9589 9 79.9296 9 79.9004C9 79.8711 9 79.8419 9 79.8126C9 79.7833 9 79.7541 9 79.7248C9 79.6955 9 79.6662 9 79.6369C9 79.6076 9 79.5783 9 79.5489C9 79.5196 9 79.4903 9 79.4609C9 79.4316 9 79.4022 9 79.3729C9 79.3435 9 79.3141 9 79.2848C9 79.2554 9 79.226 9 79.1966C9 79.1672 9 79.1378 9 79.1084C9 79.0789 9 79.0495 9 79.0201C9 78.9906 9 78.9612 9 78.9317C9 78.9023 9 78.8728 9 78.8434C9 78.8139 9 78.7844 9 78.7549C9 78.7255 9 78.696 9 78.6665C9 78.637 9 78.6075 9 78.5779C9 78.5484 9 78.5189 9 78.4894C9 78.4598 9 78.4303 9 78.4008C9 78.3712 9 78.3417 9 78.3121C9 78.2826 9 78.253 9 78.2234C9 78.1939 9 78.1643 9 78.1347C9 78.1051 9 78.0755 9 78.0459C9 78.0163 9 77.9867 9 77.9571C9 77.9275 9 77.8979 9 77.8683C9 77.8387 9 77.809 9 77.7794C9 77.7498 9 77.7201 9 77.6905C9 77.6609 9 77.6312 9 77.6016C9 77.5719 9 77.5423 9 77.5126C9 77.4829 9 77.4533 9 77.4236C9 77.3939 9 77.3642 9 77.3346C9 77.3049 9 77.2752 9 77.2455C9 77.2158 9 77.1861 9 77.1564C9 77.1267 9 77.097 9 77.0673C9 77.0376 9 77.0079 9 76.9782C9 76.9485 9 76.9188 9 76.889C9 76.8593 9 76.8296 9 76.7999C9 76.7701 9 76.7404 9 76.7107C9 76.6809 9 76.6512 9 76.6215C9 76.5917 9 76.562 9 76.5322C9 76.5025 9 76.4728 9 76.443C9 76.4133 9 76.3835 9 76.3538C9 76.324 9 76.2942 9 76.2645C9 76.2347 9 76.205 9 76.1752C9 76.1454 9 76.1157 9 76.0859C9 76.0562 9 76.0264 9 75.9966C9 75.9669 9 75.9371 9 75.9073C9 75.8775 9 75.8478 9 75.818C9 75.7882 9 75.7585 9 75.7287C9 75.6989 9 75.6691 9 75.6394C9 75.6096 9 75.5798 9 75.55C9 75.5203 9 75.4905 9 75.4607C9 75.4309 9 75.4011 9 75.3714C9 75.3416 9 75.3118 9 75.282C9 75.2523 9 75.2225 9 75.1927C9 75.1629 9 75.1332 9 75.1034C9 75.0736 9 75.0439 9 75.0141C9 74.9843 9 74.9545 9 74.9248C9 74.895 9 74.8652 9 74.8355C9 74.8057 9 74.7759 9 74.7462C9 74.7164 9 74.6866 9 74.6569C9 74.6271 9 74.5974 9 74.5676C9 74.5379 9 74.5081 9 74.4783C9 74.4486 9 74.4188 9 74.3891C9 74.3594 9 74.3296 9 74.2999C9 74.2701 9 74.2404 9 74.2106C9 74.1809 9 74.1512 9 74.1214C9 74.0917 9 74.062 9 74.0323C9 74.0025 9 73.9728 9 73.9431C9 73.9134 9 73.8837 9 73.854C9 73.8242 9 73.7945 9 73.7648C9 73.7351 9 73.7054 9 73.6757C9 73.646 9 73.6163 9 73.5867C9 73.557 9 73.5273 9 73.4976C9 73.4679 9 73.4383 9 73.4086C9 73.3789 9 73.3493 9 73.3196C9 73.29 9 73.2603 9 73.2307C9 73.201 9 73.1714 9 73.1417C9 73.1121 9 73.0825 9 73.0528C9 73.0232 9 72.9936 9 72.964C9 72.9343 9 72.9047 9 72.8751C9 72.8455 9 72.8159 9 72.7863C9 72.7568 9 72.7272 9 72.6976C9 72.668 9 72.6384 9 72.6089C9 72.5793 9 72.5497 9 72.5202C9 72.4906 9 72.4611 9 72.4316C9 72.402 9 72.3725 9 72.343C9 72.3134 9 72.2839 9 72.2544C9 72.2249 9 72.1954 9 72.1659C9 72.1364 9 72.1069 9 72.0775C9 72.048 9 72.0185 9 71.989C9 71.9596 9 71.9301 9 71.9007C9 71.8712 9 71.8418 9 71.8124C9 71.7829 9 71.7535 9 71.7241C9 71.6947 9 71.6653 9 71.6359C9 71.6065 9 71.5771 9 71.5478C9 71.5184 9 71.489 9 71.4596C9 71.4303 9 71.4009 9 71.3716C9 71.3423 9 71.3129 9 71.2836C9 71.2543 9 71.225 9 71.1957C9 71.1664 9 71.1371 9 71.1078C9 71.0785 9 71.0493 9 71.02C9 70.9908 9 70.9615 9 70.9323C9 70.903 9 70.8738 9 70.8446C9 70.8154 9 70.7862 9 70.757C9 70.7278 9 70.6986 9 70.6694C9 70.6403 9 70.6111 9 70.582C9 70.5528 9 70.5237 9 70.4945C9 70.4654 9 70.4363 9 70.4072C9 70.3781 9 70.349 9 70.3199C9 70.2909 9 70.2618 9 70.2327C9 70.2037 9 70.1746 9 70.1456C9 70.1166 9 70.0876 9 70.0586C9 70.0296 9 70.0006 9 69.9716C9 69.9426 9 69.9137 9 69.8847C9 69.8558 9 69.8268 9 69.7979C9 69.769 9 69.7401 9 69.7112C9 69.6823 9 69.6534 9 69.6245C9 69.5956 9 69.5668 9 69.5379C9 69.5091 9 69.4803 9 69.4514C9 69.4226 9 69.3938 9 69.365C9 69.3363 9 69.3075 9 69.2787C9 69.25 9 69.2212 9 69.1925C9 69.1638 9 69.1351 9 69.1064C9 69.0777 9 69.049 9 69.0203C9 68.9916 9 68.963 9 68.9343C9 68.9057 9 68.8771 9 68.8485C9 68.8199 9 68.7913 9 68.7627C9 68.7341 9 68.7056 9 68.677C9 68.6485 9 68.62 9 68.5915C9 68.563 9 68.5345 9 68.506C9 68.4775 9 68.4491 9 68.4206C9 68.3922 9 68.3637 9 68.3353C9 68.3069 9 68.2785 9 68.2501C9 68.2218 9 68.1934 9 68.1651C9 68.1367 9 68.1084 9 68.0801C9 68.0518 9 68.0235 9 67.9952C9 67.967 9 67.9387 9 67.9105C9 67.8822 9 67.854 9 67.8258C9 67.7976 9 67.7694 9 67.7413C9 67.7131 9 67.685 9 67.6568C9 67.6287 9 67.6006 9 67.5725C9 67.5444 9 67.5164 9 67.4883C9 67.4603 9 67.4322 9 67.4042C9 67.3762 9 67.3482 9 67.3202C9 67.2923 9 67.2643 9 67.2364C9 67.2084 9 67.1805 9 67.1526C9 67.1247 9 67.0969 9 67.069C9 67.0412 9 67.0133 9 66.9855C9 66.9577 9 66.9299 9 66.9021C9 66.8743 9 66.8466 9 66.8189C9 66.7911 9 66.7634 9 66.7357C9 66.708 9 66.6804 9 66.6527C9 66.6251 9 66.5974 9 66.5698C9 66.5422 9 66.5146 9 66.4871C9 66.4595 9 66.432 9 66.4044C9 66.3769 9 66.3494 9 66.322C9 66.2945 9 66.267 9 66.2396C9 66.2122 9 66.1848 9 66.1574C9 66.13 9 66.1026 9 66.0753C9 66.0479 9 66.0206 9 65.9933C9 65.966 9 65.9387 9 65.9115C9 65.8842 9 65.857 9 65.8298C9 65.8026 9 65.7754 9 65.7483C9 65.7211 9 65.694 9 65.6668C9 65.6397 9 65.6126 9 65.5856C9 65.5585 9 65.5315 9 65.5045C9 65.4774 9 65.4505 9 65.4235C9 65.3965 9 65.3696 9 65.3427C9 65.3157 9 65.2888 9 65.262C9 65.2351 9 65.2083 9 65.1814C9 65.1546 9 65.1278 9 65.1011C9 65.0743 9 65.0475 9 65.0208C9 64.9941 9 64.9674 9 64.9407C9 64.9141 9 64.8874 9 64.8608C9 64.8342 9 64.8076 9 64.781C9 64.7545 9 64.7279 9 64.7014C9 64.6749 9 64.6484 9 64.6219C9 64.5955 9 64.569 9 64.5426C9 64.5162 9 64.4898 9 64.4635C9 64.4371 9 64.4108 9 64.3845C9 64.3582 9 64.3319 9 64.3057C9 64.2794 9 64.2532 9 64.227C9 64.2008 9 64.1747 9 64.1485C9 64.1224 9 64.0963 9 64.0702C9 64.0441 9 64.0181 9 63.992C9 63.966 9 63.94 9 63.9141C9 63.8881 9 63.8621 9 63.8362C9 63.8103 9 63.7844 9 63.7586C9 63.7327 9 63.7069 9 63.6811C9 63.6553 9 63.6295 9 63.6038C9 63.578 9 63.5523 9 63.5267C9 63.501 9 63.4753 9 63.4497C9 63.4241 9 63.3985 9 63.3729C9 63.3474 9 63.3218 9 63.2963C9 63.2708 9 63.2453 9 63.2199C9 63.1945 9 63.169 9 63.1437C9 63.1183 9 63.0929 9 63.0676C9 63.0423 9 63.017 9 62.9917C9 62.9665 9 62.9412 9 62.916C9 62.8908 9 62.8657 9 62.8405C9 62.8154 9 62.7903 9 62.7652C9 62.7401 9 62.7151 9 62.6901C9 62.6651 9 62.6401 9 62.6151C9 62.5902 9 62.5653 9 62.5404C9 62.5155 9 62.4907 9 62.4658C9 62.441 9 62.4162 9 62.3915C9 62.3667 9 62.342 9 62.3173C9 62.2926 9 62.268 9 62.2433C9 62.2187 9 62.1941 9 62.1696C9 62.145 9 62.1205 9 62.096C9 62.0715 9 62.047 9 62.0226C9 61.9982 9 61.9738 9 61.9494C9 61.9251 9 61.9007 9 61.8765C9 61.8522 9 61.8279 9 61.8037C9 61.7795 9 61.7553 9 61.7311C9 61.707 9 61.6828 9 61.6588C9 61.6347 9 61.6106 9 61.5866C9 61.5626 9 61.5386 9 61.5147C9 61.4907 9 61.4668 9 61.4429C9 61.4191 9 61.3952 9 61.3714C9 61.3476 9 61.3238 9 61.3001C9 61.2764 9 61.2527 9 61.229C9 61.2054 9 61.1817 9 61.1581C9 61.1345 9 61.111 9 61.0875C9 61.064 9 61.0405 9 61.017C9 60.9936 9 60.9702 9 60.9468C9 60.9234 9 60.9001 9 60.8768C9 60.8535 9 60.8302 9 60.807C9 60.7838 9 60.7606 9 60.7374C9 60.7143 9 60.6912 9 60.6681C9 60.645 9 60.622 9 60.599C9 60.576 9 60.553 9 60.5301C9 60.5072 9 60.4843 9 60.4614C9 60.4386 9 60.4158 9 60.393C9 60.3702 9 60.3475 9 60.3248C9 60.3021 9 60.2794 9 60.2568C9 60.2342 9 60.2116 9 60.1891C9 60.1665 9 60.144 9 60.1216C9 60.0991 9 60.0767 9 60.0543C9 60.0319 9 60.0096 9 59.9873C9 59.965 9 59.9427 9 59.9205C9 59.8983 9 59.8761 9 59.8539C9 59.8318 9 59.8097 9 59.7876C9 59.7655 9 59.7435 9 59.7215C9 59.6995 9 59.6776 9 59.6557C9 59.6338 9 59.6119 9 59.5901C9 59.5683 9 59.5465 9 59.5248C9 59.503 9 59.4813 9 59.4597C9 59.438 9 59.4164 9 59.3948C9 59.3732 9 59.3517 9 59.3302C9 59.3087 9 59.2873 9 59.2659C9 59.2444 9 59.2231 9 59.2018C9 59.1804 9 59.1591 9 59.1379C9 59.1167 9 59.0955 9 59.0743C9 59.0532 9 59.032 9 59.011C9 58.9899 9 58.9689 9 58.9479C9 58.9269 9 58.906 9 58.8851C9 58.8642 9 58.8433 9 58.8225C9 58.8017 9 58.7809 9 58.7602C9 58.7395 9 58.7188 9 58.6982C9 58.6775 9 58.6569 9 58.6364C9 58.6158 9 58.5953 9 58.5749C9 58.5544 9 58.534 9 58.5136C9 58.4932 9 58.4729 9 58.4526C9 58.4323 9 58.4121 9 58.3919C9 58.3717 9 58.3516 9 58.3315C9 58.3114 9 58.2913 9 58.2713C9 58.2513 9 58.2313 9 58.2114C9 58.1915 9 58.1716 9 58.1517C9 58.1319 9 58.1121 9 58.0924C9 58.0726 9 58.0529 9 58.0333C9 58.0136 9 57.994 9 57.9745C9 57.9549 9 57.9354 9 57.916C9 57.8965 9 57.8771 9 57.8577C9 57.8383 9 57.819 9 57.7997C9 57.7805 9 57.7612 9 57.7421C9 57.7229 9 57.7037 9 57.6847C9 57.6656 9 57.6465 9 57.6275C9 57.6085 9 57.5896 9 57.5707C9 57.5518 9 57.5329 9 57.5141C9 57.4953 9 57.4766 9 57.4579C9 57.4392 9 57.4205 9 57.4019C9 57.3833 9 57.3647 9 57.3462C9 57.3277 9 57.3093 9 57.2908C9 57.2724 9 57.2541 9 57.2357C9 57.2174 9 57.1992 9 57.1809C9 57.1627 9 57.1446 9 57.1264C9 57.1083 9 57.0902 9 57.0722C9 57.0542 9 57.0362 9 57.0183C9 57.0004 9 56.9825 9 56.9647C9 56.9469 9 56.9291 9 56.9114C9 56.8937 9 56.876 9 56.8584C9 56.8408 9 56.8232 9 56.8057C9 56.7882 9 56.7707 9 56.7533C9 56.7358 9 56.7185 9 56.7012C9 56.6839 9 56.6666 9 56.6494C9 56.6322 9 56.615 9 56.5979C9 56.5808 9 56.5637 9 56.5467C9 56.5297 9 56.5128 9 56.4959C9 56.479 9 56.4621 9 56.4453C9 56.4285 9 56.4118 9 56.3951C9 56.3784 9 56.3617 9 56.3451C9 56.3286 9 56.312 9 56.2955C9 56.2791 9 56.2626 9 56.2462C9 56.2299 9 56.2135 9 56.1973C9 56.181 9 56.1648 9 56.1486C9 56.1325 9 56.1163 9 56.1003C9 56.0842 9 56.0682 9 56.0523C9 56.0363 9 56.0204 9 56.0046C9 55.9887 9 55.973 9 55.9572C9 55.9415 9 55.9258 9 55.9102C9 55.8946 9 55.879 9 55.8635C9 55.848 9 55.8325 9 55.8171C9 55.8017 9 55.7863 9 55.771C9 55.7557 9 55.7405 9 55.7253C9 55.7101 9 55.695 9 55.6799C9 55.6649 9 55.6498 9 55.6349C9 55.6199 9 55.605 9 55.5902C9 55.5753 9 55.5605 9 55.5458C9 55.531 9 55.5163 9 55.5017C9 55.4871 9 55.4725 9 55.458C9 55.4435 9 55.429 9 55.4146C9 55.4002 9 55.3859 9 55.3716C9 55.3573 9 55.3431 9 55.3289C9 55.3147 9 55.3006 9 55.2866C9 55.2725 9 55.2585 9 55.2446C9 55.2306 9 55.2167 9 55.2029C9 55.1891 9 55.1753 9 55.1616C9 55.1479 9 55.1342 9 55.1206C9 55.1071 9 55.0935 9 55.08C9 55.0666 9 55.0531 9 55.0398C9 55.0264 9 55.0131 9 54.9999C9 54.9866 9 54.9734 9 54.9603C9 54.9472 9 54.9341 9 54.9211C9 54.9081 9 54.8952 9 54.8823C9 54.8694 9 54.8566 9 54.8438C9 54.831 9 54.8183 9 54.8057C9 54.793 9 54.7804 9 54.7679C9 54.7554 9 54.7429 9 54.7305C9 54.7181 9 54.7057 9 54.6935C9 54.6812 9 54.6689 9 54.6568C9 54.6446 9 54.6325 9 54.6205C9 54.6084 9 54.5964 9 54.5845C9 54.5726 9 54.5607 9 54.5489C9 54.5371 9 54.5254 9 54.5137C9 54.502 9 54.4904 9 54.4789C9 54.4673 9 54.4558 9 54.4444C9 54.433 9 54.4216 9 54.4103C9 54.399 9 54.3877 9 54.3766C9 54.3654 9 54.3543 9 54.3432C9 54.3322 9 54.3212 9 54.3102C9 54.2993 9 54.2884 9 54.2776C9 54.2668 9 54.2561 9 54.2454C9 54.2347 9 54.2241 9 54.2136C9 54.203 9 54.1925 9 54.1821C9 54.1717 9 54.1613 9 54.151C9 54.1407 9 54.1305 9 54.1203C9 54.1102 9 54.1001 9 54.09C9 54.08 9 54.07 9 54.0601C9 54.0502 9 54.0404 9 54.0306C9 54.0208 9 54.0111 9 54.0014C9 53.9918 9 53.9822 9 53.9727C9 53.9632 9 53.9537 9 53.9443C9 53.9349 9 53.9256 9 53.9163C9 53.9071 9 53.8979 9 53.8888C9 53.8796 9 53.8706 9 53.8616C9 53.8526 9 53.8437 9 53.8348C9 53.8259 9 53.8171 9 53.8084C9 53.7997 9 53.791 9 53.7824C9 53.7738 9 53.7653 9 53.7568C9 53.7484 9 53.74 9 53.7316C9 53.7233 9 53.715 9 53.7068C9 53.6986 9 53.6905 9 53.6825C9 53.6744 9 53.6664 9 53.6585C9 53.6505 9 53.6427 9 53.6349C9 53.6271 9 53.6194 9 53.6117C9 53.6041 9 53.5965 9 53.589C9 53.5815 9 53.574 9 53.5666C9 53.5593 9 53.5519 9 53.5447C9 53.5375 9 53.5303 9 53.5232C9 53.5161 9 53.509 9 53.5021C9 53.4951 9 53.4882 9 53.4814C9 53.4745 9 53.4678 9 53.4611C9 53.4544 9 53.4478 9 53.4412C9 53.4347 9 53.4282 9 53.4218C9 53.4154 9 53.409 9 53.4028C9 53.3965 9 53.3903 9 53.3842C9 53.3781 9 53.372 9 53.366C9 53.36 9 53.3541 9 53.3483C9 53.3424 9 53.3366 9 53.3309C9 53.3252 9 53.3196 9 53.314C9 53.3085 9 53.303 9 53.2976C9 53.2921 9 53.2868 9 53.2815C9 53.2762 9 53.271 9 53.2659C9 53.2608 9 53.2557 9 53.2507C9 53.2457 9 53.2408 9 53.236C9 53.2311 9 53.2263 9 53.2216C9 53.2169 9 53.2123 9 53.2078C9 53.2032 9 53.1987 9 53.1943C9 53.1899 9 53.1856 9 53.1813C9 53.1771 9 53.1729 9 53.1688C9 53.1646 9 53.1606 9 53.1566C9 53.1527 9 53.1488 9 53.1449C9 53.1411 9 53.1374 9 53.1337C9 53.13 9 53.1264 9 53.1229C9 53.1194 9 53.1159 9 53.1125C9 53.1092 9 53.1059 9 53.1026C9 53.0994 9 53.0963 9 53.0932C9 53.0901 9 53.0871 9 53.0842C9 53.0812 9 53.0784 9 53.0756C9 53.0728 9 53.0701 9 53.0675C9 53.0649 9 53.0623 9 53.0598C9 53.0574 9 53.055 9 53.0527C9 53.0503 9 53.0481 9 53.0459C9 53.0437 9 53.0416 9 53.0396C9 53.0376 9 53.0357 9 53.0338C9 53.0319 9 53.0301 9 53.0284C9 53.0267 9 53.0251 9 53.0235C9 53.0219 9 53.0205 9 53.0191C9 53.0177 9 53.0163 9 53.0151C9 53.0138 9 53.0126 9 53.0115C9 53.0105 9 53.0094 9 53.0085C9 53.0075 9 53.0067 9 53.0059C9 53.0051 9 53.0044 9 53.0038C9 53.0032 9 53.0026 9 53.0021C9 53.0017 9 53.0013 9 53.0009C9 53.0006 9 53.0004 9 53.0002C9 53.0001 9 53 8 53Z" fill="black"/>
</svg>
