<svg width="364" height="2449" viewBox="0 0 364 2449" fill="none" xmlns="http://www.w3.org/2000/svg">
<path d="M362 2445.5C362.828 2445.5 363.5 2446.17 363.5 2447C363.5 2447.83 362.828 2448.5 362 2448.5V2445.5ZM274.683 10.9393C275.269 11.5251 275.269 12.4749 274.683 13.0607L265.137 22.6066C264.552 23.1924 263.602 23.1924 263.016 22.6066C262.43 22.0208 262.43 21.0711 263.016 20.4853L271.501 12L263.016 3.51472C262.43 2.92893 262.43 1.97919 263.016 1.3934C263.602 0.807611 264.552 0.807611 265.137 1.3934L274.683 10.9393ZM362 2448.5H22V2445.5H362V2448.5ZM0.5 2427V32.0001H3.5V2427H0.5ZM22 10.5H273.623V13.5H22V10.5ZM0.5 32.0001C0.5 20.126 10.1259 10.5 22 10.5V13.5C11.7827 13.5 3.5 21.7828 3.5 32.0001H0.5ZM22 2448.5C10.1259 2448.5 0.5 2438.87 0.5 2427H3.5C3.5 2437.22 11.7827 2445.5 22 2445.5V2448.5Z" fill="black"/>
</svg>
