<svg width="53" height="299" viewBox="0 0 53 299" fill="none" xmlns="http://www.w3.org/2000/svg">
<path d="M0.93934 10.9393C0.353553 11.5251 0.353553 12.4749 0.93934 13.0607L10.4853 22.6066C11.0711 23.1924 12.0208 23.1924 12.6066 22.6066C13.1924 22.0208 13.1924 21.0711 12.6066 20.4853L4.12132 12L12.6066 3.51472C13.1924 2.92893 13.1924 1.97919 12.6066 1.3934C12.0208 0.807611 11.0711 0.807611 10.4853 1.3934L0.93934 10.9393ZM39.9393 298.061C40.5251 298.646 41.4749 298.646 42.0607 298.061L51.6066 288.515C52.1924 287.929 52.1924 286.979 51.6066 286.393C51.0208 285.808 50.0711 285.808 49.4853 286.393L41 294.879L32.5147 286.393C31.9289 285.808 30.9792 285.808 30.3934 286.393C29.8076 286.979 29.8076 287.929 30.3934 288.515L39.9393 298.061ZM2 13.5H21V10.5H2V13.5ZM39.5 32V297H42.5V32H39.5ZM21 13.5C31.2173 13.5 39.5 21.7827 39.5 32H42.5C42.5 20.1259 32.8741 10.5 21 10.5V13.5Z" fill="black"/>
</svg>
