<svg width="476" height="8042" viewBox="0 0 476 8042" fill="none" xmlns="http://www.w3.org/2000/svg">
<path d="M12 7978.5H10.5V7977H12V7978.5ZM13.0607 8041.06C12.4749 8041.65 11.5251 8041.65 10.9393 8041.06L1.3934 8031.51C0.807617 8030.93 0.807617 8029.98 1.3934 8029.39C1.97919 8028.81 2.92892 8028.81 3.51471 8029.39L12 8037.88L20.4853 8029.39C21.0711 8028.81 22.0208 8028.81 22.6066 8029.39C23.1924 8029.98 23.1924 8030.93 22.6066 8031.51L13.0607 8041.06ZM377 0.5H454V3.5H377V0.5ZM475.5 22V7958.5H472.5V22H475.5ZM454 7980H12V7977H454V7980ZM13.5 7978.5V8040H10.5V7978.5H13.5ZM475.5 7958.5C475.5 7970.37 465.874 7980 454 7980V7977C464.217 7977 472.5 7968.72 472.5 7958.5H475.5ZM454 0.5C465.874 0.5 475.5 10.1259 475.5 22H472.5C472.5 11.7827 464.217 3.5 454 3.5V0.5Z" fill="black"/>
</svg>
