<svg width="352" height="1676" viewBox="0 0 352 1676" fill="none" xmlns="http://www.w3.org/2000/svg">
<path d="M350 3.5C350.828 3.5 351.5 2.82849 351.5 2C351.5 1.17163 350.828 0.5 350 0.5V3.5ZM265.629 1665.06C266.215 1664.47 266.215 1663.53 265.629 1662.94L256.083 1653.39C255.498 1652.81 254.548 1652.81 253.962 1653.39C253.376 1653.98 253.376 1654.93 253.962 1655.51L262.447 1664L253.962 1672.49C253.376 1673.07 253.376 1674.02 253.962 1674.61C254.548 1675.19 255.498 1675.19 256.083 1674.61L265.629 1665.06ZM350 0.5H22V3.5H350V0.5ZM0.5 22V1644H3.5V22H0.5ZM22 1665.5H264.569V1662.5H22V1665.5ZM0.5 1644C0.5 1655.87 10.1259 1665.5 22 1665.5V1662.5C11.7827 1662.5 3.5 1654.22 3.5 1644H0.5ZM22 0.5C10.1259 0.5 0.5 10.1259 0.5 22H3.5C3.5 11.7827 11.7827 3.5 22 3.5V0.5Z" fill="black"/>
</svg>
