<svg width="217" height="112" viewBox="0 0 217 112" fill="none" xmlns="http://www.w3.org/2000/svg">
<path d="M51.2749 21.5925L56.9459 15.2009L52.6893 10.3959C51.1969 8.75913 49.1927 7.85042 47.1104 7.86642C45.028 7.88242 43.035 8.82183 41.5625 10.4814C40.0901 12.141 39.2566 14.3872 39.2424 16.7342C39.2282 19.0811 40.0344 21.34 41.4867 23.022L50.4714 33.1334C49.3672 31.4157 48.8416 29.311 48.9889 27.1963C49.1361 25.0816 49.9465 23.0951 51.2749 21.5925V21.5925Z" fill="#65CDF0"/>
<path d="M72.3846 10.3949C70.899 8.72076 68.8841 7.78027 66.7833 7.78027C64.6825 7.78027 62.6676 8.72076 61.182 10.3949L56.9453 15.1998L62.623 21.5915C63.9534 23.0922 64.7662 25.0778 64.9159 27.1925C65.0656 29.3072 64.5423 31.4129 63.4398 33.1323L72.3846 23.021C73.87 21.3466 74.7045 19.0757 74.7045 16.7079C74.7045 14.3401 73.87 12.0693 72.3846 10.3949V10.3949Z" fill="#F7B923"/>
<path d="M62.6239 21.5909L56.9462 15.1992L51.2752 21.5909C49.9468 23.0934 49.1364 25.08 48.9891 27.1946C48.8419 29.3093 49.3675 31.414 50.4716 33.1317L51.4345 34.217C52.1558 35.0445 53.0162 35.7018 53.9654 36.1505C54.9145 36.5992 55.9335 36.8303 56.9628 36.8303C57.9921 36.8303 59.0111 36.5992 59.9602 36.1505C60.9094 35.7018 61.7698 35.0445 62.4911 34.217L63.4539 33.1317C64.5548 31.4106 65.0758 29.3039 64.9237 27.1891C64.7716 25.0743 63.9563 23.0897 62.6239 21.5909V21.5909Z" fill="#EE2E7E"/>
<path d="M2.04817 8.85308C3.37144 6.12119 5.35062 3.86458 7.75906 2.34169C10.2994 0.758078 13.1638 -0.0470706 16.0664 0.00657428C19.5528 -0.0998721 22.9735 1.08883 25.8015 3.3895C28.508 5.66024 30.423 8.92816 31.2135 12.6252H22.6605C22.0894 11.1978 21.1468 9.99974 19.9578 9.18987C18.751 8.39136 17.3726 7.98227 15.9734 8.00735C14.8782 7.96505 13.7882 8.19605 12.7815 8.68383C11.7747 9.17161 10.876 9.90411 10.1497 10.8289C8.66217 12.705 7.91843 15.2173 7.91843 18.3657C7.91843 21.5166 8.66217 24.0239 10.1497 25.9099C10.8763 26.8338 11.7753 27.5652 12.7821 28.0517C13.7889 28.5382 14.8787 28.7678 15.9734 28.724C17.372 28.7518 18.7505 28.3452 19.9578 27.549C21.1468 26.7391 22.0894 25.5411 22.6605 24.1137H31.2135C30.4262 27.806 28.5071 31.0663 25.7948 33.3194C22.9649 35.6075 19.5479 36.7879 16.0664 36.6799C13.1644 36.7358 10.3 35.9333 7.75906 34.3523C5.35443 32.8338 3.37587 30.5857 2.04817 27.8633C0.653377 24.9482 -0.0510565 21.6771 0.00288012 18.3657C-0.0482683 15.0499 0.655927 11.7747 2.04817 8.85308V8.85308Z" fill="#4E132C"/>
<path d="M96.2925 8.85289C97.669 7.94338 99.239 7.47256 100.835 7.49074V16.7713H98.6964C96.7573 16.7713 95.303 17.2404 94.3335 18.1784C93.364 19.1164 92.877 20.7655 92.8726 23.1256V36.4178H85.0898V7.80508H92.8726V12.5726C93.7399 11.0494 94.911 9.77558 96.2925 8.85289V8.85289Z" fill="#4E132C"/>
<path d="M137.461 24.2106H119.857C119.884 25.7392 120.428 27.1986 121.378 28.2895C122.276 29.2348 123.47 29.7407 124.698 29.6966C125.544 29.7664 126.388 29.5381 127.114 29.0433C127.84 28.5485 128.411 27.8117 128.749 26.9349H137.03C136.612 28.7995 135.827 30.534 134.732 32.0093C133.601 33.5304 132.177 34.741 130.568 35.5494C128.806 36.4249 126.896 36.8614 124.971 36.8292C122.657 36.8774 120.372 36.2591 118.33 35.0329C116.401 33.8697 114.812 32.1021 113.755 29.9436C112.627 27.5442 112.065 24.8591 112.121 22.1449C112.066 19.4358 112.621 16.7552 113.735 14.3537C114.766 12.1813 116.341 10.3985 118.264 9.2269C120.321 7.99701 122.622 7.37878 124.951 7.43066C127.221 7.3728 129.468 7.95962 131.485 9.13709C133.373 10.2722 134.929 11.998 135.967 14.1067C137.078 16.4206 137.634 19.0209 137.581 21.6509C137.586 22.506 137.546 23.3607 137.461 24.2106V24.2106ZM129.639 19.3383C129.669 18.6583 129.561 17.9794 129.324 17.3532C129.087 16.7269 128.727 16.1696 128.271 15.7233C127.312 14.8239 126.09 14.3596 124.844 14.421C123.636 14.3726 122.453 14.8282 121.524 15.7009C120.587 16.6377 119.992 17.9345 119.857 19.3383H129.639Z" fill="#4E132C"/>
<path d="M128.086 83.135L133.757 76.7434L129.494 71.9459C128.007 70.2716 125.992 69.3313 123.89 69.332C121.789 69.3327 119.773 70.2743 118.288 71.9496C116.802 73.6249 115.968 75.8968 115.969 78.2653C115.969 80.6339 116.805 82.9052 118.291 84.5795L127.269 94.6983C126.163 92.9765 125.637 90.8664 125.787 88.747C125.936 86.6276 126.752 84.6378 128.086 83.135V83.135Z" fill="#65CDF0"/>
<path d="M149.224 71.9457C147.738 70.2715 145.723 69.3311 143.622 69.3311C141.522 69.3311 139.507 70.2715 138.021 71.9457L133.758 76.7431L139.429 83.1348C140.76 84.6367 141.573 86.6236 141.723 88.7396C141.872 90.8556 141.349 92.9625 140.246 94.6831L149.224 84.5793C149.96 83.75 150.544 82.7653 150.943 81.6814C151.342 80.5976 151.547 79.4358 151.547 78.2625C151.547 77.0892 151.342 75.9274 150.943 74.8435C150.544 73.7596 149.96 72.7749 149.224 71.9457Z" fill="#F7B923"/>
<path d="M139.454 83.1358L133.783 76.7441L128.112 83.1358C126.781 84.6377 125.968 86.6246 125.818 88.7406C125.668 90.8566 126.192 92.9635 127.295 94.6841L128.251 95.7619C128.974 96.5888 129.835 97.2454 130.784 97.6936C131.734 98.1418 132.753 98.3727 133.783 98.3727C134.812 98.3727 135.832 98.1418 136.781 97.6936C137.731 97.2454 138.592 96.5888 139.314 95.7619L140.271 94.6841C141.374 92.9635 141.897 90.8566 141.747 88.7406C141.598 86.6246 140.785 84.6377 139.454 83.1358V83.1358Z" fill="#EE2E7E"/>
<path d="M7.78664 91.1958H17.9799V97.9317H0.00390625V61.9619H7.78664V91.1958Z" fill="#4E132C"/>
<path d="M31.3796 65.0152C30.9551 64.5972 30.6165 64.0801 30.3872 63.4998C30.1578 62.9195 30.0433 62.2899 30.0514 61.6547C30.041 61.0126 30.1544 60.3756 30.3837 59.7876C30.613 59.1997 30.9528 58.6748 31.3796 58.2493C32.2878 57.3274 33.4783 56.839 34.6998 56.8872C35.9225 56.8309 37.1156 57.3204 38.0201 58.2493C38.4445 58.677 38.7826 59.2023 39.0117 59.7897C39.2408 60.3772 39.3556 61.0131 39.3482 61.6547C39.3551 62.2897 39.2399 62.9188 39.0107 63.4989C38.7814 64.0789 38.4435 64.5962 38.0201 65.0152C37.1156 65.9441 35.9225 66.4336 34.6998 66.3773C33.4783 66.4255 32.2878 65.9372 31.3796 65.0152V65.0152ZM38.5912 69.3486V97.9688H30.8085V69.3486H38.5912Z" fill="#4E132C"/>
<path d="M64.2491 70.1738C65.6964 69.329 67.3078 68.9045 68.9374 68.9389C70.9476 68.9128 72.9225 69.5361 74.6283 70.7352C76.3671 71.9885 77.7608 73.764 78.6525 75.862C79.6287 78.3002 80.1335 80.9445 80.1335 83.6195C80.1335 86.2944 79.6287 88.9388 78.6525 91.377C77.7618 93.4895 76.3688 95.2823 74.6283 96.5562C72.9269 97.769 70.9503 98.4006 68.9374 98.3749C67.3108 98.4183 65.7001 98.0069 64.2491 97.1774C62.97 96.431 61.8835 95.325 61.0948 93.9666V97.9707H53.332V60.0176H61.0948V73.3996C61.8692 72.0236 62.959 70.9091 64.2491 70.1738V70.1738ZM70.5975 78.4515C70.0853 77.8446 69.4664 77.3648 68.7803 77.0426C68.0943 76.7204 67.3562 76.563 66.6132 76.5804C65.8751 76.5677 65.143 76.7304 64.4645 77.058C63.786 77.3855 63.1763 77.8706 62.6753 78.4815C61.631 79.9511 61.062 81.7778 61.062 83.6606C61.062 85.5435 61.631 87.3702 62.6753 88.8398C63.1845 89.4424 63.797 89.9221 64.4756 90.2499C65.1542 90.5776 65.8848 90.7466 66.6231 90.7466C67.3614 90.7466 68.092 90.5776 68.7706 90.2499C69.4493 89.9221 70.0617 89.4424 70.5709 88.8398C71.1371 88.1317 71.573 87.304 71.8534 86.4047C72.1338 85.5054 72.2531 84.5524 72.2045 83.6008C72.2515 82.6654 72.1338 81.7288 71.8579 80.845C71.5821 79.9612 71.1537 79.1477 70.5975 78.4515V78.4515Z" fill="#4E132C"/>
<path d="M104.517 70.4018C105.898 69.4904 107.473 69.0195 109.073 69.0397V78.3203H106.915C104.967 78.3203 103.51 78.7918 102.545 79.7348C101.569 80.6704 101.084 82.3244 101.084 84.682V97.9667H93.3281V69.3465H101.104V74.0991C101.971 72.5843 103.14 71.3184 104.517 70.4018V70.4018Z" fill="#4E132C"/>
<path d="M173.094 70.4018C174.473 69.4903 176.045 69.0194 177.643 69.0397V78.3203H175.505C173.557 78.3203 172.101 78.7918 171.135 79.7348C170.166 80.6704 169.681 82.3244 169.681 84.682V97.9667H161.898V69.3466H169.681V74.0991C170.547 72.5828 171.716 71.3164 173.094 70.4018V70.4018Z" fill="#4E132C"/>
<path d="M216.412 69.3477L200.475 111.552H192.114L197.938 96.9874L187.605 69.3477H196.298L202.168 87.2427L207.992 69.3477H216.412Z" fill="#4E132C"/>
</svg>
