<svg width="1325" height="585" viewBox="0 0 1325 585" fill="none" xmlns="http://www.w3.org/2000/svg">
<g opacity="0.25">
<path d="M314.256 113.066L348.955 79.597L322.911 54.4361C313.779 45.8652 301.516 41.1068 288.775 41.1905C276.034 41.2743 263.84 46.1935 254.83 54.8838C245.821 63.574 240.721 75.3364 240.634 87.626C240.547 99.9156 245.48 111.744 254.366 120.552L309.34 173.499C302.584 164.505 299.368 153.484 300.269 142.41C301.17 131.337 306.128 120.935 314.256 113.066V113.066Z" fill="#65CDF0" fill-opacity="0.2"/>
<path d="M443.42 54.4295C434.33 45.6631 422.002 40.7383 409.148 40.7383C396.294 40.7383 383.966 45.6631 374.876 54.4295L348.953 79.5904L383.693 113.06C391.833 120.918 396.806 131.315 397.722 142.389C398.638 153.463 395.436 164.489 388.69 173.493L443.42 120.545C452.509 111.777 457.614 99.8862 457.614 87.4874C457.614 75.0886 452.509 63.1976 443.42 54.4295V54.4295Z" fill="#F7B923" fill-opacity="0.2"/>
<path d="M383.692 113.056L348.952 79.5869L314.253 113.056C306.125 120.925 301.167 131.327 300.266 142.4C299.365 153.474 302.581 164.495 309.337 173.489L315.228 179.172C319.642 183.506 324.906 186.948 330.713 189.297C336.521 191.647 342.756 192.857 349.054 192.857C355.351 192.857 361.586 191.647 367.394 189.297C373.201 186.948 378.465 183.506 382.879 179.172L388.77 173.489C395.506 164.477 398.694 153.445 397.763 142.371C396.833 131.297 391.844 120.905 383.692 113.056V113.056Z" fill="#EE2E7E" fill-opacity="0.2"/>
<path d="M13.0554 46.3586C21.1519 32.0532 33.2618 20.2366 47.9981 12.2621C63.5414 3.96963 81.0674 -0.246482 98.8275 0.0344258C120.16 -0.522974 141.09 5.70158 158.393 17.7489C174.953 29.6395 186.67 46.7518 191.507 66.111H139.174C135.68 58.6365 129.912 52.363 122.637 48.1222C115.254 43.9408 106.82 41.7986 98.2587 41.93C91.5575 41.7085 84.8884 42.9181 78.7283 45.4723C72.5682 48.0266 67.0694 51.8623 62.6253 56.7051C53.5239 66.5291 48.9732 79.6843 48.9732 96.1708C48.9732 112.67 53.5239 125.799 62.6253 135.676C67.0715 140.514 72.5716 144.343 78.7319 146.891C84.8922 149.438 91.5603 150.641 98.2587 150.412C106.816 150.557 115.25 148.428 122.637 144.259C129.912 140.018 135.68 133.744 139.174 126.27H191.507C186.689 145.605 174.947 162.677 158.352 174.475C141.037 186.457 120.129 192.637 98.8275 192.072C81.0711 192.365 63.5453 188.162 47.9981 179.883C33.2851 171.932 21.179 160.16 13.0554 145.905C4.5212 130.64 0.211043 113.511 0.54106 96.1708C0.228103 78.8077 4.5368 61.6573 13.0554 46.3586V46.3586Z" fill="#4E132C" fill-opacity="0.2"/>
<path d="M589.693 46.3572C598.116 41.5946 607.722 39.1291 617.485 39.2243V87.8216H604.401C592.537 87.8216 583.639 90.2776 577.707 95.1896C571.775 100.102 568.795 108.737 568.768 121.095V190.699H521.148V40.8704H568.768V65.8353C574.074 57.8588 581.24 51.1887 589.693 46.3572V46.3572Z" fill="#4E132C" fill-opacity="0.2"/>
<path d="M841.603 126.774H733.89C734.05 134.779 737.379 142.421 743.194 148.133C748.69 153.083 755.995 155.732 763.51 155.501C768.686 155.867 773.851 154.671 778.292 152.08C782.732 149.49 786.228 145.631 788.295 141.04H838.962C836.406 150.804 831.601 159.886 824.903 167.612C817.981 175.577 809.269 181.916 799.428 186.149C788.643 190.734 776.96 193.02 765.176 192.851C751.023 193.103 737.037 189.866 724.545 183.445C712.742 177.353 703.02 168.098 696.55 156.795C689.653 144.231 686.211 130.17 686.555 115.957C686.216 101.771 689.613 87.7345 696.428 75.1591C702.737 63.7838 712.373 54.4482 724.138 48.3131C736.726 41.8728 750.808 38.6355 765.054 38.9071C778.947 38.6042 792.696 41.677 805.035 47.8428C816.585 53.7869 826.109 62.8237 832.461 73.8658C839.256 85.9825 842.659 99.5985 842.334 113.371C842.363 117.848 842.118 122.324 841.603 126.774V126.774ZM793.739 101.261C793.923 97.6997 793.265 94.1452 791.815 90.8658C790.365 87.5864 788.161 84.6679 785.369 82.3311C779.504 77.6216 772.028 75.1902 764.404 75.5119C757.008 75.2579 749.774 77.6441 744.088 82.2136C738.353 87.1193 734.717 93.9096 733.89 101.261H793.739Z" fill="#4E132C" fill-opacity="0.2"/>
<path d="M784.235 435.335L818.934 401.866L792.849 376.744C783.754 367.976 771.42 363.053 758.562 363.057C745.704 363.06 733.373 367.991 724.284 376.764C715.194 385.536 710.09 397.433 710.094 409.835C710.098 422.238 715.209 434.131 724.304 442.899L779.237 495.886C772.467 486.869 769.25 475.82 770.166 464.722C771.082 453.624 776.071 443.204 784.235 435.335V435.335Z" fill="#65CDF0" fill-opacity="0.2"/>
<path d="M913.559 376.738C904.469 367.972 892.141 363.047 879.287 363.047C866.433 363.047 854.105 367.972 845.015 376.738L818.93 401.86L853.629 435.329C861.772 443.194 866.747 453.598 867.663 464.678C868.578 475.759 865.375 486.792 858.626 495.801L913.559 442.893C918.066 438.551 921.64 433.395 924.079 427.719C926.518 422.043 927.774 415.96 927.774 409.816C927.774 403.672 926.518 397.588 924.079 391.912C921.64 386.237 918.066 381.08 913.559 376.738Z" fill="#F7B923" fill-opacity="0.2"/>
<path d="M853.788 435.336L819.09 401.866L784.391 435.336C776.247 443.2 771.272 453.604 770.357 464.685C769.441 475.765 772.644 486.798 779.393 495.808L785.244 501.451C789.664 505.781 794.932 509.22 800.743 511.567C806.553 513.914 812.79 515.123 819.09 515.123C825.389 515.123 831.626 513.914 837.436 511.567C843.247 509.22 848.515 505.781 852.935 501.451L858.786 495.808C865.535 486.798 868.738 475.765 867.822 464.685C866.907 453.604 861.932 443.2 853.788 435.336V435.336Z" fill="#EE2E7E" fill-opacity="0.2"/>
<path d="M48.1664 477.539H110.535V512.812H0.546875V324.458H48.1664V477.539Z" fill="#4E132C" fill-opacity="0.2"/>
<path d="M192.521 340.447C189.924 338.258 187.852 335.55 186.449 332.512C185.046 329.473 184.345 326.176 184.395 322.85C184.331 319.488 185.024 316.152 186.427 313.073C187.83 309.994 189.909 307.246 192.521 305.018C198.078 300.19 205.362 297.633 212.836 297.885C220.318 297.591 227.617 300.154 233.152 305.018C235.749 307.258 237.817 310.008 239.219 313.084C240.621 316.16 241.323 319.49 241.278 322.85C241.32 326.175 240.615 329.469 239.213 332.507C237.81 335.544 235.742 338.253 233.152 340.447C227.617 345.311 220.318 347.874 212.836 347.58C205.362 347.832 198.078 345.275 192.521 340.447V340.447ZM236.646 363.139V513.006H189.027V363.139H236.646Z" fill="#4E132C" fill-opacity="0.2"/>
<path d="M393.649 367.461C402.504 363.037 412.364 360.814 422.334 360.994C434.635 360.858 446.718 364.122 457.155 370.4C467.794 376.963 476.322 386.261 481.778 397.246C487.751 410.014 490.84 423.861 490.84 437.868C490.84 451.875 487.751 465.722 481.778 478.49C476.328 489.552 467.804 498.94 457.155 505.61C446.745 511.961 434.651 515.269 422.334 515.134C412.382 515.361 402.527 513.207 393.649 508.863C385.823 504.955 379.175 499.164 374.349 492.05V513.018H326.852V314.278H374.349V384.352C379.087 377.147 385.755 371.311 393.649 367.461V367.461ZM432.492 410.807C429.358 407.629 425.571 405.116 421.374 403.429C417.176 401.742 412.66 400.918 408.114 401.009C403.598 400.942 399.118 401.794 394.967 403.509C390.815 405.224 387.085 407.764 384.019 410.963C377.63 418.659 374.148 428.224 374.148 438.084C374.148 447.943 377.63 457.509 384.019 465.204C387.135 468.359 390.882 470.871 395.035 472.588C399.187 474.304 403.657 475.189 408.175 475.189C412.692 475.189 417.162 474.304 421.314 472.588C425.467 470.871 429.214 468.359 432.33 465.204C435.794 461.496 438.461 457.162 440.176 452.453C441.892 447.744 442.622 442.753 442.325 437.77C442.613 432.872 441.892 427.968 440.204 423.34C438.517 418.712 435.896 414.452 432.492 410.807V410.807Z" fill="#4E132C" fill-opacity="0.2"/>
<path d="M640.034 368.658C648.482 363.885 658.117 361.419 667.906 361.525V410.122H654.701C642.783 410.122 633.871 412.591 627.966 417.529C621.993 422.428 619.027 431.089 619.027 443.435V512.999H571.57V363.132H619.149V388.018C624.455 380.086 631.606 373.457 640.034 368.658V368.658Z" fill="#4E132C" fill-opacity="0.2"/>
<path d="M1059.63 368.658C1068.06 363.884 1077.68 361.418 1087.46 361.525V410.122H1074.38C1062.46 410.122 1053.55 412.591 1047.64 417.529C1041.71 422.428 1038.74 431.089 1038.74 443.435V512.999H991.125V363.132H1038.74V388.018C1044.04 380.078 1051.19 373.447 1059.63 368.658V368.658Z" fill="#4E132C" fill-opacity="0.2"/>
<path d="M1324.66 363.133L1227.15 584.133H1175.99L1211.63 507.866L1148.41 363.133H1201.59L1237.51 456.839L1273.14 363.133H1324.66Z" fill="#4E132C" fill-opacity="0.2"/>
</g>
</svg>
