<svg width="133" height="1612" viewBox="0 0 133 1612" fill="none" xmlns="http://www.w3.org/2000/svg">
<path d="M121 1551V1549.5H122.5V1551H121ZM122.061 1611.56C121.475 1612.15 120.525 1612.15 119.939 1611.56L110.393 1602.01C109.808 1601.43 109.808 1600.48 110.393 1599.89C110.979 1599.31 111.929 1599.31 112.515 1599.89L121 1608.38L129.485 1599.89C130.071 1599.31 131.021 1599.31 131.607 1599.89C132.192 1600.48 132.192 1601.43 131.607 1602.01L122.061 1611.56ZM77.5 3.5H22V0.5H77.5V3.5ZM3.5 22V1531H0.5V22H3.5ZM22 1549.5H121V1552.5H22V1549.5ZM122.5 1551V1610.5H119.5V1551H122.5ZM3.5 1531C3.5 1541.22 11.7827 1549.5 22 1549.5V1552.5C10.1259 1552.5 0.5 1542.87 0.5 1531H3.5ZM22 3.5C11.7827 3.5 3.5 11.7827 3.5 22H0.5C0.5 10.1259 10.1259 0.5 22 0.5V3.5Z" fill="black"/>
</svg>
