<svg width="458" height="79" viewBox="0 0 458 79" fill="none" xmlns="http://www.w3.org/2000/svg">
<path d="M3.5 2C3.5 1.17157 2.82843 0.5 2 0.5C1.17157 0.5 0.5 1.17157 0.5 2H3.5ZM447.061 50.0773C446.475 49.4915 445.525 49.4915 444.939 50.0773L435.393 59.6232C434.808 60.209 434.808 61.1587 435.393 61.7445C435.979 62.3303 436.929 62.3303 437.515 61.7445L446 53.2593L454.485 61.7445C455.071 62.3303 456.021 62.3303 456.607 61.7445C457.192 61.1587 457.192 60.209 456.607 59.6232L447.061 50.0773ZM0.5 2V57H3.5V2H0.5ZM22 78.5H426V75.5H22V78.5ZM447.5 57V51.1379H444.5V57H447.5ZM426 78.5C437.874 78.5 447.5 68.8741 447.5 57H444.5C444.5 67.2173 436.217 75.5 426 75.5V78.5ZM0.5 57C0.5 68.8741 10.1259 78.5 22 78.5V75.5C11.7827 75.5 3.5 67.2173 3.5 57H0.5Z" fill="black"/>
</svg>
