<svg width="417" height="2586" viewBox="0 0 417 2586" fill="none" xmlns="http://www.w3.org/2000/svg">
<path d="M255 2559.5V2558H256.5V2559.5H255ZM256.061 2585.56C255.475 2586.15 254.525 2586.15 253.939 2585.56L244.393 2576.01C243.808 2575.43 243.808 2574.48 244.393 2573.89C244.979 2573.31 245.929 2573.31 246.515 2573.89L255 2582.38L263.485 2573.89C264.071 2573.31 265.021 2573.31 265.607 2573.89C266.192 2574.48 266.192 2575.43 265.607 2576.01L256.061 2585.56ZM3.04782 64.5441L8.95239 2539.54L5.95239 2539.55L0.047821 64.5513L3.04782 64.5441ZM413.5 24.5V0.5H416.5V24.5H413.5ZM27.4523 2558H255V2561H27.4523V2558ZM256.5 2559.5V2584.5H253.5V2559.5H256.5ZM395 46H208.25V43H395V46ZM208.25 46H21.5478V43H208.25V46ZM8.95239 2539.54C8.97672 2549.74 17.2523 2558 27.4523 2558V2561C15.5982 2561 5.98068 2551.41 5.95239 2539.55L8.95239 2539.54ZM0.047821 64.5513C0.0194702 52.6572 9.65363 43 21.5478 43V46C11.3133 46 3.02341 54.3097 3.04782 64.5441L0.047821 64.5513ZM416.5 24.5C416.5 36.3741 406.874 46 395 46V43C405.217 43 413.5 34.7173 413.5 24.5H416.5Z" fill="black"/>
</svg>
