<svg width="17" height="17" viewBox="0 0 17 17" fill="none" xmlns="http://www.w3.org/2000/svg">
<path opacity="0.3" d="M2.39252 10.4797C1.34731 10.4797 0.5 9.63237 0.5 8.58716V8.39791C0.5 7.3527 1.34731 6.50539 2.39252 6.50539H14.6939C15.7391 6.50539 16.5865 7.3527 16.5865 8.39791V8.58716C16.5865 9.63237 15.7391 10.4797 14.6939 10.4797H2.39252ZM6.50135 2.08784C6.50135 1.04263 7.34866 0.195312 8.39387 0.195312H8.72809C9.77331 0.195312 10.6206 1.04262 10.6206 2.08784V14.8624C10.6206 15.9076 9.77331 16.7549 8.72809 16.7549H8.39387C7.34866 16.7549 6.50135 15.9076 6.50135 14.8624V2.08784Z" fill="#707070"/>
</svg>
