<svg width="15" height="15" viewBox="0 0 15 15" fill="none" xmlns="http://www.w3.org/2000/svg">
<path opacity="0.3" d="M2.46108 9.39916C1.52039 9.39916 0.757812 8.63658 0.757812 7.69589V7.69589C0.757812 6.7552 1.52039 5.99262 2.46108 5.99262H12.8429C13.7836 5.99262 14.5462 6.7552 14.5462 7.69589V7.69589C14.5462 8.63658 13.7836 9.39916 12.8429 9.39916H2.46108ZM5.90182 2.34938C5.90182 1.37438 6.69222 0.583984 7.66723 0.583984V0.583984C8.64223 0.583984 9.43263 1.37438 9.43263 2.34939V13.0125C9.43263 13.9875 8.64223 14.7779 7.66723 14.7779V14.7779C6.69222 14.7779 5.90182 13.9875 5.90182 13.0125V2.34938Z" fill="#707070"/>
</svg>
