<svg width="14" height="15" viewBox="0 0 14 15" fill="none" xmlns="http://www.w3.org/2000/svg">
<path opacity="0.3" d="M1.70327 8.81518C0.76258 8.81518 0 8.0526 0 7.11191V7.11191C0 6.17121 0.76258 5.40863 1.70327 5.40863H12.0851C13.0258 5.40863 13.7884 6.17121 13.7884 7.11191V7.11191C13.7884 8.0526 13.0258 8.81518 12.0851 8.81518H1.70327ZM5.14401 1.7654C5.14401 0.790395 5.93441 0 6.90941 0V0C7.88442 0 8.67481 0.790397 8.67481 1.7654V12.4285C8.67481 13.4035 7.88442 14.1939 6.90941 14.1939V14.1939C5.93441 14.1939 5.14401 13.4035 5.14401 12.4285V1.7654Z" fill="#707070"/>
</svg>
