<svg width="14" height="15" viewBox="0 0 14 15" fill="none" xmlns="http://www.w3.org/2000/svg">
<path opacity="0.3" d="M1.82046 8.81908C0.879767 8.81908 0.117188 8.0565 0.117188 7.11581V7.11581C0.117188 6.17512 0.879768 5.41254 1.82046 5.41254H12.2023C13.143 5.41254 13.9056 6.17512 13.9056 7.11581V7.11581C13.9056 8.0565 13.143 8.81908 12.2023 8.81908H1.82046ZM5.2612 1.76931C5.2612 0.794302 6.0516 0.00390625 7.0266 0.00390625V0.00390625C8.0016 0.00390625 8.792 0.794303 8.792 1.76931V12.4324C8.792 13.4074 8.0016 14.1978 7.0266 14.1978V14.1978C6.0516 14.1978 5.2612 13.4074 5.2612 12.4324V1.76931Z" fill="#707070"/>
</svg>
