<svg width="15" height="15" viewBox="0 0 15 15" fill="none" xmlns="http://www.w3.org/2000/svg">
<path opacity="0.3" d="M2.17983 8.9265C1.23914 8.9265 0.476562 8.16392 0.476562 7.22323V7.22323C0.476562 6.28254 1.23914 5.51996 2.17983 5.51996H12.5617C13.5024 5.51996 14.2649 6.28254 14.2649 7.22323V7.22323C14.2649 8.16392 13.5024 8.9265 12.5617 8.9265H2.17983ZM5.62057 1.87673C5.62057 0.901724 6.41097 0.111328 7.38598 0.111328V0.111328C8.36098 0.111328 9.15138 0.901725 9.15138 1.87673V12.5399C9.15138 13.5149 8.36098 14.3053 7.38598 14.3053V14.3053C6.41097 14.3053 5.62057 13.5149 5.62057 12.5399V1.87673Z" fill="#707070"/>
</svg>
