<svg width="17" height="18" viewBox="0 0 17 18" fill="none" xmlns="http://www.w3.org/2000/svg">
<path opacity="0.3" d="M2.77534 11.0061C1.73013 11.0061 0.882812 10.1587 0.882812 9.11353V8.92428C0.882812 7.87907 1.73012 7.03175 2.77534 7.03175H15.0767C16.122 7.03175 16.9693 7.87906 16.9693 8.92428V9.11353C16.9693 10.1587 16.122 11.0061 15.0767 11.0061H2.77534ZM6.88416 2.6142C6.88416 1.56899 7.73147 0.72168 8.77668 0.72168H9.11091C10.1561 0.72168 11.0034 1.56899 11.0034 2.6142V15.3887C11.0034 16.434 10.1561 17.2813 9.11091 17.2813H8.77668C7.73147 17.2813 6.88416 16.434 6.88416 15.3887V2.6142Z" fill="#707070"/>
</svg>
