<svg width="17" height="18" viewBox="0 0 17 18" fill="none" xmlns="http://www.w3.org/2000/svg">
<path opacity="0.3" d="M1.90815 11.1135C0.862938 11.1135 0.015625 10.2662 0.015625 9.22095V9.0317C0.015625 7.98649 0.862937 7.13917 1.90815 7.13917H14.2096C15.2548 7.13917 16.1021 7.98649 16.1021 9.0317V9.22095C16.1021 10.2662 15.2548 11.1135 14.2096 11.1135H1.90815ZM6.01697 2.72163C6.01697 1.67641 6.86428 0.829102 7.9095 0.829102H8.24372C9.28893 0.829102 10.1362 1.67641 10.1362 2.72163V15.4962C10.1362 16.5414 9.28893 17.3887 8.24372 17.3887H7.9095C6.86428 17.3887 6.01697 16.5414 6.01697 15.4962V2.72163Z" fill="#707070"/>
</svg>
