<svg width="1336" height="611" viewBox="0 0 1336 611" fill="none" xmlns="http://www.w3.org/2000/svg">
<g opacity="0.25">
<path d="M316.346 118.197L351.334 83.2088L325.073 56.9063C315.865 47.9465 303.5 42.9722 290.653 43.0597C277.806 43.1473 265.51 48.2897 256.425 57.3743C247.34 66.4588 242.198 78.755 242.111 91.6022C242.023 104.449 246.997 116.815 255.957 126.022L311.389 181.372C304.577 171.969 301.334 160.448 302.242 148.872C303.151 137.296 308.151 126.422 316.346 118.197V118.197Z" fill="#65CDF0" fill-opacity="0.2"/>
<path d="M446.582 56.9003C437.417 47.7361 424.986 42.5879 412.025 42.5879C399.063 42.5879 386.633 47.7361 377.467 56.9003L351.328 83.2028L386.357 118.191C394.565 126.406 399.58 137.275 400.504 148.851C401.427 160.427 398.198 171.954 391.396 181.366L446.582 126.016C455.747 116.85 460.895 104.42 460.895 91.4582C460.895 78.4969 455.747 66.0663 446.582 56.9003V56.9003Z" fill="#F7B923" fill-opacity="0.2"/>
<path d="M386.361 118.185L351.332 83.1973L316.344 118.185C308.148 126.411 303.148 137.285 302.24 148.861C301.331 160.436 304.574 171.958 311.386 181.36L317.327 187.301C321.777 191.831 327.085 195.429 332.941 197.886C338.797 200.342 345.084 201.607 351.434 201.607C357.784 201.607 364.071 200.342 369.927 197.886C375.783 195.429 381.091 191.831 385.541 187.301L391.482 181.36C398.273 171.939 401.488 160.407 400.55 148.83C399.611 137.254 394.581 126.39 386.361 118.185V118.185Z" fill="#EE2E7E" fill-opacity="0.2"/>
<path d="M12.6364 48.4621C20.8004 33.5076 33.0112 21.1548 47.8703 12.8185C63.5431 4.14975 81.2152 -0.257666 99.1233 0.0359878C120.633 -0.546703 141.738 5.96028 159.185 18.5543C175.883 30.9843 187.698 48.8731 192.575 69.1108H139.806C136.282 61.2971 130.467 54.739 123.131 50.3057C115.686 45.9346 107.182 43.6952 98.5497 43.8325C91.7927 43.601 85.068 44.8655 78.8566 47.5356C72.6452 50.2057 67.1006 54.2155 62.6193 59.2781C53.4421 69.5478 48.8535 83.2999 48.8535 100.534C48.8535 117.783 53.4421 131.507 62.6193 141.832C67.1026 146.889 72.6486 150.893 78.8602 153.556C85.0719 156.219 91.7955 157.476 98.5497 157.236C107.179 157.388 115.683 155.163 123.131 150.804C130.467 146.371 136.282 139.813 139.806 131.999H192.575C187.717 152.211 175.877 170.058 159.144 182.392C141.684 194.917 120.603 201.378 99.1233 200.787C81.2189 201.093 63.547 196.7 47.8703 188.046C33.0347 179.734 20.8277 167.427 12.6364 152.525C4.03107 136.568 -0.314998 118.661 0.0177692 100.534C-0.297796 82.3836 4.04681 64.455 12.6364 48.4621V48.4621Z" fill="#4E132C" fill-opacity="0.2"/>
<path d="M594.081 48.4612C602.573 43.4825 612.26 40.9052 622.104 41.0047V91.8071H608.912C596.948 91.8071 587.976 94.3745 581.995 99.5093C576.013 104.644 573.009 113.671 572.981 126.59V199.352H524.965V42.7255H572.981V68.8231C578.332 60.4847 585.557 53.512 594.081 48.4612V48.4612Z" fill="#4E132C" fill-opacity="0.2"/>
<path d="M848.09 132.526H739.48C739.642 140.893 742.998 148.882 748.862 154.854C754.404 160.028 761.769 162.798 769.347 162.556C774.566 162.938 779.774 161.689 784.252 158.98C788.729 156.272 792.254 152.238 794.338 147.439H845.427C842.85 157.646 838.005 167.14 831.252 175.216C824.272 183.543 815.487 190.17 805.564 194.595C794.689 199.387 782.909 201.777 771.026 201.6C756.755 201.864 742.653 198.48 730.057 191.768C718.156 185.4 708.353 175.724 701.829 163.908C694.874 150.774 691.404 136.076 691.75 121.218C691.409 106.388 694.834 91.7146 701.706 78.5686C708.067 66.6772 717.784 56.9179 729.647 50.5044C742.339 43.772 756.539 40.3878 770.904 40.6717C784.912 40.355 798.776 43.5673 811.218 50.0128C822.864 56.2267 832.468 65.6735 838.872 77.2166C845.724 89.8831 849.155 104.117 848.828 118.514C848.856 123.195 848.61 127.874 848.09 132.526V132.526ZM799.828 105.854C800.013 102.132 799.35 98.4162 797.888 94.988C796.426 91.5597 794.203 88.5089 791.388 86.0661C785.474 81.1428 777.936 78.6011 770.248 78.9374C762.79 78.6719 755.497 81.1664 749.763 85.9432C743.98 91.0715 740.314 98.1699 739.48 105.854H799.828Z" fill="#4E132C" fill-opacity="0.2"/>
<path d="M790.24 455.089L825.228 420.101L798.925 393.84C789.754 384.674 777.318 379.527 764.353 379.531C751.387 379.535 738.954 384.689 729.789 393.86C720.624 403.031 715.477 415.467 715.48 428.432C715.484 441.398 720.639 453.831 729.809 462.996L785.2 518.387C778.373 508.962 775.13 497.411 776.054 485.809C776.977 474.208 782.007 463.316 790.24 455.089V455.089Z" fill="#65CDF0" fill-opacity="0.2"/>
<path d="M920.645 393.832C911.479 384.668 899.048 379.52 886.087 379.52C873.126 379.52 860.695 384.668 851.529 393.832L825.227 420.094L860.215 455.082C868.426 463.303 873.442 474.179 874.366 485.762C875.289 497.346 872.059 508.879 865.254 518.298L920.645 462.989C925.189 458.449 928.793 453.059 931.253 447.126C933.712 441.193 934.978 434.833 934.978 428.41C934.978 421.988 933.712 415.628 931.253 409.695C928.793 403.762 925.189 398.371 920.645 393.832Z" fill="#F7B923" fill-opacity="0.2"/>
<path d="M860.379 455.09L825.391 420.102L790.403 455.09C782.192 463.311 777.176 474.187 776.252 485.77C775.329 497.354 778.559 508.887 785.364 518.306L791.264 524.205C795.72 528.732 801.033 532.326 806.892 534.78C812.751 537.233 819.039 538.497 825.391 538.497C831.743 538.497 838.032 537.233 843.891 534.78C849.75 532.326 855.063 528.732 859.519 524.205L865.419 518.306C872.224 508.887 875.454 497.354 874.53 485.77C873.607 474.187 868.591 463.311 860.379 455.09V455.09Z" fill="#EE2E7E" fill-opacity="0.2"/>
<path d="M48.0359 499.207H110.924V536.08H0.0195312V339.18H48.0359V499.207Z" fill="#4E132C" fill-opacity="0.2"/>
<path d="M193.6 355.894C190.982 353.606 188.893 350.775 187.478 347.598C186.063 344.422 185.356 340.976 185.406 337.498C185.342 333.983 186.041 330.496 187.456 327.278C188.871 324.06 190.967 321.187 193.6 318.857C199.204 313.81 206.548 311.137 214.085 311.401C221.629 311.093 228.989 313.772 234.57 318.857C237.188 321.199 239.274 324.074 240.688 327.29C242.101 330.505 242.809 333.986 242.764 337.498C242.806 340.974 242.096 344.418 240.681 347.593C239.267 350.769 237.182 353.6 234.57 355.894C228.989 360.979 221.629 363.658 214.085 363.35C206.548 363.614 199.204 360.941 193.6 355.894V355.894ZM238.093 379.615V536.283H190.077V379.615H238.093Z" fill="#4E132C" fill-opacity="0.2"/>
<path d="M396.401 384.135C405.33 379.51 415.272 377.187 425.325 377.375C437.728 377.232 449.912 380.644 460.436 387.208C471.164 394.068 479.763 403.788 485.264 415.272C491.287 428.619 494.402 443.094 494.402 457.737C494.402 472.38 491.287 486.855 485.264 500.202C479.769 511.766 471.174 521.58 460.436 528.553C449.939 535.191 437.745 538.649 425.325 538.508C415.291 538.746 405.353 536.494 396.401 531.953C388.509 527.867 381.806 521.813 376.94 514.377V536.296H329.047V328.539H376.94V401.793C381.718 394.261 388.441 388.16 396.401 384.135V384.135ZM435.568 429.447C432.408 426.125 428.589 423.498 424.357 421.735C420.124 419.971 415.57 419.109 410.986 419.205C406.433 419.135 401.916 420.026 397.73 421.819C393.543 423.612 389.782 426.267 386.691 429.611C380.248 437.656 376.738 447.655 376.738 457.962C376.738 468.269 380.248 478.268 386.691 486.313C389.833 489.611 393.611 492.237 397.798 494.032C401.985 495.826 406.493 496.751 411.048 496.751C415.603 496.751 420.11 495.826 424.297 494.032C428.484 492.237 432.262 489.611 435.404 486.313C438.897 482.437 441.586 477.906 443.316 472.983C445.046 468.061 445.783 462.844 445.483 457.634C445.773 452.514 445.046 447.387 443.344 442.549C441.643 437.711 439 433.258 435.568 429.447V429.447Z" fill="#4E132C" fill-opacity="0.2"/>
<path d="M644.839 385.386C653.357 380.396 663.072 377.819 672.944 377.929V428.732H659.629C647.611 428.732 638.625 431.313 632.671 436.475C626.648 441.596 623.657 450.65 623.657 463.556V536.277H575.805V379.609H623.78V405.625C629.131 397.333 636.341 390.403 644.839 385.386V385.386Z" fill="#4E132C" fill-opacity="0.2"/>
<path d="M1067.93 385.386C1076.43 380.396 1086.13 377.818 1095.99 377.929V428.732H1082.8C1070.78 428.732 1061.79 431.313 1055.84 436.475C1049.86 441.596 1046.87 450.65 1046.87 463.556V536.277H998.852V379.609H1046.87V405.625C1052.21 397.324 1059.42 390.392 1067.93 385.386V385.386Z" fill="#4E132C" fill-opacity="0.2"/>
<path d="M1335.17 379.609L1236.84 610.637H1185.26L1221.19 530.91L1157.45 379.609H1211.07L1247.29 477.568L1283.22 379.609H1335.17Z" fill="#4E132C" fill-opacity="0.2"/>
</g>
</svg>
