<svg width="217" height="112" viewBox="0 0 217 112" fill="none" xmlns="http://www.w3.org/2000/svg">
<path d="M51.2749 21.5925L56.9459 15.2009L52.6893 10.3959C51.1969 8.75913 49.1927 7.85042 47.1104 7.86642C45.028 7.88242 43.035 8.82183 41.5625 10.4814C40.0901 12.141 39.2566 14.3872 39.2424 16.7342C39.2282 19.0811 40.0344 21.34 41.4867 23.022L50.4714 33.1334C49.3672 31.4157 48.8416 29.311 48.9889 27.1963C49.1361 25.0816 49.9465 23.0951 51.2749 21.5925V21.5925Z" fill="#65CDF0"/>
<path d="M72.3846 10.3949C70.899 8.72076 68.8841 7.78027 66.7833 7.78027C64.6825 7.78027 62.6676 8.72076 61.182 10.3949L56.9453 15.1998L62.623 21.5915C63.9534 23.0922 64.7662 25.0778 64.9159 27.1925C65.0656 29.3072 64.5423 31.4129 63.4398 33.1323L72.3846 23.021C73.87 21.3466 74.7045 19.0757 74.7045 16.7079C74.7045 14.3401 73.87 12.0693 72.3846 10.3949V10.3949Z" fill="#F7B923"/>
<path d="M62.62 21.5909L56.9423 15.1992L51.2712 21.5909C49.9428 23.0934 49.1325 25.08 48.9852 27.1946C48.838 29.3093 49.3635 31.414 50.4677 33.1317L51.4306 34.217C52.1519 35.0445 53.0123 35.7018 53.9615 36.1505C54.9106 36.5992 55.9296 36.8303 56.9589 36.8303C57.9882 36.8303 59.0071 36.5992 59.9563 36.1505C60.9055 35.7018 61.7658 35.0445 62.4872 34.217L63.45 33.1317C64.5509 31.4106 65.0719 29.3039 64.9198 27.1891C64.7677 25.0743 63.9524 23.0897 62.62 21.5909V21.5909Z" fill="#EE2E7E"/>
<path d="M2.04817 8.85308C3.37144 6.12119 5.35062 3.86458 7.75906 2.34169C10.2994 0.758078 13.1638 -0.0470706 16.0664 0.00657428C19.5528 -0.0998721 22.9735 1.08883 25.8015 3.3895C28.508 5.66024 30.423 8.92816 31.2135 12.6252H22.6605C22.0894 11.1978 21.1468 9.99974 19.9578 9.18987C18.751 8.39136 17.3726 7.98227 15.9734 8.00735C14.8782 7.96505 13.7882 8.19605 12.7815 8.68383C11.7747 9.17161 10.876 9.90411 10.1497 10.8289C8.66217 12.705 7.91843 15.2173 7.91843 18.3657C7.91843 21.5166 8.66217 24.0239 10.1497 25.9099C10.8763 26.8338 11.7753 27.5652 12.7821 28.0517C13.7889 28.5382 14.8787 28.7678 15.9734 28.724C17.372 28.7518 18.7505 28.3452 19.9578 27.549C21.1468 26.7391 22.0894 25.5411 22.6605 24.1137H31.2135C30.4262 27.806 28.5071 31.0663 25.7948 33.3194C22.9649 35.6075 19.5479 36.7879 16.0664 36.6799C13.1644 36.7358 10.3 35.9333 7.75906 34.3523C5.35443 32.8338 3.37587 30.5857 2.04817 27.8633C0.653377 24.9482 -0.0510565 21.6771 0.00288012 18.3657C-0.0482683 15.0499 0.655927 11.7747 2.04817 8.85308V8.85308Z" fill="#4E132C"/>
<path d="M96.2886 8.85289C97.6651 7.94338 99.2351 7.47256 100.831 7.49074V16.7713H98.6924C96.7534 16.7713 95.2991 17.2404 94.3296 18.1784C93.3601 19.1164 92.8731 20.7655 92.8687 23.1256V36.4178H85.0859V7.80508H92.8687V12.5726C93.7359 11.0494 94.907 9.77558 96.2886 8.85289V8.85289Z" fill="#4E132C"/>
<path d="M137.461 24.2106H119.857C119.884 25.7392 120.428 27.1986 121.378 28.2895C122.276 29.2348 123.47 29.7407 124.698 29.6966C125.544 29.7664 126.388 29.5381 127.114 29.0433C127.84 28.5485 128.411 27.8117 128.749 26.9349H137.03C136.612 28.7995 135.827 30.534 134.732 32.0093C133.601 33.5304 132.177 34.741 130.568 35.5494C128.806 36.4249 126.896 36.8614 124.971 36.8292C122.657 36.8774 120.372 36.2591 118.33 35.0329C116.401 33.8697 114.812 32.1021 113.755 29.9436C112.627 27.5442 112.065 24.8591 112.121 22.1449C112.066 19.4358 112.621 16.7552 113.735 14.3537C114.766 12.1813 116.341 10.3985 118.264 9.2269C120.321 7.99701 122.622 7.37878 124.951 7.43066C127.221 7.3728 129.468 7.95962 131.485 9.13709C133.373 10.2722 134.929 11.998 135.967 14.1067C137.078 16.4206 137.634 19.0209 137.581 21.6509C137.586 22.506 137.546 23.3607 137.461 24.2106V24.2106ZM129.639 19.3383C129.669 18.6583 129.561 17.9794 129.324 17.3532C129.087 16.7269 128.727 16.1696 128.271 15.7233C127.312 14.8239 126.09 14.3596 124.844 14.421C123.636 14.3726 122.453 14.8282 121.524 15.7009C120.587 16.6377 119.992 17.9345 119.857 19.3383H129.639Z" fill="#4E132C"/>
<path d="M128.086 83.135L133.757 76.7434L129.494 71.9459C128.007 70.2716 125.992 69.3313 123.89 69.332C121.789 69.3327 119.773 70.2743 118.288 71.9496C116.802 73.6249 115.968 75.8968 115.969 78.2653C115.969 80.6339 116.805 82.9052 118.291 84.5795L127.269 94.6983C126.163 92.9765 125.637 90.8664 125.787 88.747C125.936 86.6276 126.752 84.6378 128.086 83.135V83.135Z" fill="#65CDF0"/>
<path d="M149.224 71.9457C147.738 70.2715 145.723 69.3311 143.622 69.3311C141.522 69.3311 139.507 70.2715 138.021 71.9457L133.758 76.7431L139.429 83.1348C140.76 84.6367 141.573 86.6236 141.723 88.7396C141.872 90.8556 141.349 92.9625 140.246 94.6831L149.224 84.5793C149.96 83.75 150.544 82.7653 150.943 81.6814C151.342 80.5976 151.547 79.4358 151.547 78.2625C151.547 77.0892 151.342 75.9274 150.943 74.8435C150.544 73.7596 149.96 72.7749 149.224 71.9457Z" fill="#F7B923"/>
<path d="M139.458 83.1358L133.787 76.7441L128.116 83.1358C126.785 84.6377 125.972 86.6246 125.822 88.7406C125.672 90.8566 126.196 92.9635 127.299 94.6841L128.255 95.7619C128.977 96.5888 129.838 97.2454 130.788 97.6936C131.738 98.1418 132.757 98.3727 133.787 98.3727C134.816 98.3727 135.836 98.1418 136.785 97.6936C137.735 97.2454 138.596 96.5888 139.318 95.7619L140.274 94.6841C141.377 92.9635 141.901 90.8566 141.751 88.7406C141.602 86.6246 140.789 84.6377 139.458 83.1358V83.1358Z" fill="#EE2E7E"/>
<path d="M7.78274 91.1958H17.976V97.9317H0V61.9619H7.78274V91.1958Z" fill="#4E132C"/>
<path d="M31.3835 65.0152C30.959 64.5972 30.6204 64.0801 30.3911 63.4998C30.1617 62.9195 30.0472 62.2899 30.0553 61.6547C30.0449 61.0126 30.1583 60.3756 30.3876 59.7876C30.6169 59.1997 30.9567 58.6748 31.3835 58.2493C32.2917 57.3274 33.4822 56.839 34.7037 56.8872C35.9264 56.8309 37.1195 57.3204 38.024 58.2493C38.4484 58.677 38.7865 59.2023 39.0156 59.7897C39.2447 60.3772 39.3595 61.0131 39.3521 61.6547C39.359 62.2897 39.2438 62.9188 39.0146 63.4989C38.7853 64.0789 38.4474 64.5962 38.024 65.0152C37.1195 65.9441 35.9264 66.4336 34.7037 66.3773C33.4822 66.4255 32.2917 65.9372 31.3835 65.0152V65.0152ZM38.5951 69.3486V97.9688H30.8124V69.3486H38.5951Z" fill="#4E132C"/>
<path d="M64.253 70.1738C65.7003 69.329 67.3117 68.9045 68.9413 68.9389C70.9515 68.9128 72.9264 69.5361 74.6322 70.7352C76.371 71.9885 77.7647 73.764 78.6564 75.862C79.6326 78.3002 80.1375 80.9445 80.1375 83.6195C80.1375 86.2944 79.6326 88.9388 78.6564 91.377C77.7657 93.4895 76.3727 95.2823 74.6322 96.5562C72.9308 97.769 70.9543 98.4006 68.9413 98.3749C67.3147 98.4183 65.704 98.0069 64.253 97.1774C62.9739 96.431 61.8874 95.325 61.0988 93.9666V97.9707H53.3359V60.0176H61.0988V73.3996C61.8731 72.0236 62.9629 70.9091 64.253 70.1738V70.1738ZM70.6014 78.4515C70.0892 77.8446 69.4703 77.3648 68.7842 77.0426C68.0982 76.7204 67.3601 76.563 66.6171 76.5804C65.879 76.5677 65.1469 76.7304 64.4684 77.058C63.7899 77.3855 63.1802 77.8706 62.6792 78.4815C61.6349 79.9511 61.0659 81.7778 61.0659 83.6606C61.0659 85.5435 61.6349 87.3702 62.6792 88.8398C63.1884 89.4424 63.8009 89.9221 64.4795 90.2499C65.1581 90.5776 65.8887 90.7466 66.627 90.7466C67.3653 90.7466 68.0959 90.5776 68.7746 90.2499C69.4532 89.9221 70.0656 89.4424 70.5748 88.8398C71.141 88.1317 71.5769 87.304 71.8573 86.4047C72.1377 85.5054 72.257 84.5524 72.2084 83.6008C72.2555 82.6654 72.1377 81.7288 71.8618 80.845C71.586 79.9612 71.1576 79.1477 70.6014 78.4515V78.4515Z" fill="#4E132C"/>
<path d="M104.517 70.4018C105.898 69.4904 107.473 69.0195 109.073 69.0397V78.3203H106.915C104.967 78.3203 103.51 78.7918 102.545 79.7348C101.569 80.6704 101.084 82.3244 101.084 84.682V97.9667H93.3281V69.3465H101.104V74.0991C101.971 72.5843 103.14 71.3184 104.517 70.4018V70.4018Z" fill="#4E132C"/>
<path d="M173.094 70.4018C174.473 69.4903 176.045 69.0194 177.643 69.0397V78.3203H175.505C173.557 78.3203 172.101 78.7918 171.135 79.7348C170.166 80.6704 169.681 82.3244 169.681 84.682V97.9667H161.898V69.3466H169.681V74.0991C170.547 72.5828 171.716 71.3164 173.094 70.4018V70.4018Z" fill="#4E132C"/>
<path d="M216.408 69.3477L200.471 111.552H192.11L197.934 96.9874L187.602 69.3477H196.294L202.164 87.2427L207.988 69.3477H216.408Z" fill="#4E132C"/>
</svg>
