<svg width="216" height="108" viewBox="0 0 216 108" fill="none" xmlns="http://www.w3.org/2000/svg">
<path d="M51.7418 21.0963L57.366 14.9821L53.1446 10.3857C51.6645 8.81998 49.6769 7.95072 47.6118 7.96602C45.5466 7.98132 43.5701 8.87996 42.1098 10.4675C40.6495 12.055 39.8229 14.2038 39.8088 16.4489C39.7947 18.6939 40.5943 20.8548 42.0346 22.4638L50.945 32.1363C49.8499 30.4931 49.3287 28.4798 49.4747 26.4569C49.6207 24.434 50.4244 22.5337 51.7418 21.0963V21.0963Z" fill="#65CDF0"/>
<path d="M72.6789 10.3849C71.2055 8.78345 69.2074 7.88379 67.1239 7.88379C65.0404 7.88379 63.0422 8.78345 61.5689 10.3849L57.3672 14.9813L62.9979 21.0955C64.3174 22.5311 65.1235 24.4305 65.2719 26.4534C65.4203 28.4764 64.9014 30.4907 63.808 32.1355L72.6789 22.463C74.152 20.8612 74.9796 18.689 74.9796 16.4239C74.9796 14.1589 74.152 11.9867 72.6789 10.3849V10.3849Z" fill="#F7B923"/>
<path d="M62.9954 21.0947L57.3646 14.9805L51.7404 21.0947C50.423 22.532 49.6193 24.4324 49.4733 26.4552C49.3273 28.4781 49.8485 30.4915 50.9436 32.1346L51.8985 33.1727C52.6138 33.9644 53.4671 34.5932 54.4084 35.0224C55.3497 35.4516 56.3603 35.6727 57.3811 35.6727C58.4019 35.6727 59.4124 35.4516 60.3537 35.0224C61.2951 34.5932 62.1483 33.9644 62.8637 33.1727L63.8186 32.1346C64.9103 30.4882 65.427 28.4729 65.2762 26.4499C65.1253 24.4269 64.3168 22.5285 62.9954 21.0947V21.0947Z" fill="#EE2E7E"/>
<path d="M2.92187 8.91022C4.2342 6.29691 6.19703 4.13824 8.58556 2.68146C11.1049 1.16658 13.9456 0.396379 16.8242 0.447695C20.2818 0.345869 23.6743 1.48297 26.4788 3.68379C29.1631 5.85596 31.0622 8.98204 31.8462 12.5186H23.3638C22.7974 11.1532 21.8627 10.0071 20.6835 9.2324C19.4867 8.46854 18.1197 8.0772 16.732 8.1012C15.6459 8.06074 14.5649 8.28171 13.5665 8.74832C12.568 9.21493 11.6767 9.91563 10.9564 10.8003C9.48121 12.595 8.74361 14.9982 8.74361 18.0099C8.74361 21.0241 9.48121 23.4225 10.9564 25.2267C11.6771 26.1105 12.5686 26.8101 13.5671 27.2755C14.5655 27.7409 15.6463 27.9605 16.732 27.9187C18.1191 27.9452 19.4861 27.5563 20.6835 26.7946C21.8627 26.0199 22.7974 24.8739 23.3638 23.5084H31.8462C31.0653 27.0405 29.1621 30.1593 26.4723 32.3146C23.6657 34.5034 20.277 35.6325 16.8242 35.5292C13.9462 35.5827 11.1055 34.815 8.58556 33.3026C6.2008 31.8501 4.23859 29.6996 2.92187 27.0953C1.5386 24.3068 0.83999 21.1776 0.893481 18.0099C0.842756 14.838 1.54113 11.705 2.92187 8.91022V8.91022Z" fill="#4E132C"/>
<path d="M96.3874 8.90996C97.7526 8.03993 99.3096 7.58954 100.892 7.60693V16.4847H98.7714C96.8484 16.4847 95.4061 16.9334 94.4446 17.8307C93.4831 18.728 93.0002 20.3055 92.9958 22.5631V35.2784H85.2773V7.90763H92.9958V12.4682C93.8559 11.0111 95.0173 9.79259 96.3874 8.90996V8.90996Z" fill="#4E132C"/>
<path d="M137.217 23.6002H119.758C119.784 25.0625 120.324 26.4586 121.266 27.5022C122.157 28.4064 123.341 28.8903 124.559 28.8482C125.398 28.9149 126.235 28.6965 126.955 28.2232C127.675 27.7499 128.241 27.0451 128.576 26.2063H136.789C136.375 27.99 135.596 29.6492 134.51 31.0604C133.388 32.5155 131.976 33.6736 130.381 34.4469C128.633 35.2844 126.739 35.702 124.829 35.6712C122.535 35.7173 120.268 35.1258 118.243 33.9529C116.33 32.8401 114.755 31.1492 113.706 29.0844C112.588 26.7892 112.03 24.2206 112.086 21.6242C112.031 19.0327 112.582 16.4685 113.686 14.1712C114.709 12.0931 116.271 10.3877 118.178 9.26693C120.218 8.09042 122.5 7.49903 124.809 7.54865C127.061 7.49331 129.29 8.05465 131.29 9.18102C133.162 10.2669 134.706 11.9177 135.735 13.9349C136.836 16.1484 137.388 18.6358 137.335 21.1517C137.34 21.9697 137.3 22.7873 137.217 23.6002V23.6002ZM129.459 18.9394C129.489 18.2889 129.382 17.6396 129.147 17.0405C128.912 16.4414 128.555 15.9083 128.102 15.4814C127.151 14.621 125.94 14.1769 124.704 14.2356C123.505 14.1892 122.333 14.6251 121.411 15.4599C120.482 16.3561 119.892 17.5965 119.758 18.9394H129.459Z" fill="#4E132C"/>
<path d="M127.92 79.9685L133.544 73.8543L129.316 69.2651C127.842 67.6634 125.842 66.764 123.758 66.7646C121.674 66.7653 119.676 67.666 118.202 69.2686C116.729 70.8712 115.902 73.0445 115.902 75.3102C115.903 77.576 116.731 79.7486 118.206 81.3503L127.109 91.0299C126.012 89.3828 125.491 87.3643 125.639 85.3369C125.788 83.3095 126.596 81.4061 127.92 79.9685V79.9685Z" fill="#65CDF0"/>
<path d="M148.881 69.2638C147.408 67.6624 145.409 66.7627 143.326 66.7627C141.243 66.7627 139.244 67.6624 137.771 69.2638L133.543 73.8531L139.167 79.9673C140.487 81.404 141.293 83.3046 141.442 85.3288C141.59 87.3529 141.071 89.3684 139.977 91.0144L148.881 81.349C149.611 80.5558 150.191 79.6138 150.586 78.577C150.982 77.5402 151.185 76.4288 151.185 75.3064C151.185 74.1841 150.982 73.0727 150.586 72.0359C150.191 70.999 149.611 70.0571 148.881 69.2638Z" fill="#F7B923"/>
<path d="M139.192 79.9687L133.568 73.8545L127.944 79.9687C126.624 81.4055 125.818 83.3061 125.669 85.3302C125.521 87.3544 126.04 89.3699 127.134 91.0158L128.082 92.0468C128.799 92.8378 129.653 93.4659 130.595 93.8947C131.536 94.3234 132.547 94.5443 133.568 94.5443C134.589 94.5443 135.6 94.3234 136.542 93.8947C137.484 93.4659 138.338 92.8378 139.054 92.0468L140.002 91.0158C141.096 89.3699 141.616 87.3544 141.467 85.3302C141.319 83.3061 140.512 81.4055 139.192 79.9687V79.9687Z" fill="#EE2E7E"/>
<path d="M8.61295 87.6789H18.722V94.1224H0.894531V59.7139H8.61295V87.6789Z" fill="#4E132C"/>
<path d="M32.0092 62.6349C31.5883 62.235 31.2524 61.7403 31.025 61.1852C30.7976 60.6301 30.6839 60.0279 30.6921 59.4202C30.6817 58.806 30.7941 58.1966 31.0215 57.6342C31.249 57.0718 31.5859 56.5697 32.0092 56.1627C32.9099 55.2807 34.0905 54.8135 35.302 54.8596C36.5146 54.8059 37.6978 55.2741 38.5949 56.1627C39.0158 56.5718 39.3511 57.0743 39.5783 57.6362C39.8055 58.1981 39.9193 58.8065 39.912 59.4202C39.9188 60.0276 39.8046 60.6295 39.5772 61.1843C39.3499 61.7392 39.0148 62.2341 38.5949 62.6349C37.6978 63.5235 36.5146 63.9917 35.302 63.9379C34.0905 63.984 32.9099 63.5168 32.0092 62.6349V62.6349ZM39.1612 66.7802V94.1581H31.4428V66.7802H39.1612Z" fill="#4E132C"/>
<path d="M64.6081 67.5699C66.0434 66.7617 67.6415 66.3557 69.2576 66.3886C71.2513 66.3636 73.2098 66.9599 74.9015 68.1069C76.6259 69.3058 78.0081 71.0043 78.8925 73.0111C79.8606 75.3435 80.3613 77.8731 80.3613 80.432C80.3613 82.9908 79.8606 85.5204 78.8925 87.8528C78.0091 89.8736 76.6276 91.5886 74.9015 92.8072C73.2142 93.9673 71.254 94.5715 69.2576 94.5469C67.6445 94.5885 66.0471 94.1949 64.6081 93.4014C63.3396 92.6874 62.2621 91.6294 61.4799 90.33V94.1603H53.7812V57.8545H61.4799V70.6557C62.2478 69.3394 63.3287 68.2733 64.6081 67.5699V67.5699ZM70.904 75.4883C70.396 74.9078 69.7822 74.4487 69.1019 74.1405C68.4215 73.8324 67.6895 73.6818 66.9526 73.6985C66.2207 73.6863 65.4946 73.8419 64.8217 74.1552C64.1488 74.4686 63.5442 74.9326 63.0473 75.517C62.0116 76.9228 61.4473 78.6702 61.4473 80.4713C61.4473 82.2725 62.0116 84.0199 63.0473 85.4257C63.5523 86.0021 64.1597 86.461 64.8327 86.7745C65.5057 87.0881 66.2303 87.2498 66.9625 87.2498C67.6947 87.2498 68.4193 87.0881 69.0923 86.7745C69.7653 86.461 70.3727 86.0021 70.8777 85.4257C71.4391 84.7483 71.8714 83.9566 72.1495 83.0963C72.4276 82.2361 72.546 81.3244 72.4978 80.4141C72.5444 79.5193 72.4276 78.6233 72.154 77.7779C71.8805 76.9325 71.4557 76.1543 70.904 75.4883V75.4883Z" fill="#4E132C"/>
<path d="M104.546 67.788C105.915 66.9161 107.477 66.4657 109.064 66.485V75.3627H106.924C104.992 75.3627 103.547 75.8138 102.59 76.7159C101.622 77.6108 101.141 79.1931 101.141 81.4483V94.1564H93.4492V66.7785H101.161V71.3248C102.021 69.8758 103.18 68.6648 104.546 67.788V67.788Z" fill="#4E132C"/>
<path d="M172.557 67.788C173.923 66.916 175.483 66.4656 177.068 66.485V75.3628H174.947C173.015 75.3628 171.571 75.8138 170.614 76.7159C169.652 77.6108 169.172 79.1931 169.172 81.4483V94.1564H161.453V66.7785H169.172V71.3248C170.03 69.8743 171.189 68.6629 172.557 67.788V67.788Z" fill="#4E132C"/>
<path d="M215.514 66.7783L199.708 107.151H191.417L197.193 93.2183L186.945 66.7783H195.566L201.388 83.8967L207.163 66.7783H215.514Z" fill="#4E132C"/>
</svg>
