<svg width="218" height="112" viewBox="0 0 218 112" fill="none" xmlns="http://www.w3.org/2000/svg">
<path d="M51.9233 21.5935L57.5944 15.2019L53.3378 10.3969C51.8454 8.7601 49.8412 7.8514 47.7588 7.8674C45.6765 7.88339 43.6835 8.82281 42.211 10.4824C40.7385 12.142 39.905 14.3882 39.8908 16.7352C39.8766 19.0821 40.6829 21.341 42.1351 23.023L51.1198 33.1344C50.0156 31.4166 49.4901 29.312 49.6373 27.1973C49.7845 25.0826 50.5949 23.0961 51.9233 21.5935V21.5935Z" fill="#65CDF0"/>
<path d="M73.0331 10.3959C71.5474 8.72174 69.5326 7.78125 67.4317 7.78125C65.3309 7.78125 63.3161 8.72174 61.8304 10.3959L57.5938 15.2008L63.2714 21.5924C64.6018 23.0932 65.4147 25.0787 65.5643 27.1935C65.714 29.3082 65.1907 31.4139 64.0882 33.1333L73.0331 23.022C74.5184 21.3475 75.3529 19.0767 75.3529 16.7089C75.3529 14.3411 74.5184 12.0703 73.0331 10.3959V10.3959Z" fill="#F7B923"/>
<path d="M63.2723 21.5918L57.5946 15.2002L51.9236 21.5918C50.5952 23.0944 49.7848 25.081 49.6376 27.1956C49.4903 29.3103 50.0159 31.415 51.1201 33.1327L52.083 34.2179C52.8043 35.0455 53.6646 35.7028 54.6138 36.1515C55.563 36.6002 56.582 36.8313 57.6112 36.8313C58.6405 36.8313 59.6595 36.6002 60.6087 36.1515C61.5578 35.7028 62.4182 35.0455 63.1395 34.2179L64.1024 33.1327C65.2032 31.4116 65.7242 29.3048 65.5721 27.1901C65.42 25.0753 64.6047 23.0907 63.2723 21.5918V21.5918Z" fill="#EE2E7E"/>
<path d="M2.69661 8.85405C4.01987 6.12217 5.99906 3.86556 8.40749 2.34267C10.9478 0.759055 13.8122 -0.046094 16.7148 0.00755084C20.2013 -0.0988955 23.622 1.0898 26.4499 3.39048C29.1565 5.66121 31.0715 8.92914 31.862 12.6262H23.3089C22.7378 11.1988 21.7952 10.0007 20.6062 9.19085C19.3994 8.39233 18.0211 7.98324 16.6219 8.00832C15.5267 7.96603 14.4367 8.19703 13.4299 8.68481C12.4231 9.17259 11.5244 9.90509 10.7981 10.8299C9.31061 12.706 8.56687 15.2182 8.56687 18.3667C8.56687 21.5176 9.31061 24.0248 10.7981 25.9109C11.5248 26.8348 12.4237 27.5661 13.4305 28.0527C14.4373 28.5392 15.5271 28.7688 16.6219 28.725C18.0205 28.7527 19.3989 28.3462 20.6062 27.55C21.7952 26.7401 22.7378 25.542 23.3089 24.1146H31.862C31.0746 27.807 29.1555 31.0673 26.4433 33.3204C23.6133 35.6085 20.1963 36.7889 16.7148 36.6809C13.8128 36.7368 10.9485 35.9342 8.40749 34.3532C6.00286 32.8348 4.0243 30.5867 2.69661 27.8643C1.30181 24.9492 0.597381 21.6781 0.651318 18.3667C0.600169 15.0508 1.30436 11.7757 2.69661 8.85405V8.85405Z" fill="#4E132C"/>
<path d="M96.9409 8.85387C98.3175 7.94436 99.8875 7.47353 101.483 7.49172V16.7723H99.3448C97.4057 16.7723 95.9515 17.2413 94.9819 18.1794C94.0124 19.1174 93.5254 20.7665 93.521 23.1265V36.4187H85.7383V7.80606H93.521V12.5736C94.3883 11.0503 95.5594 9.77655 96.9409 8.85387V8.85387Z" fill="#4E132C"/>
<path d="M138.11 24.2116H120.506C120.532 25.7402 121.076 27.1996 122.026 28.2905C122.925 29.2358 124.118 29.7417 125.347 29.6976C126.193 29.7674 127.037 29.5391 127.763 29.0443C128.488 28.5495 129.06 27.8127 129.397 26.9359H137.678C137.261 28.8005 136.475 30.535 135.381 32.0102C134.249 33.5313 132.825 34.742 131.217 35.5503C129.454 36.4259 127.545 36.8624 125.619 36.8302C123.306 36.8784 121.02 36.2601 118.978 35.0339C117.049 33.8706 115.46 32.1031 114.403 29.9446C113.276 27.5452 112.713 24.8601 112.769 22.1459C112.714 19.4368 113.269 16.7562 114.383 14.3547C115.414 12.1823 116.989 10.3995 118.912 9.22788C120.969 7.99799 123.271 7.37976 125.599 7.43163C127.87 7.37378 130.117 7.96059 132.133 9.13807C134.021 10.2732 135.578 11.999 136.616 14.1077C137.726 16.4216 138.282 19.0218 138.229 21.6519C138.234 22.507 138.194 23.3617 138.11 24.2116V24.2116ZM130.287 19.3392C130.317 18.6592 130.21 17.9804 129.973 17.3542C129.736 16.7279 129.376 16.1705 128.919 15.7243C127.961 14.8249 126.739 14.3606 125.493 14.422C124.284 14.3735 123.102 14.8292 122.172 15.7018C121.235 16.6387 120.641 17.9354 120.506 19.3392H130.287Z" fill="#4E132C"/>
<path d="M128.735 83.136L134.406 76.7443L130.142 71.9469C128.656 70.2725 126.64 69.3323 124.539 69.333C122.437 69.3337 120.422 70.2753 118.936 71.9506C117.451 73.6259 116.617 75.8978 116.617 78.2663C116.618 80.6349 117.453 82.9061 118.94 84.5805L127.918 94.6993C126.811 92.9774 126.286 90.8673 126.435 88.748C126.585 86.6286 127.4 84.6388 128.735 83.136V83.136Z" fill="#65CDF0"/>
<path d="M149.872 71.9466C148.386 70.2725 146.372 69.332 144.271 69.332C142.17 69.332 140.155 70.2725 138.669 71.9466L134.406 76.7441L140.077 83.1357C141.408 84.6377 142.221 86.6245 142.371 88.7405C142.521 90.8565 141.997 92.9635 140.894 94.6841L149.872 84.5802C150.609 83.751 151.193 82.7663 151.591 81.6824C151.99 80.5985 152.195 79.4367 152.195 78.2634C152.195 77.0901 151.99 75.9283 151.591 74.8445C151.193 73.7606 150.609 72.7759 149.872 71.9466Z" fill="#F7B923"/>
<path d="M140.102 83.1368L134.431 76.7451L128.76 83.1368C127.429 84.6387 126.616 86.6256 126.466 88.7416C126.317 90.8576 126.84 92.9645 127.943 94.6851L128.9 95.7629C129.622 96.5897 130.483 97.2464 131.433 97.6946C132.382 98.1428 133.402 98.3737 134.431 98.3737C135.461 98.3737 136.48 98.1428 137.43 97.6946C138.379 97.2464 139.24 96.5897 139.963 95.7629L140.919 94.6851C142.022 92.9645 142.546 90.8576 142.396 88.7416C142.246 86.6256 141.433 84.6387 140.102 83.1368V83.1368Z" fill="#EE2E7E"/>
<path d="M8.43508 91.1968H18.6283V97.9327H0.652344V61.9629H8.43508V91.1968Z" fill="#4E132C"/>
<path d="M32.028 65.0162C31.6036 64.5981 31.2649 64.081 31.0356 63.5008C30.8062 62.9205 30.6917 62.2909 30.6999 61.6557C30.6895 61.0136 30.8028 60.3765 31.0321 59.7886C31.2614 59.2007 31.6012 58.6758 32.028 58.2503C32.9362 57.3283 34.1267 56.8399 35.3483 56.8881C36.571 56.8319 37.764 57.3214 38.6686 58.2503C39.0929 58.678 39.4311 59.2033 39.6602 59.7907C39.8893 60.3781 40.004 61.0141 39.9967 61.6557C40.0035 62.2906 39.8884 62.9198 39.6591 63.4998C39.4299 64.0799 39.0919 64.5972 38.6686 65.0162C37.764 65.9451 36.571 66.4345 35.3483 66.3783C34.1267 66.4265 32.9362 65.9381 32.028 65.0162V65.0162ZM39.2396 69.3496V97.9698H31.4569V69.3496H39.2396Z" fill="#4E132C"/>
<path d="M64.8976 70.1748C66.3448 69.33 67.9562 68.9055 69.5858 68.9399C71.5961 68.9138 73.5709 69.5371 75.2768 70.7361C77.0155 71.9894 78.4093 73.765 79.3009 75.8629C80.2771 78.3011 80.782 80.9455 80.782 83.6205C80.782 86.2954 80.2771 88.9398 79.3009 91.378C78.4102 93.4905 77.0172 95.2833 75.2768 96.5572C73.5753 97.7699 71.5988 98.4016 69.5858 98.3759C67.9593 98.4193 66.3485 98.0079 64.8976 97.1784C63.6185 96.4319 62.532 95.326 61.7433 93.9676V97.9717H53.9805V60.0186H61.7433V73.4006C62.5176 72.0246 63.6074 70.9101 64.8976 70.1748V70.1748ZM71.2459 78.4525C70.7337 77.8456 70.1148 77.3657 69.4288 77.0436C68.7427 76.7214 68.0046 76.564 67.2616 76.5814C66.5236 76.5687 65.7914 76.7314 65.1129 77.0589C64.4344 77.3865 63.8248 77.8715 63.3237 78.4825C62.2794 79.9521 61.7104 81.7788 61.7104 83.6616C61.7104 85.5445 62.2794 87.3712 63.3237 88.8408C63.8329 89.4433 64.4454 89.9231 65.124 90.2508C65.8026 90.5786 66.5332 90.7476 67.2716 90.7476C68.0099 90.7476 68.7405 90.5786 69.4191 90.2508C70.0977 89.9231 70.7102 89.4433 71.2194 88.8408C71.7855 88.1327 72.2214 87.305 72.5018 86.4057C72.7822 85.5064 72.9016 84.5534 72.8529 83.6018C72.9 82.6664 72.7822 81.7298 72.5064 80.846C72.2306 79.9622 71.8022 79.1487 71.2459 78.4525V78.4525Z" fill="#4E132C"/>
<path d="M105.166 70.4028C106.547 69.4914 108.121 69.0205 109.721 69.0407V78.3213H107.563C105.615 78.3213 104.159 78.7928 103.194 79.7358C102.218 80.6713 101.733 82.3254 101.733 84.683V97.9677H93.9766V69.3475H101.753V74.1001C102.62 72.5853 103.789 71.3194 105.166 70.4028V70.4028Z" fill="#4E132C"/>
<path d="M173.743 70.4028C175.121 69.4913 176.694 69.0204 178.292 69.0407V78.3213H176.153C174.205 78.3213 172.749 78.7928 171.784 79.7358C170.814 80.6714 170.33 82.3254 170.33 84.683V97.9677H162.547V69.3475H170.33V74.1001C171.195 72.5837 172.364 71.3174 173.743 70.4028V70.4028Z" fill="#4E132C"/>
<path d="M217.061 69.3486L201.123 111.553H192.763L198.587 96.9884L188.254 69.3486H196.946L202.817 87.2437L208.64 69.3486H217.061Z" fill="#4E132C"/>
</svg>
