<svg width="217" height="112" viewBox="0 0 217 112" fill="none" xmlns="http://www.w3.org/2000/svg">
<path d="M51.2749 21.5935L56.9459 15.2019L52.6893 10.3969C51.1969 8.7601 49.1927 7.8514 47.1104 7.8674C45.028 7.88339 43.035 8.82281 41.5625 10.4824C40.0901 12.142 39.2566 14.3882 39.2424 16.7352C39.2282 19.0821 40.0344 21.341 41.4867 23.023L50.4714 33.1344C49.3672 31.4166 48.8416 29.312 48.9889 27.1973C49.1361 25.0826 49.9465 23.0961 51.2749 21.5935V21.5935Z" fill="#65CDF0"/>
<path d="M72.3846 10.3959C70.899 8.72174 68.8841 7.78125 66.7833 7.78125C64.6825 7.78125 62.6676 8.72174 61.182 10.3959L56.9453 15.2008L62.623 21.5924C63.9534 23.0932 64.7662 25.0787 64.9159 27.1935C65.0656 29.3082 64.5423 31.4139 63.4398 33.1333L72.3846 23.022C73.87 21.3475 74.7045 19.0767 74.7045 16.7089C74.7045 14.3411 73.87 12.0703 72.3846 10.3959V10.3959Z" fill="#F7B923"/>
<path d="M62.6239 21.5928L56.9462 15.2012L51.2752 21.5928C49.9468 23.0954 49.1364 25.0819 48.9891 27.1966C48.8419 29.3113 49.3675 31.416 50.4716 33.1337L51.4345 34.2189C52.1558 35.0465 53.0162 35.7038 53.9654 36.1525C54.9145 36.6012 55.9335 36.8323 56.9628 36.8323C57.9921 36.8323 59.0111 36.6012 59.9602 36.1525C60.9094 35.7038 61.7698 35.0465 62.4911 34.2189L63.4539 33.1337C64.5548 31.4125 65.0758 29.3058 64.9237 27.191C64.7716 25.0763 63.9563 23.0917 62.6239 21.5928V21.5928Z" fill="#EE2E7E"/>
<path d="M2.04817 8.85503C3.37144 6.12314 5.35062 3.86653 7.75906 2.34364C10.2994 0.760031 13.1638 -0.0451175 16.0664 0.0085274C19.5528 -0.0979189 22.9735 1.09078 25.8015 3.39145C28.508 5.66219 30.423 8.93012 31.2135 12.6271H22.6605C22.0894 11.1997 21.1468 10.0017 19.9578 9.19183C18.751 8.39331 17.3726 7.98422 15.9734 8.0093C14.8782 7.967 13.7882 8.19801 12.7815 8.68579C11.7747 9.17356 10.876 9.90607 10.1497 10.8309C8.66217 12.707 7.91843 15.2192 7.91843 18.3676C7.91843 21.5186 8.66217 24.0258 10.1497 25.9119C10.8763 26.8358 11.7753 27.5671 12.7821 28.0536C13.7889 28.5401 14.8787 28.7697 15.9734 28.726C17.372 28.7537 18.7505 28.3472 19.9578 27.5509C21.1468 26.7411 22.0894 25.543 22.6605 24.1156H31.2135C30.4262 27.808 28.5071 31.0683 25.7948 33.3214C22.9649 35.6095 19.5479 36.7898 16.0664 36.6819C13.1644 36.7378 10.3 35.9352 7.75906 34.3542C5.35443 32.8358 3.37587 30.5877 2.04817 27.8653C0.653377 24.9502 -0.0510565 21.679 0.00288012 18.3676C-0.0482683 15.0518 0.655927 11.7766 2.04817 8.85503V8.85503Z" fill="#4E132C"/>
<path d="M96.2925 8.85485C97.669 7.94534 99.239 7.47451 100.835 7.49269V16.7733H98.6964C96.7573 16.7733 95.303 17.2423 94.3335 18.1804C93.364 19.1184 92.877 20.7674 92.8726 23.1275V36.4197H85.0898V7.80704H92.8726V12.5746C93.7399 11.0513 94.911 9.77753 96.2925 8.85485V8.85485Z" fill="#4E132C"/>
<path d="M137.461 24.2116H119.857C119.884 25.7402 120.428 27.1996 121.378 28.2905C122.276 29.2358 123.47 29.7417 124.698 29.6976C125.544 29.7674 126.388 29.5391 127.114 29.0443C127.84 28.5495 128.411 27.8127 128.749 26.9359H137.03C136.612 28.8005 135.827 30.535 134.732 32.0102C133.601 33.5313 132.177 34.742 130.568 35.5503C128.806 36.4259 126.896 36.8624 124.971 36.8302C122.657 36.8784 120.372 36.2601 118.33 35.0339C116.401 33.8706 114.812 32.1031 113.755 29.9446C112.627 27.5452 112.065 24.8601 112.121 22.1459C112.066 19.4368 112.621 16.7562 113.735 14.3547C114.766 12.1823 116.341 10.3995 118.264 9.22788C120.321 7.99799 122.622 7.37976 124.951 7.43163C127.221 7.37378 129.468 7.96059 131.485 9.13807C133.373 10.2732 134.929 11.999 135.967 14.1077C137.078 16.4216 137.634 19.0218 137.581 21.6519C137.586 22.507 137.546 23.3617 137.461 24.2116V24.2116ZM129.639 19.3392C129.669 18.6592 129.561 17.9804 129.324 17.3542C129.087 16.7279 128.727 16.1705 128.271 15.7243C127.312 14.8249 126.09 14.3606 124.844 14.422C123.636 14.3735 122.453 14.8292 121.524 15.7018C120.587 16.6387 119.992 17.9354 119.857 19.3392H129.639Z" fill="#4E132C"/>
<path d="M128.086 83.1369L133.757 76.7453L129.494 71.9478C128.007 70.2735 125.992 69.3333 123.89 69.334C121.789 69.3347 119.773 70.2763 118.288 71.9516C116.802 73.6269 115.968 75.8987 115.969 78.2673C115.969 80.6358 116.805 82.9071 118.291 84.5814L127.269 94.7003C126.163 92.9784 125.637 90.8683 125.787 88.7489C125.936 86.6296 126.752 84.6398 128.086 83.1369V83.1369Z" fill="#65CDF0"/>
<path d="M149.224 71.9466C147.738 70.2725 145.723 69.332 143.622 69.332C141.522 69.332 139.507 70.2725 138.021 71.9466L133.758 76.7441L139.429 83.1357C140.76 84.6377 141.573 86.6245 141.723 88.7405C141.872 90.8565 141.349 92.9635 140.246 94.6841L149.224 84.5802C149.96 83.751 150.544 82.7663 150.943 81.6824C151.342 80.5985 151.547 79.4367 151.547 78.2634C151.547 77.0901 151.342 75.9283 150.943 74.8445C150.544 73.7606 149.96 72.7759 149.224 71.9466Z" fill="#F7B923"/>
<path d="M139.454 83.1377L133.783 76.7461L128.112 83.1377C126.781 84.6397 125.968 86.6265 125.818 88.7425C125.668 90.8585 126.192 92.9655 127.295 94.6861L128.251 95.7638C128.974 96.5907 129.835 97.2474 130.784 97.6956C131.734 98.1438 132.753 98.3746 133.783 98.3746C134.812 98.3746 135.832 98.1438 136.781 97.6956C137.731 97.2474 138.592 96.5907 139.314 95.7638L140.271 94.6861C141.374 92.9655 141.897 90.8585 141.747 88.7425C141.598 86.6265 140.785 84.6397 139.454 83.1377V83.1377Z" fill="#EE2E7E"/>
<path d="M7.78664 91.1987H17.9799V97.9346H0.00390625V61.9648H7.78664V91.1987Z" fill="#4E132C"/>
<path d="M31.3796 65.0171C30.9551 64.5991 30.6165 64.082 30.3872 63.5017C30.1578 62.9214 30.0433 62.2919 30.0514 61.6567C30.041 61.0145 30.1544 60.3775 30.3837 59.7896C30.613 59.2016 30.9528 58.6768 31.3796 58.2513C32.2878 57.3293 33.4783 56.8409 34.6998 56.8891C35.9225 56.8329 37.1156 57.3224 38.0201 58.2513C38.4445 58.679 38.7826 59.2043 39.0117 59.7917C39.2408 60.3791 39.3556 61.015 39.3482 61.6567C39.3551 62.2916 39.2399 62.9207 39.0107 63.5008C38.7814 64.0809 38.4435 64.5982 38.0201 65.0171C37.1156 65.9461 35.9225 66.4355 34.6998 66.3793C33.4783 66.4275 32.2878 65.9391 31.3796 65.0171V65.0171ZM38.5912 69.3506V97.9707H30.8085V69.3506H38.5912Z" fill="#4E132C"/>
<path d="M64.2491 70.1758C65.6964 69.3309 67.3078 68.9065 68.9374 68.9409C70.9476 68.9148 72.9225 69.5381 74.6283 70.7371C76.3671 71.9904 77.7608 73.766 78.6525 75.8639C79.6287 78.3021 80.1335 80.9465 80.1335 83.6214C80.1335 86.2964 79.6287 88.9408 78.6525 91.379C77.7618 93.4915 76.3688 95.2843 74.6283 96.5581C72.9269 97.7709 70.9503 98.4026 68.9374 98.3768C67.3108 98.4203 65.7001 98.0089 64.2491 97.1793C62.97 96.4329 61.8835 95.327 61.0948 93.9686V97.9727H53.332V60.0195H61.0948V73.4016C61.8692 72.0256 62.959 70.9111 64.2491 70.1758V70.1758ZM70.5975 78.4535C70.0853 77.8466 69.4664 77.3667 68.7803 77.0446C68.0943 76.7224 67.3562 76.565 66.6132 76.5824C65.8751 76.5696 65.143 76.7323 64.4645 77.0599C63.786 77.3875 63.1763 77.8725 62.6753 78.4834C61.631 79.9531 61.062 81.7797 61.062 83.6626C61.062 85.5454 61.631 87.3721 62.6753 88.8418C63.1845 89.4443 63.797 89.924 64.4756 90.2518C65.1542 90.5796 65.8848 90.7486 66.6231 90.7486C67.3614 90.7486 68.092 90.5796 68.7706 90.2518C69.4493 89.924 70.0617 89.4443 70.5709 88.8418C71.1371 88.1336 71.573 87.306 71.8534 86.4067C72.1338 85.5074 72.2531 84.5544 72.2045 83.6027C72.2515 82.6674 72.1338 81.7308 71.8579 80.847C71.5821 79.9632 71.1537 79.1497 70.5975 78.4535V78.4535Z" fill="#4E132C"/>
<path d="M104.517 70.4038C105.898 69.4924 107.473 69.0215 109.073 69.0416V78.3222H106.915C104.967 78.3222 103.51 78.7937 102.545 79.7368C101.569 80.6723 101.084 82.3264 101.084 84.6839V97.9687H93.3281V69.3485H101.104V74.1011C101.971 72.5863 103.14 71.3204 104.517 70.4038V70.4038Z" fill="#4E132C"/>
<path d="M173.094 70.4038C174.473 69.4923 176.045 69.0213 177.643 69.0416V78.3222H175.505C173.557 78.3222 172.101 78.7938 171.135 79.7368C170.166 80.6723 169.681 82.3264 169.681 84.6839V97.9687H161.898V69.3485H169.681V74.1011C170.547 72.5847 171.716 71.3184 173.094 70.4038V70.4038Z" fill="#4E132C"/>
<path d="M216.412 69.3496L200.475 111.554H192.114L197.938 96.9893L187.605 69.3496H196.298L202.168 87.2447L207.992 69.3496H216.412Z" fill="#4E132C"/>
</svg>
