<svg width="217" height="112" viewBox="0 0 217 112" fill="none" xmlns="http://www.w3.org/2000/svg">
<path d="M51.2749 21.593L56.9459 15.2014L52.6893 10.3964C51.1969 8.75962 49.1927 7.85091 47.1104 7.86691C45.028 7.8829 43.035 8.82232 41.5625 10.4819C40.0901 12.1415 39.2566 14.3877 39.2424 16.7347C39.2282 19.0816 40.0344 21.3405 41.4867 23.0225L50.4714 33.1339C49.3672 31.4161 48.8416 29.3115 48.9889 27.1968C49.1361 25.0821 49.9465 23.0956 51.2749 21.593V21.593Z" fill="#65CDF0"/>
<path d="M72.3846 10.3959C70.899 8.72174 68.8841 7.78125 66.7833 7.78125C64.6825 7.78125 62.6676 8.72174 61.182 10.3959L56.9453 15.2008L62.623 21.5924C63.9534 23.0932 64.7662 25.0787 64.9159 27.1935C65.0656 29.3082 64.5423 31.4139 63.4398 33.1333L72.3846 23.022C73.87 21.3475 74.7045 19.0767 74.7045 16.7089C74.7045 14.3411 73.87 12.0703 72.3846 10.3959V10.3959Z" fill="#F7B923"/>
<path d="M62.6239 21.5918L56.9462 15.2002L51.2752 21.5918C49.9468 23.0944 49.1364 25.081 48.9891 27.1956C48.8419 29.3103 49.3675 31.415 50.4716 33.1327L51.4345 34.2179C52.1558 35.0455 53.0162 35.7028 53.9654 36.1515C54.9145 36.6002 55.9335 36.8313 56.9628 36.8313C57.9921 36.8313 59.0111 36.6002 59.9602 36.1515C60.9094 35.7028 61.7698 35.0455 62.4911 34.2179L63.4539 33.1327C64.5548 31.4116 65.0758 29.3048 64.9237 27.1901C64.7716 25.0753 63.9563 23.0907 62.6239 21.5918V21.5918Z" fill="#EE2E7E"/>
<path d="M2.04817 8.85405C3.37144 6.12217 5.35062 3.86556 7.75906 2.34267C10.2994 0.759055 13.1638 -0.046094 16.0664 0.00755084C19.5528 -0.0988955 22.9735 1.0898 25.8015 3.39048C28.508 5.66121 30.423 8.92914 31.2135 12.6262H22.6605C22.0894 11.1988 21.1468 10.0007 19.9578 9.19085C18.751 8.39233 17.3726 7.98324 15.9734 8.00832C14.8782 7.96603 13.7882 8.19703 12.7815 8.68481C11.7747 9.17259 10.876 9.90509 10.1497 10.8299C8.66217 12.706 7.91843 15.2182 7.91843 18.3667C7.91843 21.5176 8.66217 24.0248 10.1497 25.9109C10.8763 26.8348 11.7753 27.5661 12.7821 28.0527C13.7889 28.5392 14.8787 28.7688 15.9734 28.725C17.372 28.7527 18.7505 28.3462 19.9578 27.55C21.1468 26.7401 22.0894 25.542 22.6605 24.1146H31.2135C30.4262 27.807 28.5071 31.0673 25.7948 33.3204C22.9649 35.6085 19.5479 36.7889 16.0664 36.6809C13.1644 36.7368 10.3 35.9342 7.75906 34.3532C5.35443 32.8348 3.37587 30.5867 2.04817 27.8643C0.653377 24.9492 -0.0510565 21.6781 0.00288012 18.3667C-0.0482683 15.0508 0.655927 11.7757 2.04817 8.85405V8.85405Z" fill="#4E132C"/>
<path d="M96.2925 8.85436C97.669 7.94485 99.239 7.47402 100.835 7.49221V16.7728H98.6964C96.7573 16.7728 95.303 17.2418 94.3335 18.1799C93.364 19.1179 92.877 20.767 92.8726 23.127V36.4192H85.0898V7.80655H92.8726V12.5741C93.7399 11.0508 94.911 9.77704 96.2925 8.85436V8.85436Z" fill="#4E132C"/>
<path d="M137.461 24.2111H119.857C119.884 25.7397 120.428 27.1991 121.378 28.29C122.276 29.2353 123.47 29.7412 124.698 29.6971C125.544 29.7669 126.388 29.5386 127.114 29.0438C127.84 28.549 128.411 27.8122 128.749 26.9354H137.03C136.612 28.8 135.827 30.5345 134.732 32.0098C133.601 33.5309 132.177 34.7415 130.568 35.5499C128.806 36.4254 126.896 36.8619 124.971 36.8297C122.657 36.8779 120.372 36.2596 118.33 35.0334C116.401 33.8701 114.812 32.1026 113.755 29.9441C112.627 27.5447 112.065 24.8596 112.121 22.1454C112.066 19.4363 112.621 16.7557 113.735 14.3542C114.766 12.1818 116.341 10.399 118.264 9.22739C120.321 7.9975 122.622 7.37927 124.951 7.43115C127.221 7.37329 129.468 7.96011 131.485 9.13758C133.373 10.2727 134.929 11.9985 135.967 14.1072C137.078 16.4211 137.634 19.0213 137.581 21.6514C137.586 22.5065 137.546 23.3612 137.461 24.2111V24.2111ZM129.639 19.3387C129.669 18.6587 129.561 17.9799 129.324 17.3537C129.087 16.7274 128.727 16.1701 128.271 15.7238C127.312 14.8244 126.09 14.3601 124.844 14.4215C123.636 14.373 122.453 14.8287 121.524 15.7014C120.587 16.6382 119.992 17.9349 119.857 19.3387H129.639Z" fill="#4E132C"/>
<path d="M128.086 83.1365L133.757 76.7448L129.494 71.9474C128.007 70.273 125.992 69.3328 123.89 69.3335C121.789 69.3342 119.773 70.2758 118.288 71.9511C116.802 73.6264 115.968 75.8982 115.969 78.2668C115.969 80.6354 116.805 82.9066 118.291 84.5809L127.269 94.6998C126.163 92.9779 125.637 90.8678 125.787 88.7485C125.936 86.6291 126.752 84.6393 128.086 83.1365V83.1365Z" fill="#65CDF0"/>
<path d="M149.224 71.9462C147.738 70.272 145.723 69.3315 143.622 69.3315C141.522 69.3315 139.507 70.272 138.021 71.9462L133.758 76.7436L139.429 83.1353C140.76 84.6372 141.573 86.6241 141.723 88.7401C141.872 90.8561 141.349 92.963 140.246 94.6836L149.224 84.5797C149.96 83.7505 150.544 82.7658 150.943 81.6819C151.342 80.598 151.547 79.4362 151.547 78.2629C151.547 77.0896 151.342 75.9278 150.943 74.844C150.544 73.7601 149.96 72.7754 149.224 71.9462Z" fill="#F7B923"/>
<path d="M139.454 83.1368L133.783 76.7451L128.112 83.1368C126.781 84.6387 125.968 86.6256 125.818 88.7416C125.668 90.8576 126.192 92.9645 127.295 94.6851L128.251 95.7629C128.974 96.5897 129.835 97.2464 130.784 97.6946C131.734 98.1428 132.753 98.3737 133.783 98.3737C134.812 98.3737 135.832 98.1428 136.781 97.6946C137.731 97.2464 138.592 96.5897 139.314 95.7629L140.271 94.6851C141.374 92.9645 141.897 90.8576 141.747 88.7416C141.598 86.6256 140.785 84.6387 139.454 83.1368V83.1368Z" fill="#EE2E7E"/>
<path d="M7.78664 91.1968H17.9799V97.9327H0.00390625V61.9629H7.78664V91.1968Z" fill="#4E132C"/>
<path d="M31.3796 65.0162C30.9551 64.5981 30.6165 64.081 30.3872 63.5008C30.1578 62.9205 30.0433 62.2909 30.0514 61.6557C30.041 61.0136 30.1544 60.3765 30.3837 59.7886C30.613 59.2007 30.9528 58.6758 31.3796 58.2503C32.2878 57.3283 33.4783 56.8399 34.6998 56.8881C35.9225 56.8319 37.1156 57.3214 38.0201 58.2503C38.4445 58.678 38.7826 59.2033 39.0117 59.7907C39.2408 60.3781 39.3556 61.0141 39.3482 61.6557C39.3551 62.2906 39.2399 62.9198 39.0107 63.4998C38.7814 64.0799 38.4435 64.5972 38.0201 65.0162C37.1156 65.9451 35.9225 66.4345 34.6998 66.3783C33.4783 66.4265 32.2878 65.9381 31.3796 65.0162V65.0162ZM38.5912 69.3496V97.9698H30.8085V69.3496H38.5912Z" fill="#4E132C"/>
<path d="M64.2491 70.1753C65.6964 69.3305 67.3078 68.906 68.9374 68.9404C70.9476 68.9143 72.9225 69.5376 74.6283 70.7366C76.3671 71.9899 77.7608 73.7655 78.6525 75.8634C79.6287 78.3016 80.1335 80.946 80.1335 83.6209C80.1335 86.2959 79.6287 88.9403 78.6525 91.3785C77.7618 93.491 76.3688 95.2838 74.6283 96.5577C72.9269 97.7704 70.9503 98.4021 68.9374 98.3763C67.3108 98.4198 65.7001 98.0084 64.2491 97.1789C62.97 96.4324 61.8835 95.3265 61.0948 93.9681V97.9722H53.332V60.019H61.0948V73.4011C61.8692 72.0251 62.959 70.9106 64.2491 70.1753V70.1753ZM70.5975 78.453C70.0853 77.8461 69.4664 77.3662 68.7803 77.0441C68.0943 76.7219 67.3562 76.5645 66.6132 76.5819C65.8751 76.5692 65.143 76.7319 64.4645 77.0594C63.786 77.387 63.1763 77.872 62.6753 78.4829C61.631 79.9526 61.062 81.7793 61.062 83.6621C61.062 85.545 61.631 87.3717 62.6753 88.8413C63.1845 89.4438 63.797 89.9235 64.4756 90.2513C65.1542 90.5791 65.8848 90.7481 66.6231 90.7481C67.3614 90.7481 68.092 90.5791 68.7706 90.2513C69.4493 89.9235 70.0617 89.4438 70.5709 88.8413C71.1371 88.1332 71.573 87.3055 71.8534 86.4062C72.1338 85.5069 72.2531 84.5539 72.2045 83.6022C72.2515 82.6669 72.1338 81.7303 71.8579 80.8465C71.5821 79.9627 71.1537 79.1492 70.5975 78.453V78.453Z" fill="#4E132C"/>
<path d="M104.517 70.4028C105.898 69.4914 107.473 69.0205 109.073 69.0407V78.3213H106.915C104.967 78.3213 103.51 78.7928 102.545 79.7358C101.569 80.6713 101.084 82.3254 101.084 84.683V97.9677H93.3281V69.3475H101.104V74.1001C101.971 72.5853 103.14 71.3194 104.517 70.4028V70.4028Z" fill="#4E132C"/>
<path d="M173.094 70.4028C174.473 69.4913 176.045 69.0204 177.643 69.0407V78.3213H175.505C173.557 78.3213 172.101 78.7928 171.135 79.7358C170.166 80.6714 169.681 82.3254 169.681 84.683V97.9677H161.898V69.3475H169.681V74.1001C170.547 72.5837 171.716 71.3174 173.094 70.4028V70.4028Z" fill="#4E132C"/>
<path d="M216.412 69.3481L200.475 111.552H192.114L197.938 96.9879L187.605 69.3481H196.298L202.168 87.2432L207.992 69.3481H216.412Z" fill="#4E132C"/>
</svg>
