<svg width="217" height="112" viewBox="0 0 217 112" fill="none" xmlns="http://www.w3.org/2000/svg">
<path d="M51.2749 21.5935L56.9459 15.2019L52.6893 10.3969C51.1969 8.7601 49.1927 7.8514 47.1104 7.8674C45.028 7.88339 43.035 8.82281 41.5625 10.4824C40.0901 12.142 39.2566 14.3882 39.2424 16.7352C39.2282 19.0821 40.0344 21.341 41.4867 23.023L50.4714 33.1344C49.3672 31.4166 48.8416 29.312 48.9889 27.1973C49.1361 25.0826 49.9465 23.0961 51.2749 21.5935V21.5935Z" fill="#65CDF0"/>
<path d="M72.3846 10.3959C70.899 8.72174 68.8841 7.78125 66.7833 7.78125C64.6825 7.78125 62.6676 8.72174 61.182 10.3959L56.9453 15.2008L62.623 21.5924C63.9534 23.0932 64.7662 25.0787 64.9159 27.1935C65.0656 29.3082 64.5423 31.4139 63.4398 33.1333L72.3846 23.022C73.87 21.3475 74.7045 19.0767 74.7045 16.7089C74.7045 14.3411 73.87 12.0703 72.3846 10.3959V10.3959Z" fill="#F7B923"/>
<path d="M62.62 21.5918L56.9423 15.2002L51.2712 21.5918C49.9428 23.0944 49.1325 25.081 48.9852 27.1956C48.838 29.3103 49.3635 31.415 50.4677 33.1327L51.4306 34.2179C52.1519 35.0455 53.0123 35.7028 53.9615 36.1515C54.9106 36.6002 55.9296 36.8313 56.9589 36.8313C57.9882 36.8313 59.0071 36.6002 59.9563 36.1515C60.9055 35.7028 61.7658 35.0455 62.4872 34.2179L63.45 33.1327C64.5509 31.4116 65.0719 29.3048 64.9198 27.1901C64.7677 25.0753 63.9524 23.0907 62.62 21.5918V21.5918Z" fill="#EE2E7E"/>
<path d="M2.04817 8.85405C3.37144 6.12217 5.35062 3.86556 7.75906 2.34267C10.2994 0.759055 13.1638 -0.046094 16.0664 0.00755084C19.5528 -0.0988955 22.9735 1.0898 25.8015 3.39048C28.508 5.66121 30.423 8.92914 31.2135 12.6262H22.6605C22.0894 11.1988 21.1468 10.0007 19.9578 9.19085C18.751 8.39233 17.3726 7.98324 15.9734 8.00832C14.8782 7.96603 13.7882 8.19703 12.7815 8.68481C11.7747 9.17259 10.876 9.90509 10.1497 10.8299C8.66217 12.706 7.91843 15.2182 7.91843 18.3667C7.91843 21.5176 8.66217 24.0248 10.1497 25.9109C10.8763 26.8348 11.7753 27.5661 12.7821 28.0527C13.7889 28.5392 14.8787 28.7688 15.9734 28.725C17.372 28.7527 18.7505 28.3462 19.9578 27.55C21.1468 26.7401 22.0894 25.542 22.6605 24.1146H31.2135C30.4262 27.807 28.5071 31.0673 25.7948 33.3204C22.9649 35.6085 19.5479 36.7889 16.0664 36.6809C13.1644 36.7368 10.3 35.9342 7.75906 34.3532C5.35443 32.8348 3.37587 30.5867 2.04817 27.8643C0.653377 24.9492 -0.0510565 21.6781 0.00288012 18.3667C-0.0482683 15.0508 0.655927 11.7757 2.04817 8.85405V8.85405Z" fill="#4E132C"/>
<path d="M96.2886 8.85387C97.6651 7.94436 99.2351 7.47353 100.831 7.49172V16.7723H98.6924C96.7534 16.7723 95.2991 17.2413 94.3296 18.1794C93.3601 19.1174 92.8731 20.7665 92.8687 23.1265V36.4187H85.0859V7.80606H92.8687V12.5736C93.7359 11.0503 94.907 9.77655 96.2886 8.85387V8.85387Z" fill="#4E132C"/>
<path d="M137.461 24.2116H119.857C119.884 25.7402 120.428 27.1996 121.378 28.2905C122.276 29.2358 123.47 29.7417 124.698 29.6976C125.544 29.7674 126.388 29.5391 127.114 29.0443C127.84 28.5495 128.411 27.8127 128.749 26.9359H137.03C136.612 28.8005 135.827 30.535 134.732 32.0102C133.601 33.5313 132.177 34.742 130.568 35.5503C128.806 36.4259 126.896 36.8624 124.971 36.8302C122.657 36.8784 120.372 36.2601 118.33 35.0339C116.401 33.8706 114.812 32.1031 113.755 29.9446C112.627 27.5452 112.065 24.8601 112.121 22.1459C112.066 19.4368 112.621 16.7562 113.735 14.3547C114.766 12.1823 116.341 10.3995 118.264 9.22788C120.321 7.99799 122.622 7.37976 124.951 7.43163C127.221 7.37378 129.468 7.96059 131.485 9.13807C133.373 10.2732 134.929 11.999 135.967 14.1077C137.078 16.4216 137.634 19.0218 137.581 21.6519C137.586 22.507 137.546 23.3617 137.461 24.2116V24.2116ZM129.639 19.3392C129.669 18.6592 129.561 17.9804 129.324 17.3542C129.087 16.7279 128.727 16.1705 128.271 15.7243C127.312 14.8249 126.09 14.3606 124.844 14.422C123.636 14.3735 122.453 14.8292 121.524 15.7018C120.587 16.6387 119.992 17.9354 119.857 19.3392H129.639Z" fill="#4E132C"/>
<path d="M128.086 83.136L133.757 76.7443L129.494 71.9469C128.007 70.2725 125.992 69.3323 123.89 69.333C121.789 69.3337 119.773 70.2753 118.288 71.9506C116.802 73.6259 115.968 75.8978 115.969 78.2663C115.969 80.6349 116.805 82.9061 118.291 84.5805L127.269 94.6993C126.163 92.9774 125.637 90.8673 125.787 88.748C125.936 86.6286 126.752 84.6388 128.086 83.136V83.136Z" fill="#65CDF0"/>
<path d="M149.224 71.9466C147.738 70.2725 145.723 69.332 143.622 69.332C141.522 69.332 139.507 70.2725 138.021 71.9466L133.758 76.7441L139.429 83.1357C140.76 84.6377 141.573 86.6245 141.723 88.7405C141.872 90.8565 141.349 92.9635 140.246 94.6841L149.224 84.5802C149.96 83.751 150.544 82.7663 150.943 81.6824C151.342 80.5985 151.547 79.4367 151.547 78.2634C151.547 77.0901 151.342 75.9283 150.943 74.8445C150.544 73.7606 149.96 72.7759 149.224 71.9466Z" fill="#F7B923"/>
<path d="M139.458 83.1368L133.787 76.7451L128.116 83.1368C126.785 84.6387 125.972 86.6256 125.822 88.7416C125.672 90.8576 126.196 92.9645 127.299 94.6851L128.255 95.7629C128.977 96.5897 129.838 97.2464 130.788 97.6946C131.738 98.1428 132.757 98.3737 133.787 98.3737C134.816 98.3737 135.836 98.1428 136.785 97.6946C137.735 97.2464 138.596 96.5897 139.318 95.7629L140.274 94.6851C141.377 92.9645 141.901 90.8576 141.751 88.7416C141.602 86.6256 140.789 84.6387 139.458 83.1368V83.1368Z" fill="#EE2E7E"/>
<path d="M7.78274 91.1968H17.976V97.9327H0V61.9629H7.78274V91.1968Z" fill="#4E132C"/>
<path d="M31.3835 65.0162C30.959 64.5981 30.6204 64.081 30.3911 63.5008C30.1617 62.9205 30.0472 62.2909 30.0553 61.6557C30.0449 61.0136 30.1583 60.3765 30.3876 59.7886C30.6169 59.2007 30.9567 58.6758 31.3835 58.2503C32.2917 57.3283 33.4822 56.8399 34.7037 56.8881C35.9264 56.8319 37.1195 57.3214 38.024 58.2503C38.4484 58.678 38.7865 59.2033 39.0156 59.7907C39.2447 60.3781 39.3595 61.0141 39.3521 61.6557C39.359 62.2906 39.2438 62.9198 39.0146 63.4998C38.7853 64.0799 38.4474 64.5972 38.024 65.0162C37.1195 65.9451 35.9264 66.4345 34.7037 66.3783C33.4822 66.4265 32.2917 65.9381 31.3835 65.0162V65.0162ZM38.5951 69.3496V97.9698H30.8124V69.3496H38.5951Z" fill="#4E132C"/>
<path d="M64.253 70.1748C65.7003 69.33 67.3117 68.9055 68.9413 68.9399C70.9515 68.9138 72.9264 69.5371 74.6322 70.7361C76.371 71.9894 77.7647 73.765 78.6564 75.8629C79.6326 78.3011 80.1375 80.9455 80.1375 83.6205C80.1375 86.2954 79.6326 88.9398 78.6564 91.378C77.7657 93.4905 76.3727 95.2833 74.6322 96.5572C72.9308 97.7699 70.9543 98.4016 68.9413 98.3759C67.3147 98.4193 65.704 98.0079 64.253 97.1784C62.9739 96.4319 61.8874 95.326 61.0988 93.9676V97.9717H53.3359V60.0186H61.0988V73.4006C61.8731 72.0246 62.9629 70.9101 64.253 70.1748V70.1748ZM70.6014 78.4525C70.0892 77.8456 69.4703 77.3657 68.7842 77.0436C68.0982 76.7214 67.3601 76.564 66.6171 76.5814C65.879 76.5687 65.1469 76.7314 64.4684 77.0589C63.7899 77.3865 63.1802 77.8715 62.6792 78.4825C61.6349 79.9521 61.0659 81.7788 61.0659 83.6616C61.0659 85.5445 61.6349 87.3712 62.6792 88.8408C63.1884 89.4433 63.8009 89.9231 64.4795 90.2508C65.1581 90.5786 65.8887 90.7476 66.627 90.7476C67.3653 90.7476 68.0959 90.5786 68.7746 90.2508C69.4532 89.9231 70.0656 89.4433 70.5748 88.8408C71.141 88.1327 71.5769 87.305 71.8573 86.4057C72.1377 85.5064 72.257 84.5534 72.2084 83.6018C72.2555 82.6664 72.1377 81.7298 71.8618 80.846C71.586 79.9622 71.1576 79.1487 70.6014 78.4525V78.4525Z" fill="#4E132C"/>
<path d="M104.517 70.4028C105.898 69.4914 107.473 69.0205 109.073 69.0407V78.3213H106.915C104.967 78.3213 103.51 78.7928 102.545 79.7358C101.569 80.6713 101.084 82.3254 101.084 84.683V97.9677H93.3281V69.3475H101.104V74.1001C101.971 72.5853 103.14 71.3194 104.517 70.4028V70.4028Z" fill="#4E132C"/>
<path d="M173.094 70.4028C174.473 69.4913 176.045 69.0204 177.643 69.0407V78.3213H175.505C173.557 78.3213 172.101 78.7928 171.135 79.7358C170.166 80.6714 169.681 82.3254 169.681 84.683V97.9677H161.898V69.3475H169.681V74.1001C170.547 72.5837 171.716 71.3174 173.094 70.4028V70.4028Z" fill="#4E132C"/>
<path d="M216.408 69.3486L200.471 111.553H192.11L197.934 96.9884L187.602 69.3486H196.294L202.164 87.2437L207.988 69.3486H216.408Z" fill="#4E132C"/>
</svg>
