<svg width="218" height="112" viewBox="0 0 218 112" fill="none" xmlns="http://www.w3.org/2000/svg">
<path d="M51.9233 21.592L57.5944 15.2004L53.3378 10.3954C51.8454 8.75864 49.8412 7.84993 47.7588 7.86593C45.6765 7.88193 43.6835 8.82134 42.211 10.4809C40.7385 12.1405 39.905 14.3868 39.8908 16.7337C39.8766 19.0806 40.6829 21.3395 42.1351 23.0215L51.1198 33.1329C50.0156 31.4152 49.4901 29.3105 49.6373 27.1958C49.7845 25.0811 50.5949 23.0946 51.9233 21.592V21.592Z" fill="#65CDF0"/>
<path d="M73.0331 10.3949C71.5474 8.72076 69.5326 7.78027 67.4317 7.78027C65.3309 7.78027 63.3161 8.72076 61.8304 10.3949L57.5938 15.1998L63.2714 21.5915C64.6018 23.0922 65.4147 25.0778 65.5643 27.1925C65.714 29.3072 65.1907 31.4129 64.0882 33.1323L73.0331 23.021C74.5184 21.3466 75.3529 19.0757 75.3529 16.7079C75.3529 14.3401 74.5184 12.0693 73.0331 10.3949V10.3949Z" fill="#F7B923"/>
<path d="M63.2723 21.5906L57.5946 15.199L51.9236 21.5906C50.5952 23.0932 49.7848 25.0797 49.6376 27.1944C49.4903 29.3091 50.0159 31.4138 51.1201 33.1315L52.083 34.2167C52.8043 35.0443 53.6646 35.7016 54.6138 36.1503C55.563 36.599 56.582 36.8301 57.6112 36.8301C58.6405 36.8301 59.6595 36.599 60.6087 36.1503C61.5578 35.7016 62.4182 35.0443 63.1395 34.2167L64.1024 33.1315C65.2032 31.4103 65.7242 29.3036 65.5721 27.1888C65.42 25.0741 64.6047 23.0895 63.2723 21.5906V21.5906Z" fill="#EE2E7E"/>
<path d="M2.69661 8.85308C4.01987 6.12119 5.99906 3.86458 8.40749 2.34169C10.9478 0.758078 13.8122 -0.0470706 16.7148 0.00657428C20.2013 -0.0998721 23.622 1.08883 26.4499 3.3895C29.1565 5.66024 31.0715 8.92816 31.862 12.6252H23.3089C22.7378 11.1978 21.7952 9.99974 20.6062 9.18987C19.3994 8.39136 18.0211 7.98227 16.6219 8.00735C15.5267 7.96505 14.4367 8.19605 13.4299 8.68383C12.4231 9.17161 11.5244 9.90411 10.7981 10.8289C9.31061 12.705 8.56687 15.2173 8.56687 18.3657C8.56687 21.5166 9.31061 24.0239 10.7981 25.9099C11.5248 26.8338 12.4237 27.5652 13.4305 28.0517C14.4373 28.5382 15.5271 28.7678 16.6219 28.724C18.0205 28.7518 19.3989 28.3452 20.6062 27.549C21.7952 26.7391 22.7378 25.5411 23.3089 24.1137H31.862C31.0746 27.806 29.1555 31.0663 26.4433 33.3194C23.6133 35.6075 20.1963 36.7879 16.7148 36.6799C13.8128 36.7358 10.9485 35.9333 8.40749 34.3523C6.00286 32.8338 4.0243 30.5857 2.69661 27.8633C1.30181 24.9482 0.597381 21.6771 0.651318 18.3657C0.600169 15.0499 1.30436 11.7747 2.69661 8.85308V8.85308Z" fill="#4E132C"/>
<path d="M96.9409 8.85314C98.3175 7.94363 99.8875 7.4728 101.483 7.49099V16.7716H99.3448C97.4057 16.7716 95.9515 17.2406 94.9819 18.1786C94.0124 19.1167 93.5254 20.7657 93.521 23.1258V36.418H85.7383V7.80533H93.521V12.5729C94.3883 11.0496 95.5594 9.77582 96.9409 8.85314V8.85314Z" fill="#4E132C"/>
<path d="M138.11 24.2101H120.506C120.532 25.7387 121.076 27.1981 122.026 28.2891C122.925 29.2343 124.118 29.7402 125.347 29.6961C126.193 29.7659 127.037 29.5376 127.763 29.0428C128.488 28.548 129.06 27.8112 129.397 26.9344H137.678C137.261 28.799 136.475 30.5335 135.381 32.0088C134.249 33.5299 132.825 34.7405 131.217 35.5489C129.454 36.4244 127.545 36.861 125.619 36.8287C123.306 36.8769 121.02 36.2587 118.978 35.0325C117.049 33.8692 115.46 32.1016 114.403 29.9431C113.276 27.5438 112.713 24.8586 112.769 22.1444C112.714 19.4353 113.269 16.7547 114.383 14.3532C115.414 12.1809 116.989 10.398 118.912 9.22641C120.969 7.99652 123.271 7.37829 125.599 7.43017C127.87 7.37231 130.117 7.95913 132.133 9.1366C134.021 10.2718 135.578 11.9975 136.616 14.1062C137.726 16.4201 138.282 19.0204 138.229 21.6504C138.234 22.5056 138.194 23.3602 138.11 24.2101V24.2101ZM130.287 19.3378C130.317 18.6578 130.21 17.979 129.973 17.3527C129.736 16.7264 129.376 16.1691 128.919 15.7228C127.961 14.8234 126.739 14.3591 125.493 14.4206C124.284 14.3721 123.102 14.8277 122.172 15.7004C121.235 16.6372 120.641 17.934 120.506 19.3378H130.287Z" fill="#4E132C"/>
<path d="M128.735 83.1355L134.406 76.7438L130.142 71.9464C128.656 70.2721 126.64 69.3318 124.539 69.3325C122.437 69.3332 120.422 70.2748 118.936 71.9501C117.451 73.6254 116.617 75.8973 116.617 78.2658C116.618 80.6344 117.453 82.9056 118.94 84.58L127.918 94.6988C126.811 92.977 126.286 90.8669 126.435 88.7475C126.585 86.6281 127.4 84.6383 128.735 83.1355V83.1355Z" fill="#65CDF0"/>
<path d="M149.872 71.9452C148.386 70.2711 146.372 69.3306 144.271 69.3306C142.17 69.3306 140.155 70.2711 138.669 71.9452L134.406 76.7426L140.077 83.1343C141.408 84.6362 142.221 86.6231 142.371 88.7391C142.521 90.8551 141.997 92.962 140.894 94.6826L149.872 84.5788C150.609 83.7495 151.193 82.7648 151.591 81.6809C151.99 80.5971 152.195 79.4353 152.195 78.262C152.195 77.0887 151.99 75.9269 151.591 74.843C151.193 73.7591 150.609 72.7744 149.872 71.9452Z" fill="#F7B923"/>
<path d="M140.102 83.1355L134.431 76.7439L128.76 83.1355C127.429 84.6375 126.616 86.6243 126.466 88.7403C126.317 90.8563 126.84 92.9633 127.943 94.6839L128.9 95.7616C129.622 96.5885 130.483 97.2452 131.433 97.6934C132.382 98.1416 133.402 98.3724 134.431 98.3724C135.461 98.3724 136.48 98.1416 137.43 97.6934C138.379 97.2452 139.24 96.5885 139.963 95.7616L140.919 94.6839C142.022 92.9633 142.546 90.8563 142.396 88.7403C142.246 86.6243 141.433 84.6375 140.102 83.1355V83.1355Z" fill="#EE2E7E"/>
<path d="M8.43508 91.1958H18.6283V97.9317H0.652344V61.9619H8.43508V91.1958Z" fill="#4E132C"/>
<path d="M32.028 65.0152C31.6036 64.5972 31.2649 64.0801 31.0356 63.4998C30.8062 62.9195 30.6917 62.2899 30.6999 61.6547C30.6895 61.0126 30.8028 60.3756 31.0321 59.7876C31.2614 59.1997 31.6012 58.6748 32.028 58.2493C32.9362 57.3274 34.1267 56.839 35.3483 56.8872C36.571 56.8309 37.764 57.3204 38.6686 58.2493C39.0929 58.677 39.4311 59.2023 39.6602 59.7897C39.8893 60.3772 40.004 61.0131 39.9967 61.6547C40.0035 62.2897 39.8884 62.9188 39.6591 63.4989C39.4299 64.0789 39.0919 64.5962 38.6686 65.0152C37.764 65.9441 36.571 66.4336 35.3483 66.3773C34.1267 66.4255 32.9362 65.9372 32.028 65.0152V65.0152ZM39.2396 69.3486V97.9688H31.4569V69.3486H39.2396Z" fill="#4E132C"/>
<path d="M64.8976 70.1741C66.3448 69.3292 67.9562 68.9048 69.5858 68.9392C71.5961 68.9131 73.5709 69.5364 75.2768 70.7354C77.0155 71.9887 78.4093 73.7643 79.3009 75.8622C80.2771 78.3004 80.782 80.9448 80.782 83.6197C80.782 86.2947 80.2771 88.939 79.3009 91.3773C78.4102 93.4898 77.0172 95.2826 75.2768 96.5564C73.5753 97.7692 71.5988 98.4009 69.5858 98.3751C67.9593 98.4186 66.3485 98.0072 64.8976 97.1776C63.6185 96.4312 62.532 95.3253 61.7433 93.9668V97.971H53.9805V60.0178H61.7433V73.3998C62.5176 72.0239 63.6074 70.9094 64.8976 70.1741V70.1741ZM71.2459 78.4518C70.7337 77.8449 70.1148 77.365 69.4288 77.0428C68.7427 76.7207 68.0046 76.5633 67.2616 76.5807C66.5236 76.5679 65.7914 76.7306 65.1129 77.0582C64.4344 77.3857 63.8248 77.8708 63.3237 78.4817C62.2794 79.9513 61.7104 81.778 61.7104 83.6609C61.7104 85.5437 62.2794 87.3704 63.3237 88.8401C63.8329 89.4426 64.4454 89.9223 65.124 90.2501C65.8026 90.5779 66.5332 90.7469 67.2716 90.7469C68.0099 90.7469 68.7405 90.5779 69.4191 90.2501C70.0977 89.9223 70.7102 89.4426 71.2194 88.8401C71.7855 88.1319 72.2214 87.3043 72.5018 86.405C72.7822 85.5057 72.9016 84.5526 72.8529 83.601C72.9 82.6657 72.7822 81.729 72.5064 80.8453C72.2306 79.9615 71.8022 79.148 71.2459 78.4518V78.4518Z" fill="#4E132C"/>
<path d="M105.166 70.4021C106.547 69.4906 108.121 69.0198 109.721 69.0399V78.3205H107.563C105.615 78.3205 104.159 78.792 103.194 79.7351C102.218 80.6706 101.733 82.3247 101.733 84.6822V97.9669H93.9766V69.3468H101.753V74.0994C102.62 72.5846 103.789 71.3186 105.166 70.4021V70.4021Z" fill="#4E132C"/>
<path d="M173.743 70.4021C175.121 69.4906 176.694 69.0196 178.292 69.0399V78.3205H176.153C174.205 78.3205 172.749 78.792 171.784 79.7351C170.814 80.6706 170.33 82.3247 170.33 84.6822V97.967H162.547V69.3468H170.33V74.0994C171.195 72.583 172.364 71.3167 173.743 70.4021V70.4021Z" fill="#4E132C"/>
<path d="M217.061 69.3474L201.123 111.552H192.763L198.587 96.9871L188.254 69.3474H196.946L202.817 87.2425L208.64 69.3474H217.061Z" fill="#4E132C"/>
</svg>
