<svg width="197" height="2683" viewBox="0 0 197 2683" fill="none" xmlns="http://www.w3.org/2000/svg">
<path d="M108.561 10.9393C109.146 11.5251 109.146 12.4749 108.561 13.0607L99.0147 22.6066C98.4289 23.1924 97.4792 23.1924 96.8934 22.6066C96.3076 22.0208 96.3076 21.0711 96.8934 20.4853L105.379 12L96.8934 3.51472C96.3076 2.92893 96.3076 1.97919 96.8934 1.3934C97.4792 0.807611 98.4289 0.807611 99.0147 1.3934L108.561 10.9393ZM2 2646V2647.5H0.5V2646H2ZM195.5 2646V2644.5H197V2646H195.5ZM0.5 2622.5V1820.5H3.5V2622.5H0.5ZM0.5 1820.5V1721H3.5V1820.5H0.5ZM0.5 1721V32H3.5V1721H0.5ZM22 10.5H107.5V13.5H22V10.5ZM3.5 2622.5V2646H0.5V2622.5H3.5ZM2 2644.5H195.5V2647.5H2V2644.5ZM197 2646V2683H194V2646H197ZM0.5 32C0.5 20.1259 10.1259 10.5 22 10.5V13.5C11.7827 13.5 3.5 21.7828 3.5 32H0.5Z" fill="black"/>
</svg>
