<svg width="1010" height="94" viewBox="0 0 1010 94" fill="none" xmlns="http://www.w3.org/2000/svg">
<path d="M1009 56.6552V57.6552H1010V56.6552H1009ZM8 56.6552V55.6552H7V56.6552H8ZM7.29289 93.7071C7.68342 94.0976 8.31658 94.0976 8.70711 93.7071L15.0711 87.3431C15.4616 86.9526 15.4616 86.3195 15.0711 85.9289C14.6805 85.5384 14.0474 85.5384 13.6569 85.9289L8 91.5858L2.34315 85.9289C1.95262 85.5384 1.31946 85.5384 0.928932 85.9289C0.538408 86.3195 0.538408 86.9526 0.928932 87.3431L7.29289 93.7071ZM1008 0V56.6552H1010V0H1008ZM1009 55.6552H8V57.6552H1009V55.6552ZM8 56.6552C7 56.6552 7 56.6553 7 56.6554C7 56.6556 7 56.6558 7 56.6562C7 56.6565 7 56.6569 7 56.6575C7 56.658 7 56.6585 7 56.6592C7 56.6599 7 56.6606 7 56.6615C7 56.6623 7 56.6632 7 56.6643C7 56.6653 7 56.6663 7 56.6675C7 56.6687 7 56.6699 7 56.6713C7 56.6726 7 56.674 7 56.6755C7 56.677 7 56.6786 7 56.6803C7 56.682 7 56.6837 7 56.6856C7 56.6874 7 56.6893 7 56.6913C7 56.6933 7 56.6954 7 56.6975C7 56.6997 7 56.7019 7 56.7042C7 56.7066 7 56.709 7 56.7115C7 56.7139 7 56.7165 7 56.7192C7 56.7218 7 56.7245 7 56.7273C7 56.7301 7 56.733 7 56.736C7 56.739 7 56.742 7 56.7452C7 56.7483 7 56.7515 7 56.7548C7 56.7581 7 56.7614 7 56.7649C7 56.7683 7 56.7719 7 56.7755C7 56.7791 7 56.7828 7 56.7865C7 56.7903 7 56.7942 7 56.7981C7 56.802 7 56.806 7 56.8101C7 56.8142 7 56.8184 7 56.8226C7 56.8268 7 56.8312 7 56.8356C7 56.84 7 56.8444 7 56.849C7 56.8535 7 56.8582 7 56.8629C7 56.8676 7 56.8724 7 56.8773C7 56.8821 7 56.8871 7 56.8921C7 56.8971 7 56.9022 7 56.9074C7 56.9126 7 56.9178 7 56.9232C7 56.9285 7 56.9339 7 56.9394C7 56.9449 7 56.9505 7 56.9561C7 56.9617 7 56.9675 7 56.9732C7 56.979 7 56.9849 7 56.9909C7 56.9968 7 57.0028 7 57.0089C7 57.015 7 57.0212 7 57.0274C7 57.0337 7 57.04 7 57.0464C7 57.0528 7 57.0593 7 57.0658C7 57.0724 7 57.079 7 57.0857C7 57.0924 7 57.0992 7 57.1061C7 57.1129 7 57.1198 7 57.1268C7 57.1338 7 57.1409 7 57.1481C7 57.1552 7 57.1624 7 57.1697C7 57.177 7 57.1844 7 57.1919C7 57.1993 7 57.2068 7 57.2144C7 57.222 7 57.2297 7 57.2374C7 57.2452 7 57.253 7 57.2609C7 57.2688 7 57.2767 7 57.2848C7 57.2928 7 57.3009 7 57.3091C7 57.3173 7 57.3255 7 57.3339C7 57.3422 7 57.3506 7 57.3591C7 57.3675 7 57.3761 7 57.3847C7 57.3933 7 57.402 7 57.4108C7 57.4195 7 57.4284 7 57.4373C7 57.4462 7 57.4551 7 57.4642C7 57.4732 7 57.4823 7 57.4915C7 57.5007 7 57.51 7 57.5193C7 57.5287 7 57.5381 7 57.5475C7 57.557 7 57.5666 7 57.5762C7 57.5858 7 57.5955 7 57.6052C7 57.615 7 57.6248 7 57.6347C7 57.6446 7 57.6546 7 57.6646C7 57.6746 7 57.6848 7 57.6949C7 57.7051 7 57.7154 7 57.7257C7 57.736 7 57.7464 7 57.7568C7 57.7673 7 57.7778 7 57.7884C7 57.799 7 57.8097 7 57.8204C7 57.8311 7 57.8419 7 57.8528C7 57.8637 7 57.8746 7 57.8856C7 57.8966 7 57.9077 7 57.9188C7 57.93 7 57.9412 7 57.9524C7 57.9637 7 57.9751 7 57.9865C7 57.9979 7 58.0094 7 58.0209C7 58.0325 7 58.0441 7 58.0558C7 58.0675 7 58.0792 7 58.091C7 58.1028 7 58.1147 7 58.1267C7 58.1386 7 58.1506 7 58.1627C7 58.1748 7 58.187 7 58.1992C7 58.2114 7 58.2237 7 58.236C7 58.2484 7 58.2608 7 58.2733C7 58.2858 7 58.2983 7 58.3109C7 58.3235 7 58.3362 7 58.349C7 58.3617 7 58.3745 7 58.3874C7 58.4003 7 58.4132 7 58.4262C7 58.4392 7 58.4523 7 58.4654C7 58.4785 7 58.4917 7 58.505C7 58.5183 7 58.5316 7 58.545C7 58.5584 7 58.5718 7 58.5854C7 58.5989 7 58.6125 7 58.6261C7 58.6398 7 58.6535 7 58.6673C7 58.681 7 58.6949 7 58.7088C7 58.7227 7 58.7367 7 58.7507C7 58.7647 7 58.7788 7 58.793C7 58.8071 7 58.8213 7 58.8356C7 58.8499 7 58.8643 7 58.8787C7 58.8931 7 58.9075 7 58.9221C7 58.9366 7 58.9512 7 58.9659C7 58.9805 7 58.9952 7 59.01C7 59.0248 7 59.0396 7 59.0545C7 59.0694 7 59.0844 7 59.0994C7 59.1145 7 59.1296 7 59.1447C7 59.1599 7 59.1751 7 59.1903C7 59.2056 7 59.2209 7 59.2363C7 59.2517 7 59.2672 7 59.2827C7 59.2982 7 59.3138 7 59.3294C7 59.3451 7 59.3608 7 59.3765C7 59.3923 7 59.4081 7 59.424C7 59.4398 7 59.4558 7 59.4718C7 59.4878 7 59.5038 7 59.5199C7 59.536 7 59.5522 7 59.5684C7 59.5847 7 59.601 7 59.6173C7 59.6337 7 59.6501 7 59.6666C7 59.683 7 59.6995 7 59.7161C7 59.7327 7 59.7494 7 59.7661C7 59.7828 7 59.7995 7 59.8163C7 59.8332 7 59.85 7 59.867C7 59.8839 7 59.9009 7 59.918C7 59.935 7 59.9521 7 59.9693C7 59.9864 7 60.0037 7 60.0209C7 60.0382 7 60.0556 7 60.0729C7 60.0903 7 60.1078 7 60.1253C7 60.1428 7 60.1604 7 60.178C7 60.1956 7 60.2133 7 60.231C7 60.2488 7 60.2665 7 60.2844C7 60.3022 7 60.3201 7 60.3381C7 60.356 7 60.3741 7 60.3921C7 60.4102 7 60.4283 7 60.4465C7 60.4647 7 60.4829 7 60.5012C7 60.5195 7 60.5378 7 60.5562C7 60.5746 7 60.5931 7 60.6116C7 60.6301 7 60.6487 7 60.6673C7 60.6859 7 60.7046 7 60.7233C7 60.742 7 60.7608 7 60.7796C7 60.7985 7 60.8174 7 60.8363C7 60.8553 7 60.8742 7 60.8933C7 60.9123 7 60.9315 7 60.9506C7 60.9698 7 60.989 7 61.0082C7 61.0275 7 61.0468 7 61.0662C7 61.0856 7 61.105 7 61.1245C7 61.1439 7 61.1635 7 61.183C7 61.2026 7 61.2222 7 61.2419C7 61.2616 7 61.2814 7 61.3011C7 61.3209 7 61.3408 7 61.3607C7 61.3806 7 61.4005 7 61.4205C7 61.4405 7 61.4605 7 61.4806C7 61.5007 7 61.5209 7 61.5411C7 61.5613 7 61.5815 7 61.6018C7 61.6221 7 61.6425 7 61.6629C7 61.6833 7 61.7038 7 61.7243C7 61.7448 7 61.7653 7 61.7859C7 61.8065 7 61.8272 7 61.8479C7 61.8686 7 61.8894 7 61.9102C7 61.931 7 61.9518 7 61.9727C7 61.9936 7 62.0146 7 62.0356C7 62.0566 7 62.0777 7 62.0988C7 62.1199 7 62.141 7 62.1622C7 62.1834 7 62.2047 7 62.226C7 62.2473 7 62.2686 7 62.29C7 62.3114 7 62.3328 7 62.3543C7 62.3758 7 62.3974 7 62.4189C7 62.4405 7 62.4622 7 62.4838C7 62.5055 7 62.5273 7 62.549C7 62.5708 7 62.5926 7 62.6145C7 62.6364 7 62.6583 7 62.6803C7 62.7022 7 62.7242 7 62.7463C7 62.7684 7 62.7905 7 62.8126C7 62.8348 7 62.857 7 62.8792C7 62.9015 7 62.9238 7 62.9461C7 62.9685 7 62.9908 7 63.0133C7 63.0357 7 63.0582 7 63.0807C7 63.1032 7 63.1258 7 63.1484C7 63.171 7 63.1937 7 63.2164C7 63.2391 7 63.2618 7 63.2846C7 63.3074 7 63.3303 7 63.3532C7 63.376 7 63.399 7 63.4219C7 63.4449 7 63.4679 7 63.491C7 63.5141 7 63.5372 7 63.5603C7 63.5835 7 63.6067 7 63.6299C7 63.6532 7 63.6764 7 63.6998C7 63.7231 7 63.7465 7 63.7699C7 63.7933 7 63.8168 7 63.8403C7 63.8638 7 63.8873 7 63.9109C7 63.9345 7 63.9581 7 63.9818C7 64.0055 7 64.0292 7 64.0529C7 64.0767 7 64.1005 7 64.1243C7 64.1482 7 64.1721 7 64.196C7 64.2199 7 64.2439 7 64.2679C7 64.2919 7 64.316 7 64.3401C7 64.3642 7 64.3883 7 64.4125C7 64.4366 7 64.4609 7 64.4851C7 64.5094 7 64.5337 7 64.558C7 64.5824 7 64.6068 7 64.6312C7 64.6556 7 64.6801 7 64.7046C7 64.7291 7 64.7536 7 64.7782C7 64.8028 7 64.8274 7 64.8521C7 64.8768 7 64.9015 7 64.9262C7 64.951 7 64.9758 7 65.0006C7 65.0254 7 65.0503 7 65.0752C7 65.1001 7 65.125 7 65.15C7 65.175 7 65.2 7 65.2251C7 65.2502 7 65.2753 7 65.3004C7 65.3255 7 65.3507 7 65.3759C7 65.4012 7 65.4264 7 65.4517C7 65.477 7 65.5023 7 65.5277C7 65.5531 7 65.5785 7 65.6039C7 65.6294 7 65.6549 7 65.6804C7 65.7059 7 65.7315 7 65.7571C7 65.7827 7 65.8083 7 65.834C7 65.8596 7 65.8854 7 65.9111C7 65.9368 7 65.9626 7 65.9884C7 66.0143 7 66.0401 7 66.066C7 66.0919 7 66.1178 7 66.1438C7 66.1698 7 66.1958 7 66.2218C7 66.2478 7 66.2739 7 66.3C7 66.3261 7 66.3523 7 66.3785C7 66.4046 7 66.4309 7 66.4571C7 66.4834 7 66.5097 7 66.536C7 66.5623 7 66.5887 7 66.6151C7 66.6414 7 66.6679 7 66.6943C7 66.7208 7 66.7473 7 66.7738C7 66.8004 7 66.8269 7 66.8535C7 66.8801 7 66.9068 7 66.9334C7 66.9601 7 66.9868 7 67.0135C7 67.0403 7 67.067 7 67.0938C7 67.1206 7 67.1475 7 67.1744C7 67.2012 7 67.2281 7 67.2551C7 67.282 7 67.309 7 67.336C7 67.363 7 67.39 7 67.4171C7 67.4442 7 67.4713 7 67.4984C7 67.5255 7 67.5527 7 67.5799C7 67.6071 7 67.6343 7 67.6616C7 67.6888 7 67.7161 7 67.7435C7 67.7708 7 67.7981 7 67.8255C7 67.8529 7 67.8803 7 67.9078C7 67.9353 7 67.9627 7 67.9903C7 68.0178 7 68.0453 7 68.0729C7 68.1005 7 68.1281 7 68.1557C7 68.1834 7 68.211 7 68.2387C7 68.2664 7 68.2942 7 68.3219C7 68.3497 7 68.3775 7 68.4053C7 68.4331 7 68.461 7 68.4888C7 68.5167 7 68.5446 7 68.5726C7 68.6005 7 68.6285 7 68.6565C7 68.6845 7 68.7125 7 68.7406C7 68.7686 7 68.7967 7 68.8248C7 68.8529 7 68.8811 7 68.9093C7 68.9374 7 68.9656 7 68.9939C7 69.0221 7 69.0503 7 69.0786C7 69.1069 7 69.1352 7 69.1636C7 69.1919 7 69.2203 7 69.2487C7 69.2771 7 69.3055 7 69.334C7 69.3624 7 69.3909 7 69.4194C7 69.4479 7 69.4764 7 69.505C7 69.5336 7 69.5622 7 69.5908C7 69.6194 7 69.648 7 69.6767C7 69.7054 7 69.7341 7 69.7628C7 69.7915 7 69.8203 7 69.849C7 69.8778 7 69.9066 7 69.9355C7 69.9643 7 69.9931 7 70.022C7 70.0509 7 70.0798 7 70.1087C7 70.1377 7 70.1666 7 70.1956C7 70.2246 7 70.2536 7 70.2826C7 70.3116 7 70.3407 7 70.3698C7 70.3989 7 70.428 7 70.4571C7 70.4862 7 70.5154 7 70.5446C7 70.5738 7 70.603 7 70.6322C7 70.6614 7 70.6907 7 70.7199C7 70.7492 7 70.7785 7 70.8078C7 70.8372 7 70.8665 7 70.8959C7 70.9253 7 70.9547 7 70.9841C7 71.0135 7 71.0429 7 71.0724C7 71.1019 7 71.1313 7 71.1609C7 71.1904 7 71.2199 7 71.2495C7 71.279 7 71.3086 7 71.3382C7 71.3678 7 71.3974 7 71.4271C7 71.4567 7 71.4864 7 71.5161C7 71.5458 7 71.5755 7 71.6052C7 71.6349 7 71.6647 7 71.6945C7 71.7242 7 71.754 7 71.7839C7 71.8137 7 71.8435 7 71.8734C7 71.9032 7 71.9331 7 71.963C7 71.9929 7 72.0228 7 72.0528C7 72.0827 7 72.1127 7 72.1427C7 72.1727 7 72.2027 7 72.2327C7 72.2627 7 72.2928 7 72.3228C7 72.3529 7 72.383 7 72.4131C7 72.4432 7 72.4733 7 72.5035C7 72.5336 7 72.5638 7 72.5939C7 72.6241 7 72.6543 7 72.6846C7 72.7148 7 72.745 7 72.7753C7 72.8055 7 72.8358 7 72.8661C7 72.8964 7 72.9267 7 72.9571C7 72.9874 7 73.0177 7 73.0481C7 73.0785 7 73.1089 7 73.1393C7 73.1697 7 73.2001 7 73.2305C7 73.261 7 73.2914 7 73.3219C7 73.3524 7 73.3829 7 73.4134C7 73.4439 7 73.4744 7 73.505C7 73.5355 7 73.5661 7 73.5967C7 73.6272 7 73.6578 7 73.6884C7 73.7191 7 73.7497 7 73.7803C7 73.811 7 73.8416 7 73.8723C7 73.903 7 73.9337 7 73.9644C7 73.9951 7 74.0258 7 74.0566C7 74.0873 7 74.1181 7 74.1488C7 74.1796 7 74.2104 7 74.2412C7 74.272 7 74.3028 7 74.3336C7 74.3645 7 74.3953 7 74.4262C7 74.4571 7 74.4879 7 74.5188C7 74.5497 7 74.5806 7 74.6115C7 74.6425 7 74.6734 7 74.7043C7 74.7353 7 74.7663 7 74.7972C7 74.8282 7 74.8592 7 74.8902C7 74.9212 7 74.9522 7 74.9832C7 75.0143 7 75.0453 7 75.0764C7 75.1074 7 75.1385 7 75.1696C7 75.2007 7 75.2318 7 75.2629C7 75.294 7 75.3251 7 75.3562C7 75.3874 7 75.4185 7 75.4497C7 75.4808 7 75.512 7 75.5432C7 75.5744 7 75.6056 7 75.6368C7 75.668 7 75.6992 7 75.7304C7 75.7617 7 75.7929 7 75.8242C7 75.8554 7 75.8867 7 75.918C7 75.9492 7 75.9805 7 76.0118C7 76.0431 7 76.0744 7 76.1057C7 76.1371 7 76.1684 7 76.1997C7 76.2311 7 76.2624 7 76.2938C7 76.3251 7 76.3565 7 76.3879C7 76.4193 7 76.4507 7 76.4821C7 76.5135 7 76.5449 7 76.5763C7 76.6077 7 76.6392 7 76.6706C7 76.702 7 76.7335 7 76.765C7 76.7964 7 76.8279 7 76.8594C7 76.8908 7 76.9223 7 76.9538C7 76.9853 7 77.0168 7 77.0483C7 77.0798 7 77.1114 7 77.1429C7 77.1744 7 77.2059 7 77.2375C7 77.269 7 77.3006 7 77.3321C7 77.3637 7 77.3953 7 77.4268C7 77.4584 7 77.49 7 77.5216C7 77.5532 7 77.5848 7 77.6164C7 77.648 7 77.6796 7 77.7112C7 77.7428 7 77.7745 7 77.8061C7 77.8377 7 77.8694 7 77.901C7 77.9327 7 77.9643 7 77.996C7 78.0276 7 78.0593 7 78.091C7 78.1226 7 78.1543 7 78.186C7 78.2177 7 78.2494 7 78.281C7 78.3127 7 78.3444 7 78.3761C7 78.4078 7 78.4396 7 78.4713C7 78.503 7 78.5347 7 78.5664C7 78.5981 7 78.6299 7 78.6616C7 78.6933 7 78.7251 7 78.7568C7 78.7886 7 78.8203 7 78.8521C7 78.8838 7 78.9156 7 78.9473C7 78.9791 7 79.0109 7 79.0426C7 79.0744 7 79.1062 7 79.1379C7 79.1697 7 79.2015 7 79.2333C7 79.2651 7 79.2968 7 79.3286C7 79.3604 7 79.3922 7 79.424C7 79.4558 7 79.4876 7 79.5194C7 79.5512 7 79.583 7 79.6148C7 79.6466 7 79.6784 7 79.7102C7 79.742 7 79.7738 7 79.8056C7 79.8374 7 79.8693 7 79.9011C7 79.9329 7 79.9647 7 79.9965C7 80.0284 7 80.0602 7 80.092C7 80.1238 7 80.1556 7 80.1875C7 80.2193 7 80.2511 7 80.2829C7 80.3148 7 80.3466 7 80.3784C7 80.4103 7 80.4421 7 80.4739C7 80.5057 7 80.5376 7 80.5694C7 80.6012 7 80.6331 7 80.6649C7 80.6967 7 80.7286 7 80.7604C7 80.7922 7 80.824 7 80.8559C7 80.8877 7 80.9195 7 80.9513C7 80.9832 7 81.015 7 81.0468C7 81.0787 7 81.1105 7 81.1423C7 81.1741 7 81.2059 7 81.2378C7 81.2696 7 81.3014 7 81.3332C7 81.365 7 81.3969 7 81.4287C7 81.4605 7 81.4923 7 81.5241C7 81.5559 7 81.5877 7 81.6195C7 81.6513 7 81.6831 7 81.7149C7 81.7467 7 81.7785 7 81.8103C7 81.8421 7 81.8739 7 81.9057C7 81.9375 7 81.9693 7 82.0011C7 82.0329 7 82.0646 7 82.0964C7 82.1282 7 82.16 7 82.1917C7 82.2235 7 82.2553 7 82.287C7 82.3188 7 82.3506 7 82.3823C7 82.4141 7 82.4458 7 82.4776C7 82.5093 7 82.541 7 82.5728C7 82.6045 7 82.6363 7 82.668C7 82.6997 7 82.7314 7 82.7632C7 82.7949 7 82.8266 7 82.8583C7 82.89 7 82.9217 7 82.9534C7 82.9851 7 83.0168 7 83.0485C7 83.0802 7 83.1118 7 83.1435C7 83.1752 7 83.2068 7 83.2385C7 83.2702 7 83.3018 7 83.3335C7 83.3651 7 83.3968 7 83.4284C7 83.46 7 83.4917 7 83.5233C7 83.5549 7 83.5865 7 83.6181C7 83.6498 7 83.6814 7 83.713C7 83.7446 7 83.7761 7 83.8077C7 83.8393 7 83.8709 7 83.9024C7 83.934 7 83.9656 7 83.9971C7 84.0287 7 84.0602 7 84.0917C7 84.1233 7 84.1548 7 84.1863C7 84.2178 7 84.2493 7 84.2808C7 84.3123 7 84.3438 7 84.3753C7 84.4068 7 84.4383 7 84.4697C7 84.5012 7 84.5327 7 84.5641C7 84.5956 7 84.627 7 84.6584C7 84.6898 7 84.7213 7 84.7527C7 84.7841 7 84.8155 7 84.8469C7 84.8783 7 84.9096 7 84.941C7 84.9724 7 85.0037 7 85.0351C7 85.0664 7 85.0978 7 85.1291C7 85.1604 7 85.1917 7 85.223C7 85.2543 7 85.2856 7 85.3169C7 85.3482 7 85.3795 7 85.4107C7 85.442 7 85.4733 7 85.5045C7 85.5357 7 85.567 7 85.5982C7 85.6294 7 85.6606 7 85.6918C7 85.723 7 85.7542 7 85.7853C7 85.8165 7 85.8477 7 85.8788C7 85.9099 7 85.9411 7 85.9722C7 86.0033 7 86.0344 7 86.0655C7 86.0966 7 86.1277 7 86.1587C7 86.1898 7 86.2209 7 86.2519C7 86.2829 7 86.314 7 86.345C7 86.376 7 86.407 7 86.438C7 86.469 7 86.4999 7 86.5309C7 86.5619 7 86.5928 7 86.6237C7 86.6547 7 86.6856 7 86.7165C7 86.7474 7 86.7783 7 86.8091C7 86.84 7 86.8709 7 86.9017C7 86.9326 7 86.9634 7 86.9942C7 87.025 7 87.0558 7 87.0866C7 87.1174 7 87.1481 7 87.1789C7 87.2096 7 87.2404 7 87.2711C7 87.3018 7 87.3325 7 87.3632C7 87.3939 7 87.4246 7 87.4552C7 87.4859 7 87.5165 7 87.5471C7 87.5778 7 87.6084 7 87.639C7 87.6696 7 87.7001 7 87.7307C7 87.7613 7 87.7918 7 87.8223C7 87.8528 7 87.8833 7 87.9138C7 87.9443 7 87.9748 7 88.0052C7 88.0357 7 88.0661 7 88.0965C7 88.127 7 88.1574 7 88.1878C7 88.2181 7 88.2485 7 88.2788C7 88.3092 7 88.3395 7 88.3698C7 88.4001 7 88.4304 7 88.4607C7 88.491 7 88.5212 7 88.5515C7 88.5817 7 88.6119 7 88.6421C7 88.6723 7 88.7025 7 88.7326C7 88.7628 7 88.7929 7 88.8231C7 88.8532 7 88.8833 7 88.9134C7 88.9434 7 88.9735 7 89.0035C7 89.0336 7 89.0636 7 89.0936C7 89.1236 7 89.1536 7 89.1835C7 89.2135 7 89.2434 7 89.2733C7 89.3033 7 89.3332 7 89.363C7 89.3929 7 89.4228 7 89.4526C7 89.4824 7 89.5122 7 89.542C7 89.5718 7 89.6016 7 89.6313C7 89.6611 7 89.6908 7 89.7205C7 89.7502 7 89.7799 7 89.8096C7 89.8392 7 89.8689 7 89.8985C7 89.9281 7 89.9577 7 89.9873C7 90.0168 7 90.0464 7 90.0759C7 90.1055 7 90.135 7 90.1644C7 90.1939 7 90.2234 7 90.2528C7 90.2822 7 90.3117 7 90.341C7 90.3704 7 90.3998 7 90.4291C7 90.4585 7 90.4878 7 90.5171C7 90.5464 7 90.5757 7 90.6049C7 90.6341 7 90.6634 7 90.6926C7 90.7218 7 90.7509 7 90.7801C7 90.8092 7 90.8384 7 90.8675C7 90.8966 7 90.9256 7 90.9547C7 90.9837 7 91.0128 7 91.0418C7 91.0708 7 91.0997 7 91.1287C7 91.1576 7 91.1866 7 91.2154C7 91.2443 7 91.2732 7 91.3021C7 91.3309 7 91.3597 7 91.3885C7 91.4173 7 91.4461 7 91.4748C7 91.5036 7 91.5323 7 91.561C7 91.5897 7 91.6183 7 91.647C7 91.6756 7 91.7042 7 91.7328C7 91.7614 7 91.7899 7 91.8185C7 91.847 7 91.8755 7 91.904C7 91.9324 7 91.9609 7 91.9893C7 92.0177 7 92.0461 7 92.0745C7 92.1028 7 92.1312 7 92.1595C7 92.1878 7 92.216 7 92.2443C7 92.2726 7 92.3008 7 92.329C7 92.3572 7 92.3853 7 92.4135C7 92.4416 7 92.4697 7 92.4978C7 92.5259 7 92.5539 7 92.5819C7 92.6099 7 92.6379 7 92.6659C7 92.6939 7 92.7218 7 92.7497C7 92.7776 7 92.8055 7 92.8333C7 92.8612 7 92.889 7 92.9167C7 92.9445 7 92.9723 7 93H9C9 92.9723 9 92.9445 9 92.9167C9 92.889 9 92.8612 9 92.8333C9 92.8055 9 92.7776 9 92.7497C9 92.7218 9 92.6939 9 92.6659C9 92.6379 9 92.6099 9 92.5819C9 92.5539 9 92.5259 9 92.4978C9 92.4697 9 92.4416 9 92.4135C9 92.3853 9 92.3572 9 92.329C9 92.3008 9 92.2726 9 92.2443C9 92.216 9 92.1878 9 92.1595C9 92.1312 9 92.1028 9 92.0745C9 92.0461 9 92.0177 9 91.9893C9 91.9609 9 91.9324 9 91.904C9 91.8755 9 91.847 9 91.8185C9 91.7899 9 91.7614 9 91.7328C9 91.7042 9 91.6756 9 91.647C9 91.6183 9 91.5897 9 91.561C9 91.5323 9 91.5036 9 91.4748C9 91.4461 9 91.4173 9 91.3885C9 91.3597 9 91.3309 9 91.3021C9 91.2732 9 91.2443 9 91.2154C9 91.1866 9 91.1576 9 91.1287C9 91.0997 9 91.0708 9 91.0418C9 91.0128 9 90.9837 9 90.9547C9 90.9256 9 90.8966 9 90.8675C9 90.8384 9 90.8092 9 90.7801C9 90.7509 9 90.7218 9 90.6926C9 90.6634 9 90.6341 9 90.6049C9 90.5757 9 90.5464 9 90.5171C9 90.4878 9 90.4585 9 90.4291C9 90.3998 9 90.3704 9 90.341C9 90.3117 9 90.2822 9 90.2528C9 90.2234 9 90.1939 9 90.1644C9 90.135 9 90.1055 9 90.0759C9 90.0464 9 90.0168 9 89.9873C9 89.9577 9 89.9281 9 89.8985C9 89.8689 9 89.8392 9 89.8096C9 89.7799 9 89.7502 9 89.7205C9 89.6908 9 89.6611 9 89.6313C9 89.6016 9 89.5718 9 89.542C9 89.5122 9 89.4824 9 89.4526C9 89.4228 9 89.3929 9 89.363C9 89.3332 9 89.3033 9 89.2733C9 89.2434 9 89.2135 9 89.1835C9 89.1536 9 89.1236 9 89.0936C9 89.0636 9 89.0336 9 89.0035C9 88.9735 9 88.9434 9 88.9134C9 88.8833 9 88.8532 9 88.8231C9 88.7929 9 88.7628 9 88.7326C9 88.7025 9 88.6723 9 88.6421C9 88.6119 9 88.5817 9 88.5515C9 88.5212 9 88.491 9 88.4607C9 88.4304 9 88.4001 9 88.3698C9 88.3395 9 88.3092 9 88.2788C9 88.2485 9 88.2181 9 88.1878C9 88.1574 9 88.127 9 88.0965C9 88.0661 9 88.0357 9 88.0052C9 87.9748 9 87.9443 9 87.9138C9 87.8833 9 87.8528 9 87.8223C9 87.7918 9 87.7613 9 87.7307C9 87.7001 9 87.6696 9 87.639C9 87.6084 9 87.5778 9 87.5471C9 87.5165 9 87.4859 9 87.4552C9 87.4246 9 87.3939 9 87.3632C9 87.3325 9 87.3018 9 87.2711C9 87.2404 9 87.2096 9 87.1789C9 87.1481 9 87.1174 9 87.0866C9 87.0558 9 87.025 9 86.9942C9 86.9634 9 86.9326 9 86.9017C9 86.8709 9 86.84 9 86.8091C9 86.7783 9 86.7474 9 86.7165C9 86.6856 9 86.6547 9 86.6237C9 86.5928 9 86.5619 9 86.5309C9 86.4999 9 86.469 9 86.438C9 86.407 9 86.376 9 86.345C9 86.314 9 86.2829 9 86.2519C9 86.2209 9 86.1898 9 86.1587C9 86.1277 9 86.0966 9 86.0655C9 86.0344 9 86.0033 9 85.9722C9 85.9411 9 85.9099 9 85.8788C9 85.8477 9 85.8165 9 85.7853C9 85.7542 9 85.723 9 85.6918C9 85.6606 9 85.6294 9 85.5982C9 85.567 9 85.5357 9 85.5045C9 85.4733 9 85.442 9 85.4107C9 85.3795 9 85.3482 9 85.3169C9 85.2856 9 85.2543 9 85.223C9 85.1917 9 85.1604 9 85.1291C9 85.0978 9 85.0664 9 85.0351C9 85.0037 9 84.9724 9 84.941C9 84.9096 9 84.8783 9 84.8469C9 84.8155 9 84.7841 9 84.7527C9 84.7213 9 84.6898 9 84.6584C9 84.627 9 84.5956 9 84.5641C9 84.5327 9 84.5012 9 84.4697C9 84.4383 9 84.4068 9 84.3753C9 84.3438 9 84.3123 9 84.2808C9 84.2493 9 84.2178 9 84.1863C9 84.1548 9 84.1233 9 84.0917C9 84.0602 9 84.0287 9 83.9971C9 83.9656 9 83.934 9 83.9024C9 83.8709 9 83.8393 9 83.8077C9 83.7761 9 83.7446 9 83.713C9 83.6814 9 83.6498 9 83.6181C9 83.5865 9 83.5549 9 83.5233C9 83.4917 9 83.46 9 83.4284C9 83.3968 9 83.3651 9 83.3335C9 83.3018 9 83.2702 9 83.2385C9 83.2068 9 83.1752 9 83.1435C9 83.1118 9 83.0802 9 83.0485C9 83.0168 9 82.9851 9 82.9534C9 82.9217 9 82.89 9 82.8583C9 82.8266 9 82.7949 9 82.7632C9 82.7314 9 82.6997 9 82.668C9 82.6363 9 82.6045 9 82.5728C9 82.541 9 82.5093 9 82.4776C9 82.4458 9 82.4141 9 82.3823C9 82.3506 9 82.3188 9 82.287C9 82.2553 9 82.2235 9 82.1917C9 82.16 9 82.1282 9 82.0964C9 82.0646 9 82.0329 9 82.0011C9 81.9693 9 81.9375 9 81.9057C9 81.8739 9 81.8421 9 81.8103C9 81.7785 9 81.7467 9 81.7149C9 81.6831 9 81.6513 9 81.6195C9 81.5877 9 81.5559 9 81.5241C9 81.4923 9 81.4605 9 81.4287C9 81.3969 9 81.365 9 81.3332C9 81.3014 9 81.2696 9 81.2378C9 81.2059 9 81.1741 9 81.1423C9 81.1105 9 81.0787 9 81.0468C9 81.015 9 80.9832 9 80.9513C9 80.9195 9 80.8877 9 80.8559C9 80.824 9 80.7922 9 80.7604C9 80.7286 9 80.6967 9 80.6649C9 80.6331 9 80.6012 9 80.5694C9 80.5376 9 80.5057 9 80.4739C9 80.4421 9 80.4103 9 80.3784C9 80.3466 9 80.3148 9 80.2829C9 80.2511 9 80.2193 9 80.1875C9 80.1556 9 80.1238 9 80.092C9 80.0602 9 80.0284 9 79.9965C9 79.9647 9 79.9329 9 79.9011C9 79.8693 9 79.8374 9 79.8056C9 79.7738 9 79.742 9 79.7102C9 79.6784 9 79.6466 9 79.6148C9 79.583 9 79.5512 9 79.5194C9 79.4876 9 79.4558 9 79.424C9 79.3922 9 79.3604 9 79.3286C9 79.2968 9 79.2651 9 79.2333C9 79.2015 9 79.1697 9 79.1379C9 79.1062 9 79.0744 9 79.0426C9 79.0109 9 78.9791 9 78.9473C9 78.9156 9 78.8838 9 78.8521C9 78.8203 9 78.7886 9 78.7568C9 78.7251 9 78.6933 9 78.6616C9 78.6299 9 78.5981 9 78.5664C9 78.5347 9 78.503 9 78.4713C9 78.4396 9 78.4078 9 78.3761C9 78.3444 9 78.3127 9 78.281C9 78.2494 9 78.2177 9 78.186C9 78.1543 9 78.1226 9 78.091C9 78.0593 9 78.0276 9 77.996C9 77.9643 9 77.9327 9 77.901C9 77.8694 9 77.8377 9 77.8061C9 77.7745 9 77.7428 9 77.7112C9 77.6796 9 77.648 9 77.6164C9 77.5848 9 77.5532 9 77.5216C9 77.49 9 77.4584 9 77.4268C9 77.3953 9 77.3637 9 77.3321C9 77.3006 9 77.269 9 77.2375C9 77.2059 9 77.1744 9 77.1429C9 77.1114 9 77.0798 9 77.0483C9 77.0168 9 76.9853 9 76.9538C9 76.9223 9 76.8908 9 76.8594C9 76.8279 9 76.7964 9 76.765C9 76.7335 9 76.702 9 76.6706C9 76.6392 9 76.6077 9 76.5763C9 76.5449 9 76.5135 9 76.4821C9 76.4507 9 76.4193 9 76.3879C9 76.3565 9 76.3251 9 76.2938C9 76.2624 9 76.2311 9 76.1997C9 76.1684 9 76.1371 9 76.1057C9 76.0744 9 76.0431 9 76.0118C9 75.9805 9 75.9492 9 75.918C9 75.8867 9 75.8554 9 75.8242C9 75.7929 9 75.7617 9 75.7304C9 75.6992 9 75.668 9 75.6368C9 75.6056 9 75.5744 9 75.5432C9 75.512 9 75.4808 9 75.4497C9 75.4185 9 75.3874 9 75.3562C9 75.3251 9 75.294 9 75.2629C9 75.2318 9 75.2007 9 75.1696C9 75.1385 9 75.1074 9 75.0764C9 75.0453 9 75.0143 9 74.9832C9 74.9522 9 74.9212 9 74.8902C9 74.8592 9 74.8282 9 74.7972C9 74.7663 9 74.7353 9 74.7043C9 74.6734 9 74.6425 9 74.6115C9 74.5806 9 74.5497 9 74.5188C9 74.4879 9 74.4571 9 74.4262C9 74.3953 9 74.3645 9 74.3336C9 74.3028 9 74.272 9 74.2412C9 74.2104 9 74.1796 9 74.1488C9 74.1181 9 74.0873 9 74.0566C9 74.0258 9 73.9951 9 73.9644C9 73.9337 9 73.903 9 73.8723C9 73.8416 9 73.811 9 73.7803C9 73.7497 9 73.7191 9 73.6884C9 73.6578 9 73.6272 9 73.5967C9 73.5661 9 73.5355 9 73.505C9 73.4744 9 73.4439 9 73.4134C9 73.3829 9 73.3524 9 73.3219C9 73.2914 9 73.261 9 73.2305C9 73.2001 9 73.1697 9 73.1393C9 73.1089 9 73.0785 9 73.0481C9 73.0177 9 72.9874 9 72.9571C9 72.9267 9 72.8964 9 72.8661C9 72.8358 9 72.8055 9 72.7753C9 72.745 9 72.7148 9 72.6846C9 72.6543 9 72.6241 9 72.5939C9 72.5638 9 72.5336 9 72.5035C9 72.4733 9 72.4432 9 72.4131C9 72.383 9 72.3529 9 72.3228C9 72.2928 9 72.2627 9 72.2327C9 72.2027 9 72.1727 9 72.1427C9 72.1127 9 72.0827 9 72.0528C9 72.0228 9 71.9929 9 71.963C9 71.9331 9 71.9032 9 71.8734C9 71.8435 9 71.8137 9 71.7839C9 71.754 9 71.7242 9 71.6945C9 71.6647 9 71.6349 9 71.6052C9 71.5755 9 71.5458 9 71.5161C9 71.4864 9 71.4567 9 71.4271C9 71.3974 9 71.3678 9 71.3382C9 71.3086 9 71.279 9 71.2495C9 71.2199 9 71.1904 9 71.1609C9 71.1313 9 71.1019 9 71.0724C9 71.0429 9 71.0135 9 70.9841C9 70.9547 9 70.9253 9 70.8959C9 70.8665 9 70.8372 9 70.8078C9 70.7785 9 70.7492 9 70.7199C9 70.6907 9 70.6614 9 70.6322C9 70.603 9 70.5738 9 70.5446C9 70.5154 9 70.4862 9 70.4571C9 70.428 9 70.3989 9 70.3698C9 70.3407 9 70.3116 9 70.2826C9 70.2536 9 70.2246 9 70.1956C9 70.1666 9 70.1377 9 70.1087C9 70.0798 9 70.0509 9 70.022C9 69.9931 9 69.9643 9 69.9355C9 69.9066 9 69.8778 9 69.849C9 69.8203 9 69.7915 9 69.7628C9 69.7341 9 69.7054 9 69.6767C9 69.648 9 69.6194 9 69.5908C9 69.5622 9 69.5336 9 69.505C9 69.4764 9 69.4479 9 69.4194C9 69.3909 9 69.3624 9 69.334C9 69.3055 9 69.2771 9 69.2487C9 69.2203 9 69.1919 9 69.1636C9 69.1352 9 69.1069 9 69.0786C9 69.0503 9 69.0221 9 68.9939C9 68.9656 9 68.9374 9 68.9093C9 68.8811 9 68.8529 9 68.8248C9 68.7967 9 68.7686 9 68.7406C9 68.7125 9 68.6845 9 68.6565C9 68.6285 9 68.6005 9 68.5726C9 68.5446 9 68.5167 9 68.4888C9 68.461 9 68.4331 9 68.4053C9 68.3775 9 68.3497 9 68.3219C9 68.2942 9 68.2664 9 68.2387C9 68.211 9 68.1834 9 68.1557C9 68.1281 9 68.1005 9 68.0729C9 68.0453 9 68.0178 9 67.9903C9 67.9627 9 67.9353 9 67.9078C9 67.8803 9 67.8529 9 67.8255C9 67.7981 9 67.7708 9 67.7435C9 67.7161 9 67.6888 9 67.6616C9 67.6343 9 67.6071 9 67.5799C9 67.5527 9 67.5255 9 67.4984C9 67.4713 9 67.4442 9 67.4171C9 67.39 9 67.363 9 67.336C9 67.309 9 67.282 9 67.2551C9 67.2281 9 67.2012 9 67.1744C9 67.1475 9 67.1206 9 67.0938C9 67.067 9 67.0403 9 67.0135C9 66.9868 9 66.9601 9 66.9334C9 66.9068 9 66.8801 9 66.8535C9 66.8269 9 66.8004 9 66.7738C9 66.7473 9 66.7208 9 66.6943C9 66.6679 9 66.6414 9 66.6151C9 66.5887 9 66.5623 9 66.536C9 66.5097 9 66.4834 9 66.4571C9 66.4309 9 66.4046 9 66.3785C9 66.3523 9 66.3261 9 66.3C9 66.2739 9 66.2478 9 66.2218C9 66.1958 9 66.1698 9 66.1438C9 66.1178 9 66.0919 9 66.066C9 66.0401 9 66.0143 9 65.9884C9 65.9626 9 65.9368 9 65.9111C9 65.8854 9 65.8596 9 65.834C9 65.8083 9 65.7827 9 65.7571C9 65.7315 9 65.7059 9 65.6804C9 65.6549 9 65.6294 9 65.6039C9 65.5785 9 65.5531 9 65.5277C9 65.5023 9 65.477 9 65.4517C9 65.4264 9 65.4012 9 65.3759C9 65.3507 9 65.3255 9 65.3004C9 65.2753 9 65.2502 9 65.2251C9 65.2 9 65.175 9 65.15C9 65.125 9 65.1001 9 65.0752C9 65.0503 9 65.0254 9 65.0006C9 64.9758 9 64.951 9 64.9262C9 64.9015 9 64.8768 9 64.8521C9 64.8274 9 64.8028 9 64.7782C9 64.7536 9 64.7291 9 64.7046C9 64.6801 9 64.6556 9 64.6312C9 64.6068 9 64.5824 9 64.558C9 64.5337 9 64.5094 9 64.4851C9 64.4609 9 64.4366 9 64.4125C9 64.3883 9 64.3642 9 64.3401C9 64.316 9 64.2919 9 64.2679C9 64.2439 9 64.2199 9 64.196C9 64.1721 9 64.1482 9 64.1243C9 64.1005 9 64.0767 9 64.0529C9 64.0292 9 64.0055 9 63.9818C9 63.9581 9 63.9345 9 63.9109C9 63.8873 9 63.8638 9 63.8403C9 63.8168 9 63.7933 9 63.7699C9 63.7465 9 63.7231 9 63.6998C9 63.6764 9 63.6532 9 63.6299C9 63.6067 9 63.5835 9 63.5603C9 63.5372 9 63.5141 9 63.491C9 63.4679 9 63.4449 9 63.4219C9 63.399 9 63.376 9 63.3532C9 63.3303 9 63.3074 9 63.2846C9 63.2618 9 63.2391 9 63.2164C9 63.1937 9 63.171 9 63.1484C9 63.1258 9 63.1032 9 63.0807C9 63.0582 9 63.0357 9 63.0133C9 62.9908 9 62.9685 9 62.9461C9 62.9238 9 62.9015 9 62.8792C9 62.857 9 62.8348 9 62.8126C9 62.7905 9 62.7684 9 62.7463C9 62.7242 9 62.7022 9 62.6803C9 62.6583 9 62.6364 9 62.6145C9 62.5926 9 62.5708 9 62.549C9 62.5273 9 62.5055 9 62.4838C9 62.4622 9 62.4405 9 62.4189C9 62.3974 9 62.3758 9 62.3543C9 62.3328 9 62.3114 9 62.29C9 62.2686 9 62.2473 9 62.226C9 62.2047 9 62.1834 9 62.1622C9 62.141 9 62.1199 9 62.0988C9 62.0777 9 62.0566 9 62.0356C9 62.0146 9 61.9936 9 61.9727C9 61.9518 9 61.931 9 61.9102C9 61.8894 9 61.8686 9 61.8479C9 61.8272 9 61.8065 9 61.7859C9 61.7653 9 61.7448 9 61.7243C9 61.7038 9 61.6833 9 61.6629C9 61.6425 9 61.6221 9 61.6018C9 61.5815 9 61.5613 9 61.5411C9 61.5209 9 61.5007 9 61.4806C9 61.4605 9 61.4405 9 61.4205C9 61.4005 9 61.3806 9 61.3607C9 61.3408 9 61.3209 9 61.3011C9 61.2814 9 61.2616 9 61.2419C9 61.2222 9 61.2026 9 61.183C9 61.1635 9 61.1439 9 61.1245C9 61.105 9 61.0856 9 61.0662C9 61.0468 9 61.0275 9 61.0082C9 60.989 9 60.9698 9 60.9506C9 60.9315 9 60.9123 9 60.8933C9 60.8742 9 60.8553 9 60.8363C9 60.8174 9 60.7985 9 60.7796C9 60.7608 9 60.742 9 60.7233C9 60.7046 9 60.6859 9 60.6673C9 60.6487 9 60.6301 9 60.6116C9 60.5931 9 60.5746 9 60.5562C9 60.5378 9 60.5195 9 60.5012C9 60.4829 9 60.4647 9 60.4465C9 60.4283 9 60.4102 9 60.3921C9 60.3741 9 60.356 9 60.3381C9 60.3201 9 60.3022 9 60.2844C9 60.2665 9 60.2488 9 60.231C9 60.2133 9 60.1956 9 60.178C9 60.1604 9 60.1428 9 60.1253C9 60.1078 9 60.0903 9 60.0729C9 60.0556 9 60.0382 9 60.0209C9 60.0037 9 59.9864 9 59.9693C9 59.9521 9 59.935 9 59.918C9 59.9009 9 59.8839 9 59.867C9 59.85 9 59.8332 9 59.8163C9 59.7995 9 59.7828 9 59.7661C9 59.7494 9 59.7327 9 59.7161C9 59.6995 9 59.683 9 59.6666C9 59.6501 9 59.6337 9 59.6173C9 59.601 9 59.5847 9 59.5684C9 59.5522 9 59.536 9 59.5199C9 59.5038 9 59.4878 9 59.4718C9 59.4558 9 59.4398 9 59.424C9 59.4081 9 59.3923 9 59.3765C9 59.3608 9 59.3451 9 59.3294C9 59.3138 9 59.2982 9 59.2827C9 59.2672 9 59.2517 9 59.2363C9 59.2209 9 59.2056 9 59.1903C9 59.1751 9 59.1599 9 59.1447C9 59.1296 9 59.1145 9 59.0994C9 59.0844 9 59.0694 9 59.0545C9 59.0396 9 59.0248 9 59.01C9 58.9952 9 58.9805 9 58.9659C9 58.9512 9 58.9366 9 58.9221C9 58.9075 9 58.8931 9 58.8787C9 58.8643 9 58.8499 9 58.8356C9 58.8213 9 58.8071 9 58.793C9 58.7788 9 58.7647 9 58.7507C9 58.7367 9 58.7227 9 58.7088C9 58.6949 9 58.681 9 58.6673C9 58.6535 9 58.6398 9 58.6261C9 58.6125 9 58.5989 9 58.5854C9 58.5718 9 58.5584 9 58.545C9 58.5316 9 58.5183 9 58.505C9 58.4917 9 58.4785 9 58.4654C9 58.4523 9 58.4392 9 58.4262C9 58.4132 9 58.4003 9 58.3874C9 58.3745 9 58.3617 9 58.349C9 58.3362 9 58.3235 9 58.3109C9 58.2983 9 58.2858 9 58.2733C9 58.2608 9 58.2484 9 58.236C9 58.2237 9 58.2114 9 58.1992C9 58.187 9 58.1748 9 58.1627C9 58.1506 9 58.1386 9 58.1267C9 58.1147 9 58.1028 9 58.091C9 58.0792 9 58.0675 9 58.0558C9 58.0441 9 58.0325 9 58.0209C9 58.0094 9 57.9979 9 57.9865C9 57.9751 9 57.9637 9 57.9524C9 57.9412 9 57.93 9 57.9188C9 57.9077 9 57.8966 9 57.8856C9 57.8746 9 57.8637 9 57.8528C9 57.8419 9 57.8311 9 57.8204C9 57.8097 9 57.799 9 57.7884C9 57.7778 9 57.7673 9 57.7568C9 57.7464 9 57.736 9 57.7257C9 57.7154 9 57.7051 9 57.6949C9 57.6848 9 57.6746 9 57.6646C9 57.6546 9 57.6446 9 57.6347C9 57.6248 9 57.615 9 57.6052C9 57.5955 9 57.5858 9 57.5762C9 57.5666 9 57.557 9 57.5475C9 57.5381 9 57.5287 9 57.5193C9 57.51 9 57.5007 9 57.4915C9 57.4823 9 57.4732 9 57.4642C9 57.4551 9 57.4462 9 57.4373C9 57.4284 9 57.4195 9 57.4108C9 57.402 9 57.3933 9 57.3847C9 57.3761 9 57.3675 9 57.3591C9 57.3506 9 57.3422 9 57.3339C9 57.3255 9 57.3173 9 57.3091C9 57.3009 9 57.2928 9 57.2848C9 57.2767 9 57.2688 9 57.2609C9 57.253 9 57.2452 9 57.2374C9 57.2297 9 57.222 9 57.2144C9 57.2068 9 57.1993 9 57.1919C9 57.1844 9 57.177 9 57.1697C9 57.1624 9 57.1552 9 57.1481C9 57.1409 9 57.1338 9 57.1268C9 57.1198 9 57.1129 9 57.1061C9 57.0992 9 57.0924 9 57.0857C9 57.079 9 57.0724 9 57.0658C9 57.0593 9 57.0528 9 57.0464C9 57.04 9 57.0337 9 57.0274C9 57.0212 9 57.015 9 57.0089C9 57.0028 9 56.9968 9 56.9909C9 56.9849 9 56.979 9 56.9732C9 56.9675 9 56.9617 9 56.9561C9 56.9505 9 56.9449 9 56.9394C9 56.9339 9 56.9285 9 56.9232C9 56.9178 9 56.9126 9 56.9074C9 56.9022 9 56.8971 9 56.8921C9 56.8871 9 56.8821 9 56.8773C9 56.8724 9 56.8676 9 56.8629C9 56.8582 9 56.8535 9 56.849C9 56.8444 9 56.84 9 56.8356C9 56.8312 9 56.8268 9 56.8226C9 56.8184 9 56.8142 9 56.8101C9 56.806 9 56.802 9 56.7981C9 56.7942 9 56.7903 9 56.7865C9 56.7828 9 56.7791 9 56.7755C9 56.7719 9 56.7683 9 56.7649C9 56.7614 9 56.7581 9 56.7548C9 56.7515 9 56.7483 9 56.7452C9 56.742 9 56.739 9 56.736C9 56.733 9 56.7301 9 56.7273C9 56.7245 9 56.7218 9 56.7192C9 56.7165 9 56.7139 9 56.7115C9 56.709 9 56.7066 9 56.7042C9 56.7019 9 56.6997 9 56.6975C9 56.6954 9 56.6933 9 56.6913C9 56.6893 9 56.6874 9 56.6856C9 56.6837 9 56.682 9 56.6803C9 56.6786 9 56.677 9 56.6755C9 56.674 9 56.6726 9 56.6713C9 56.6699 9 56.6687 9 56.6675C9 56.6663 9 56.6653 9 56.6643C9 56.6632 9 56.6623 9 56.6615C9 56.6606 9 56.6599 9 56.6592C9 56.6585 9 56.658 9 56.6575C9 56.6569 9 56.6565 9 56.6562C9 56.6558 9 56.6556 9 56.6554C9 56.6553 9 56.6552 8 56.6552Z" fill="black"/>
</svg>
