<svg width="1150" height="2073" viewBox="0 0 1150 2073" fill="none" xmlns="http://www.w3.org/2000/svg">
<path d="M487.049 2072.16C487.689 2072.69 488.634 2072.59 489.16 2071.95L497.722 2061.51C498.248 2060.87 498.154 2059.93 497.514 2059.4C496.874 2058.88 495.928 2058.97 495.403 2059.61L487.792 2068.89L478.514 2061.28C477.874 2060.75 476.929 2060.85 476.403 2061.49C475.878 2062.13 475.971 2063.07 476.612 2063.6L487.049 2072.16ZM1139.06 0.93934C1138.47 0.353553 1137.53 0.353553 1136.94 0.93934L1127.39 10.4853C1126.81 11.0711 1126.81 12.0208 1127.39 12.6066C1127.98 13.1924 1128.93 13.1924 1129.51 12.6066L1138 4.12132L1146.49 12.6066C1147.07 13.1924 1148.02 13.1924 1148.61 12.6066C1149.19 12.0208 1149.19 11.0711 1148.61 10.4853L1139.06 0.93934ZM486.779 2058.63L488.272 2058.48L486.779 2058.63ZM466.876 2039.09H22V2042.09H466.876V2039.09ZM3.5 2020.59V73.2778H0.5V2020.59H3.5ZM22 54.7778H1118V51.7778H22V54.7778ZM485.287 2058.77L486.507 2071.15L489.493 2070.85L488.272 2058.48L485.287 2058.77ZM1139.5 33.2778V2H1136.5V33.2778H1139.5ZM1118 54.7778C1129.87 54.7778 1139.5 45.1519 1139.5 33.2778H1136.5C1136.5 43.4951 1128.22 51.7778 1118 51.7778V54.7778ZM3.5 73.2778C3.5 63.0605 11.7827 54.7778 22 54.7778V51.7778C10.1259 51.7778 0.5 61.4037 0.5 73.2778H3.5ZM22 2039.09C11.7827 2039.09 3.5 2030.81 3.5 2020.59H0.5C0.5 2032.47 10.1259 2042.09 22 2042.09V2039.09ZM466.876 2042.09C476.39 2042.09 484.353 2049.31 485.287 2058.77L488.272 2058.48C487.187 2047.48 477.933 2039.09 466.876 2039.09V2042.09Z" fill="black"/>
</svg>
