<svg width="920" height="1942" viewBox="0 0 920 1942" fill="none" xmlns="http://www.w3.org/2000/svg">
<path d="M12.0001 1868.02H10.5001V1866.52H12.0001V1868.02ZM13.0607 1941.06C12.4749 1941.65 11.5251 1941.65 10.9394 1941.06L1.39343 1931.51C0.807678 1930.93 0.807678 1929.98 1.39343 1929.39C1.97925 1928.81 2.92896 1928.81 3.51477 1929.39L12.0001 1937.88L20.4854 1929.39C21.0711 1928.81 22.0209 1928.81 22.6066 1929.39C23.1924 1929.98 23.1924 1930.93 22.6066 1931.51L13.0607 1941.06ZM129.625 0.5H898V3.5H129.625V0.5ZM919.5 22V1848.02H916.5V22H919.5ZM111.125 22V77.9804H108.125V22H111.125ZM898 1869.52H12.0001V1866.52H898V1869.52ZM13.5001 1868.02V1940H10.5001V1868.02H13.5001ZM919.5 1848.02C919.5 1859.89 909.874 1869.52 898 1869.52V1866.52C908.217 1866.52 916.5 1858.24 916.5 1848.02H919.5ZM898 0.5C909.874 0.5 919.5 10.1259 919.5 22H916.5C916.5 11.7827 908.217 3.5 898 3.5V0.5ZM129.625 3.5C119.408 3.5 111.125 11.7827 111.125 22H108.125C108.125 10.1259 117.751 0.5 129.625 0.5V3.5Z" fill="black"/>
</svg>
