<svg width="810" height="3678" viewBox="0 0 810 3678" fill="none" xmlns="http://www.w3.org/2000/svg">
<path d="M241.417 3677.06C240.831 3677.65 239.882 3677.65 239.296 3677.06L229.75 3667.51C229.164 3666.93 229.164 3665.98 229.75 3665.39C230.336 3664.81 231.286 3664.81 231.871 3665.39L240.357 3673.88L248.842 3665.39C249.428 3664.81 250.377 3664.81 250.963 3665.39C251.549 3665.98 251.549 3666.93 250.963 3667.51L241.417 3677.06ZM808 2V0.5H809.5V2H808ZM12 2H10.5V0.5H12V2ZM13.0607 124.038C12.4749 124.624 11.5251 124.624 10.9393 124.038L1.39343 114.492C0.807617 113.906 0.807617 112.957 1.39343 112.371C1.97919 111.785 2.92896 111.785 3.51471 112.371L12 120.856L20.4853 112.371C21.0711 111.785 22.0208 111.785 22.6066 112.371C23.1924 112.957 23.1924 113.906 22.6066 114.492L13.0607 124.038ZM260.357 3569.59H788V3572.59H260.357V3569.59ZM806.5 3551.09V241.445H809.5V3551.09H806.5ZM241.857 3591.09V3676H238.857V3591.09H241.857ZM806.5 241.445V2H809.5V241.445H806.5ZM808 3.5H12V0.5H808V3.5ZM13.5 2V122.977H10.5V2H13.5ZM788 3569.59C798.217 3569.59 806.5 3561.3 806.5 3551.09H809.5C809.5 3562.96 799.874 3572.59 788 3572.59V3569.59ZM260.357 3572.59C250.139 3572.59 241.857 3580.87 241.857 3591.09H238.857C238.857 3579.21 248.482 3569.59 260.357 3569.59V3572.59Z" fill="black"/>
</svg>
