<svg width="575" height="1984" viewBox="0 0 575 1984" fill="none" xmlns="http://www.w3.org/2000/svg">
<path d="M573 6.7234e-05C573.828 6.73532e-05 574.5 0.67164 574.5 1.50007C574.5 2.32849 573.828 3.00007 573 3.00007L573 6.7234e-05ZM362 1982.5H363.5V1984H362V1982.5ZM360.939 1950.44C361.525 1949.85 362.475 1949.85 363.061 1950.44L372.607 1959.99C373.192 1960.57 373.192 1961.52 372.607 1962.11C372.021 1962.69 371.071 1962.69 370.485 1962.11L362 1953.62L353.515 1962.11C352.929 1962.69 351.979 1962.69 351.393 1962.11C350.808 1961.52 350.808 1960.57 351.393 1959.99L360.939 1950.44ZM1.54553 1962.45L3.04553 1962.46L1.54553 1962.45ZM25.9547 1.5V3V1.5ZM5.95465 21.4546L4.45465 21.4512L5.95465 21.4546ZM573 3.00007L25.9547 3V2.38419e-06L573 6.7234e-05L573 3.00007ZM7.45465 21.458L3.04553 1962.46L0.0455322 1962.45L4.45465 21.4512L7.45465 21.458ZM21.5455 1981H362V1984H21.5455V1981ZM360.5 1982.5V1951.5H363.5V1982.5H360.5ZM3.04553 1962.46C3.02228 1972.69 11.3118 1981 21.5455 1981V1984C9.65228 1984 0.0184937 1974.34 0.0455322 1962.45L3.04553 1962.46ZM25.9547 3C15.7538 3 7.47784 11.2571 7.45465 21.458L4.45465 21.4512C4.48163 9.59614 14.0996 9.53674e-07 25.9547 2.38419e-06V3Z" fill="black"/>
</svg>
