<svg width="964" height="6248" viewBox="0 0 964 6248" fill="none" xmlns="http://www.w3.org/2000/svg">
<path d="M282.5 6199.69H284V6198.19H282.5V6199.69ZM281.439 6247.06C282.025 6247.65 282.975 6247.65 283.561 6247.06L293.107 6237.51C293.692 6236.93 293.692 6235.98 293.107 6235.39C292.521 6234.81 291.571 6234.81 290.985 6235.39L282.5 6243.88L274.015 6235.39C273.429 6234.81 272.479 6234.81 271.893 6235.39C271.308 6235.98 271.308 6236.93 271.893 6237.51L281.439 6247.06ZM919 45.3231H917.5V46.8231H919V45.3231ZM899 0.5H22V3.5H899V0.5ZM0.5 22V6179.69H3.5V22H0.5ZM22 6201.19H282.5V6198.19H22V6201.19ZM281 6199.69V6246H284V6199.69H281ZM917.5 22V45.3231H920.5V22H917.5ZM919 46.8231H964V43.8231H919V46.8231ZM0.5 6179.69C0.5 6191.56 10.1259 6201.19 22 6201.19V6198.19C11.7827 6198.19 3.5 6189.91 3.5 6179.69H0.5ZM22 0.5C10.1259 0.5 0.5 10.1259 0.5 22H3.5C3.5 11.7827 11.7827 3.5 22 3.5V0.5ZM899 3.5C909.217 3.5 917.5 11.7827 917.5 22H920.5C920.5 10.1259 910.874 0.5 899 0.5V3.5Z" fill="black"/>
</svg>
