<svg width="663" height="6291" viewBox="0 0 663 6291" fill="none" xmlns="http://www.w3.org/2000/svg">
<path d="M661 2V0.5H662.5V2H661ZM288.047 6277.94C288.633 6278.52 288.633 6279.48 288.047 6280.06L278.502 6289.61C277.916 6290.19 276.966 6290.19 276.38 6289.61C275.794 6289.02 275.794 6288.07 276.38 6287.49L284.865 6279L276.38 6270.51C275.794 6269.93 275.794 6268.98 276.38 6268.39C276.966 6267.81 277.916 6267.81 278.502 6268.39L288.047 6277.94ZM399.037 3.5H22V0.5H399.037V3.5ZM3.5 22V6259H0.5V22H3.5ZM399.037 0.5H661V3.5H399.037V0.5ZM662.5 2V67H659.5V2H662.5ZM22 6277.5H286.987V6280.5H22V6277.5ZM3.5 6259C3.5 6269.22 11.7827 6277.5 22 6277.5V6280.5C10.1259 6280.5 0.5 6270.87 0.5 6259H3.5ZM22 3.5C11.7827 3.5 3.5 11.7827 3.5 22H0.5C0.5 10.1259 10.1259 0.5 22 0.5V3.5Z" fill="black"/>
</svg>
