<svg width="439" height="4624" viewBox="0 0 439 4624" fill="none" xmlns="http://www.w3.org/2000/svg">
<path d="M2 2H0.5V0.5H2V2ZM437 4612.5H438.5V4614H437V4612.5ZM325.439 4613.56C324.854 4612.98 324.854 4612.02 325.439 4611.44L334.985 4601.89C335.571 4601.31 336.521 4601.31 337.107 4601.89C337.692 4602.48 337.692 4603.43 337.107 4604.01L328.621 4612.5L337.107 4620.99C337.692 4621.57 337.692 4622.52 337.107 4623.11C336.521 4623.69 335.571 4623.69 334.985 4623.11L325.439 4613.56ZM438.5 22V307H435.5V22H438.5ZM438.5 307V4420.5H435.5V307H438.5ZM417 3.5H2V0.5H417V3.5ZM3.5 2V62H0.5V2H3.5ZM438.5 4420.5V4612.5H435.5V4420.5H438.5ZM437 4614H326.5V4611H437V4614ZM435.5 22C435.5 11.7827 427.217 3.5 417 3.5V0.5C428.874 0.5 438.5 10.1259 438.5 22H435.5Z" fill="black"/>
</svg>
