<svg width="429" height="105" viewBox="0 0 429 105" fill="none" xmlns="http://www.w3.org/2000/svg">
<path d="M182 1.49793L183 1.48745L182.989 0.497921L182 0.497925L182 1.49793ZM183 96.9988L182 97.0093L182.01 97.9988L183 97.9988L183 96.9988ZM428.707 97.7059C429.098 97.3154 429.098 96.6822 428.707 96.2917L422.343 89.9278C421.953 89.5372 421.319 89.5372 420.929 89.9278C420.538 90.3183 420.538 90.9514 420.929 91.342L426.586 96.9988L420.929 102.656C420.538 103.046 420.538 103.679 420.929 104.07C421.319 104.46 421.953 104.46 422.343 104.07L428.707 97.7059ZM-0.000212575 2.49869L182 2.49793L182 0.497925L-0.00022093 0.498686L-0.000212575 2.49869ZM181 1.5084L182 97.0093L184 96.9883L183 1.48745L181 1.5084ZM183 97.9988L428 97.9988L428 95.9988L183 95.9988L183 97.9988Z" fill="black"/>
</svg>
