<svg width="247" height="105" viewBox="0 0 247 105" fill="none" xmlns="http://www.w3.org/2000/svg">
<path d="M182 1.49793L183 1.48745L182.989 0.497921L182 0.497925L182 1.49793ZM183 96.9988L182 97.0093L182.01 97.9988L183 97.9988L183 96.9988ZM246.707 97.7059C247.097 97.3154 247.097 96.6822 246.707 96.2917L240.343 89.9278C239.952 89.5372 239.319 89.5372 238.928 89.9278C238.538 90.3183 238.538 90.9514 238.928 91.342L244.585 96.9988L238.928 102.656C238.538 103.046 238.538 103.679 238.928 104.07C239.319 104.46 239.952 104.46 240.343 104.07L246.707 97.7059ZM-0.000212575 2.49869L182 2.49793L182 0.497925L-0.00022093 0.498686L-0.000212575 2.49869ZM181 1.5084L182 97.0093L184 96.9883L183 1.48745L181 1.5084ZM183 97.9988L245.999 97.9988L245.999 95.9988L183 95.9988L183 97.9988Z" fill="black"/>
</svg>
