<svg width="424" height="120" viewBox="0 0 424 120" fill="none" xmlns="http://www.w3.org/2000/svg">
<path d="M183.242 118.806L183.242 119.806L184.242 119.806L184.242 118.806L183.242 118.806ZM183.242 7.80543L183.242 6.80543L182.242 6.80543L182.242 7.80542L183.242 7.80543ZM423.707 8.51254C424.098 8.12201 424.098 7.48885 423.707 7.09832L417.343 0.734361C416.953 0.343836 416.319 0.343836 415.929 0.734361C415.538 1.12488 415.538 1.75805 415.929 2.14857L421.586 7.80543L415.929 13.4623C415.538 13.8528 415.538 14.486 415.929 14.8765C416.319 15.267 416.953 15.267 417.343 14.8765L423.707 8.51254ZM0.741933 119.806L183.242 119.806L183.242 117.806L0.741933 117.806L0.741933 119.806ZM184.242 118.806L184.242 7.80543L182.242 7.80542L182.242 118.806L184.242 118.806ZM183.242 8.80543L423 8.80543L423 6.80543L183.242 6.80543L183.242 8.80543Z" fill="black"/>
</svg>
