<svg width="248" height="120" viewBox="0 0 248 120" fill="none" xmlns="http://www.w3.org/2000/svg">
<path d="M183.242 118.806L183.242 119.806L184.242 119.806L184.242 118.806L183.242 118.806ZM183.242 7.80543L183.242 6.80543L182.242 6.80541L182.242 7.80542L183.242 7.80543ZM247.449 8.51357C247.84 8.12305 247.84 7.48989 247.449 7.09936L241.085 0.735293C240.695 0.344763 240.062 0.344753 239.671 0.735271C239.28 1.12579 239.28 1.75895 239.671 2.14948L245.328 7.80643L239.671 13.4632C239.28 13.8537 239.28 14.4869 239.671 14.8774C240.061 15.2679 240.694 15.2679 241.085 14.8774L247.449 8.51357ZM0.741933 119.806L183.242 119.806L183.242 117.806L0.741933 117.806L0.741933 119.806ZM184.242 118.806L184.242 7.80543L182.242 7.80542L182.242 118.806L184.242 118.806ZM183.242 8.80543L246.742 8.80645L246.742 6.80645L183.242 6.80543L183.242 8.80543Z" fill="black"/>
</svg>
