<svg width="44" height="217" viewBox="0 0 44 217" fill="none" xmlns="http://www.w3.org/2000/svg">
<path d="M42.5 209.5V210.5H43.5V209.5H42.5ZM0.792893 208.793C0.402369 209.183 0.402369 209.817 0.792893 210.207L7.15685 216.571C7.54738 216.962 8.18054 216.962 8.57107 216.571C8.96159 216.181 8.96159 215.547 8.57107 215.157L2.91421 209.5L8.57107 203.843C8.96159 203.453 8.96159 202.819 8.57107 202.429C8.18054 202.038 7.54738 202.038 7.15685 202.429L0.792893 208.793ZM41.5 0V209.5H43.5V0H41.5ZM42.5 208.5H1.5V210.5H42.5V208.5Z" fill="black"/>
</svg>
