<svg width="67" height="233" viewBox="0 0 67 233" fill="none" xmlns="http://www.w3.org/2000/svg">
<path d="M66 225V226H67V225H66ZM0.292893 224.293C-0.0976311 224.683 -0.0976311 225.317 0.292893 225.707L6.65685 232.071C7.04738 232.462 7.68054 232.462 8.07107 232.071C8.46159 231.681 8.46159 231.047 8.07107 230.657L2.41421 225L8.07107 219.343C8.46159 218.953 8.46159 218.319 8.07107 217.929C7.68054 217.538 7.04738 217.538 6.65685 217.929L0.292893 224.293ZM65 0V225H67V0H65ZM66 224H1V226H66V224Z" fill="black"/>
</svg>
