<svg width="60" height="60" viewBox="0 0 60 60" fill="none" xmlns="http://www.w3.org/2000/svg">
<path d="M40.4362 5.38477H19.7825C10.8112 5.38477 5.46289 10.733 5.46289 19.7044V40.3335C5.46289 49.3294 10.8112 54.6777 19.7825 54.6777H40.4116C49.3829 54.6777 54.7312 49.3294 54.7312 40.3581V19.7044C54.7558 10.733 49.4075 5.38477 40.4362 5.38477ZM34.5211 37.4252C35.2358 38.1399 35.2358 39.3229 34.5211 40.0377C34.1514 40.4074 33.6831 40.5799 33.2148 40.5799C32.7465 40.5799 32.2782 40.4074 31.9085 40.0377L23.2083 31.3375C22.4936 30.6227 22.4936 29.4397 23.2083 28.725L31.9085 20.0248C32.6233 19.31 33.8063 19.31 34.5211 20.0248C35.2358 20.7395 35.2358 21.9225 34.5211 22.6373L27.1271 30.0312L34.5211 37.4252Z" fill="#0246BC"/>
</svg>
