<svg width="62" height="61" viewBox="0 0 62 61" fill="none" xmlns="http://www.w3.org/2000/svg">
<path d="M41.4491 5.08398H20.1499C10.8982 5.08398 5.38281 10.5994 5.38281 19.8511V41.1248C5.38281 50.4019 10.8982 55.9173 20.1499 55.9173H41.4236C50.6753 55.9173 56.1907 50.4019 56.1907 41.1502V19.8511C56.2161 10.5994 50.7007 5.08398 41.4491 5.08398ZM35.3491 38.1257C36.0861 38.8627 36.0861 40.0827 35.3491 40.8198C34.9678 41.2011 34.4849 41.379 34.002 41.379C33.5191 41.379 33.0361 41.2011 32.6549 40.8198L23.6828 31.8477C22.9457 31.1107 22.9457 29.8907 23.6828 29.1536L32.6549 20.1815C33.392 19.4444 34.612 19.4444 35.3491 20.1815C36.0861 20.9186 36.0861 22.1386 35.3491 22.8757L27.7241 30.5007L35.3491 38.1257Z" fill="#0246BC"/>
</svg>
