<svg width="61" height="61" viewBox="0 0 61 61" fill="none" xmlns="http://www.w3.org/2000/svg">
<path d="M41.1493 5.08398H19.8501C10.5984 5.08398 5.08301 10.5994 5.08301 19.8511V41.1248C5.08301 50.4019 10.5984 55.9173 19.8501 55.9173H41.1238C50.3755 55.9173 55.8909 50.4019 55.8909 41.1502V19.8511C55.9163 10.5994 50.4009 5.08398 41.1493 5.08398ZM35.0493 38.1257C35.7863 38.8627 35.7863 40.0827 35.0493 40.8198C34.668 41.2011 34.1851 41.379 33.7022 41.379C33.2193 41.379 32.7363 41.2011 32.3551 40.8198L23.383 31.8477C22.6459 31.1107 22.6459 29.8907 23.383 29.1536L32.3551 20.1815C33.0922 19.4444 34.3122 19.4444 35.0493 20.1815C35.7863 20.9186 35.7863 22.1386 35.0493 22.8757L27.4243 30.5007L35.0493 38.1257Z" fill="#0246BC"/>
</svg>
