<svg width="36" height="36" viewBox="0 0 36 36" fill="none" xmlns="http://www.w3.org/2000/svg">
<path d="M24.285 3H11.715C6.255 3 3 6.255 3 11.715V24.27C3 29.745 6.255 33 11.715 33H24.27C29.73 33 32.985 29.745 32.985 24.285V11.715C33 6.255 29.745 3 24.285 3ZM20.685 22.5C21.12 22.935 21.12 23.655 20.685 24.09C20.46 24.315 20.175 24.42 19.89 24.42C19.605 24.42 19.32 24.315 19.095 24.09L13.8 18.795C13.365 18.36 13.365 17.64 13.8 17.205L19.095 11.91C19.53 11.475 20.25 11.475 20.685 11.91C21.12 12.345 21.12 13.065 20.685 13.5L16.185 18L20.685 22.5Z" fill="#0246BC"/>
</svg>
