<svg width="55" height="22" viewBox="0 0 55 22" fill="none" xmlns="http://www.w3.org/2000/svg">
<path d="M1.53711 9.74404C0.767412 9.74404 0.14345 10.368 0.14345 11.1377C0.14345 11.9074 0.767412 12.5314 1.53711 12.5314V9.74404ZM54.5525 12.1232C55.0968 11.5789 55.0968 10.6965 54.5525 10.1522L45.6833 1.28303C45.1391 0.738774 44.2567 0.738774 43.7124 1.28303C43.1682 1.82729 43.1682 2.70971 43.7124 3.25396L51.5961 11.1377L43.7124 19.0214C43.1682 19.5657 43.1682 20.4481 43.7124 20.9924C44.2567 21.5366 45.1391 21.5366 45.6833 20.9924L54.5525 12.1232ZM1.53711 12.5314H27.5521V9.74404H1.53711V12.5314ZM27.5521 12.5314H53.5671V9.74404H27.5521V12.5314Z" fill="black"/>
</svg>
