<svg width="182" height="21" viewBox="0 0 182 21" fill="none" xmlns="http://www.w3.org/2000/svg">
<path d="M1.82129 8.88661C1.05159 8.88661 0.427629 9.51058 0.427629 10.2803C0.427629 11.05 1.05159 11.6739 1.82129 11.6739V8.88661ZM181.195 11.2657C181.739 10.7215 181.739 9.83907 181.195 9.29481L172.326 0.42561C171.782 -0.118648 170.899 -0.118648 170.355 0.42561C169.811 0.969868 169.811 1.85228 170.355 2.39654L178.239 10.2803L170.355 18.164C169.811 18.7083 169.811 19.5907 170.355 20.1349C170.899 20.6792 171.782 20.6792 172.326 20.1349L181.195 11.2657ZM1.82129 11.6739H91.0155V8.88661H1.82129V11.6739ZM91.0155 11.6739H180.21V8.88661H91.0155V11.6739Z" fill="black"/>
</svg>
