<svg width="55" height="21" viewBox="0 0 55 21" fill="none" xmlns="http://www.w3.org/2000/svg">
<path d="M0.448127 9.69715C-0.0961306 10.2414 -0.0961306 11.1238 0.448127 11.6681L9.31732 20.5373C9.86158 21.0815 10.744 21.0815 11.2883 20.5373C11.8325 19.993 11.8325 19.1106 11.2883 18.5663L3.40453 10.6826L11.2883 2.79889C11.8325 2.25463 11.8325 1.37221 11.2883 0.827954C10.744 0.283696 9.86158 0.283696 9.31732 0.827954L0.448127 9.69715ZM53.4636 12.0763C54.2333 12.0763 54.8572 11.4523 54.8572 10.6826C54.8572 9.91292 54.2333 9.28896 53.4636 9.28896V12.0763ZM1.43359 12.0763H27.4486V9.28896H1.43359V12.0763ZM27.4486 12.0763H53.4636V9.28896H27.4486V12.0763Z" fill="black"/>
</svg>
