<svg width="56" height="21" viewBox="0 0 56 21" fill="none" xmlns="http://www.w3.org/2000/svg">
<path d="M0.89637 9.69715C0.352112 10.2414 0.352112 11.1238 0.89637 11.6681L9.76557 20.5373C10.3098 21.0815 11.1922 21.0815 11.7365 20.5373C12.2808 19.993 12.2808 19.1106 11.7365 18.5663L3.85277 10.6826L11.7365 2.79889C12.2808 2.25463 12.2808 1.37221 11.7365 0.827954C11.1922 0.283696 10.3098 0.283696 9.76557 0.827954L0.89637 9.69715ZM53.9118 12.0763C54.6815 12.0763 55.3055 11.4523 55.3055 10.6826C55.3055 9.91292 54.6815 9.28896 53.9118 9.28896V12.0763ZM1.88184 12.0763H27.8968V9.28896H1.88184V12.0763ZM27.8968 12.0763H53.9118V9.28896H27.8968V12.0763Z" fill="black"/>
</svg>
