<svg width="56" height="21" viewBox="0 0 56 21" fill="none" xmlns="http://www.w3.org/2000/svg">
<path d="M0.999885 9.69715C0.455627 10.2414 0.455627 11.1238 0.999885 11.6681L9.86908 20.5373C10.4133 21.0815 11.2958 21.0815 11.84 20.5373C12.3843 19.993 12.3843 19.1106 11.84 18.5663L3.95628 10.6826L11.84 2.79889C12.3843 2.25463 12.3843 1.37221 11.84 0.827954C11.2958 0.283696 10.4133 0.283696 9.86908 0.827954L0.999885 9.69715ZM54.0153 12.0763C54.785 12.0763 55.409 11.4523 55.409 10.6826C55.409 9.91292 54.785 9.28896 54.0153 9.28896V12.0763ZM1.98535 12.0763H28.0003V9.28896H1.98535V12.0763ZM28.0003 12.0763H54.0153V9.28896H28.0003V12.0763Z" fill="black"/>
</svg>
