<svg width="56" height="22" viewBox="0 0 56 22" fill="none" xmlns="http://www.w3.org/2000/svg">
<path d="M1.98535 9.74404C1.21565 9.74404 0.591692 10.368 0.591692 11.1377C0.591692 11.9074 1.21565 12.5314 1.98535 12.5314V9.74404ZM55.0008 12.1232C55.545 11.5789 55.545 10.6965 55.0008 10.1522L46.1316 1.28303C45.5873 0.738774 44.7049 0.738774 44.1607 1.28303C43.6164 1.82729 43.6164 2.70971 44.1607 3.25396L52.0444 11.1377L44.1607 19.0214C43.6164 19.5657 43.6164 20.4481 44.1607 20.9924C44.7049 21.5366 45.5873 21.5366 46.1316 20.9924L55.0008 12.1232ZM1.98535 12.5314H28.0003V9.74404H1.98535V12.5314ZM28.0003 12.5314H54.0153V9.74404H28.0003V12.5314Z" fill="black"/>
</svg>
