<svg width="56" height="22" viewBox="0 0 56 22" fill="none" xmlns="http://www.w3.org/2000/svg">
<path d="M1.88184 9.74404C1.11214 9.74404 0.488176 10.368 0.488176 11.1377C0.488176 11.9074 1.11214 12.5314 1.88184 12.5314V9.74404ZM54.8973 12.1232C55.4415 11.5789 55.4415 10.6965 54.8973 10.1522L46.0281 1.28303C45.4838 0.738774 44.6014 0.738774 44.0571 1.28303C43.5129 1.82729 43.5129 2.70971 44.0571 3.25396L51.9409 11.1377L44.0571 19.0214C43.5129 19.5657 43.5129 20.4481 44.0571 20.9924C44.6014 21.5366 45.4838 21.5366 46.0281 20.9924L54.8973 12.1232ZM1.88184 12.5314H27.8968V9.74404H1.88184V12.5314ZM27.8968 12.5314H53.9118V9.74404H27.8968V12.5314Z" fill="black"/>
</svg>
