<svg width="56" height="21" viewBox="0 0 56 21" fill="none" xmlns="http://www.w3.org/2000/svg">
<path d="M1.82129 9.2997C1.05159 9.2997 0.427629 9.92366 0.427629 10.6934C0.427629 11.4631 1.05159 12.087 1.82129 12.087V9.2997ZM54.8367 11.6788C55.381 11.1346 55.381 10.2522 54.8367 9.70789L45.9675 0.838696C45.4233 0.294438 44.5409 0.294438 43.9966 0.838696C43.4523 1.38295 43.4523 2.26537 43.9966 2.80963L51.8803 10.6934L43.9966 18.5771C43.4523 19.1213 43.4523 20.0038 43.9966 20.548C44.5409 21.0923 45.4233 21.0923 45.9675 20.548L54.8367 11.6788ZM1.82129 12.087H27.8363V9.2997H1.82129V12.087ZM27.8363 12.087H53.8513V9.2997H27.8363V12.087Z" fill="black"/>
</svg>
