<svg width="22" height="85" viewBox="0 0 22 85" fill="none" xmlns="http://www.w3.org/2000/svg">
<path d="M12.2237 2.33203C12.2237 1.56233 11.5998 0.938371 10.8301 0.938371C10.0604 0.938371 9.43642 1.56233 9.43642 2.33203L12.2237 2.33203ZM9.84462 84.1498C10.3889 84.694 11.2713 84.694 11.8155 84.1498L20.6847 75.2806C21.229 74.7363 21.229 73.8539 20.6847 73.3096C20.1405 72.7654 19.2581 72.7654 18.7138 73.3096L10.8301 81.1934L2.94635 73.3096C2.40209 72.7654 1.51968 72.7654 0.975418 73.3096C0.43116 73.8539 0.43116 74.7363 0.975418 75.2806L9.84462 84.1498ZM9.43642 2.33203L9.43642 42.7482L12.2237 42.7482L12.2237 2.33203L9.43642 2.33203ZM9.43642 42.7482L9.43642 83.1643L12.2237 83.1643L12.2237 42.7482L9.43642 42.7482Z" fill="black"/>
</svg>
