<svg width="55" height="22" viewBox="0 0 55 22" fill="none" xmlns="http://www.w3.org/2000/svg">
<path d="M1.43359 9.74404C0.663897 9.74404 0.0399339 10.368 0.0399339 11.1377C0.0399339 11.9074 0.663897 12.5314 1.43359 12.5314V9.74404ZM54.449 12.1232C54.9933 11.5789 54.9933 10.6965 54.449 10.1522L45.5798 1.28303C45.0356 0.738774 44.1532 0.738774 43.6089 1.28303C43.0646 1.82729 43.0646 2.70971 43.6089 3.25396L51.4926 11.1377L43.6089 19.0214C43.0646 19.5657 43.0646 20.4481 43.6089 20.9924C44.1532 21.5366 45.0356 21.5366 45.5798 20.9924L54.449 12.1232ZM1.43359 12.5314H27.4486V9.74404H1.43359V12.5314ZM27.4486 12.5314H53.4636V9.74404H27.4486V12.5314Z" fill="black"/>
</svg>
